<svg width="247" height="363" viewBox="0 0 247 363" fill="none" xmlns="http://www.w3.org/2000/svg">
<g clip-path="url(#clip0_1692_17963)">
<path d="M134.606 69.6009C131.467 70.2032 109.726 74.736 99.193 94.763C90.305 111.663 90.3358 137.786 108.513 151.612C122.93 162.578 144.324 162.423 160.703 150.682C142.093 150.574 125.44 139.419 118.764 122.724C111.309 104.072 117.714 82.014 134.606 69.6048V69.6009Z" fill="#D6E513"/>
<path d="M152.896 69.6009C151.266 73.3268 149.633 77.0565 148.004 80.7823C141.463 79.3461 136.32 79.2804 135.772 80.7823C135.216 82.3036 139.305 85.6356 145.556 88.8209C139.768 97.2534 140.969 99.2032 141.363 99.6549C143.305 101.871 152.892 98.7321 154.645 93.3653C155.235 91.5507 154.9 89.5854 155.344 89.5198C156.054 89.4155 156.232 94.5121 159.888 97.5584C161.76 99.1144 164.444 100.056 165.131 99.3074C166.567 97.7321 158.104 89.9291 160.239 86.3769C161.598 84.1144 166.394 85.0217 166.529 83.9291C166.687 82.6511 160.008 82.2341 156.046 77.6395C153.872 75.1221 153.139 72.0681 152.9 69.6009H152.896Z" fill="#D6E513"/>
<path d="M73.0887 161.956C63.6833 170.666 58.9806 175.022 58.2162 175.767C35.5289 197.871 2.90347 237.659 8.2857 243.763C14.973 251.346 78.6409 204.937 80.5289 207.643C82.5366 210.52 6.32432 257.118 13.5984 274.574C17.5405 284.033 46.8185 286.937 64.5945 274.574C81.5096 262.809 81.2856 241.89 95.4053 239.516C103.432 238.164 107.239 244.296 116.652 248.014C148.062 260.427 197.88 228.616 195.27 214.018C193.656 204.998 171.305 198.477 153.838 201.269C140.031 203.473 131.463 211.145 129.401 208.705C127.764 206.767 132.131 200.678 147.463 177.894C158.127 162.053 161.513 156.821 160.212 150.273C158.973 144.037 153.529 136.84 147.463 136.462C131.216 135.443 117.652 183.759 112.405 182.145C107.316 180.581 120.66 135.319 111.344 131.149C108.324 129.798 104.069 133.273 73.0965 161.96L73.0887 161.956Z" fill="#E1E2C7"/>
<path d="M8.00773 173.473C-7.08878 193.06 0.969123 231.11 17.1699 237.601C19.9228 238.705 22.2085 238.612 29.3861 237.601C52.749 234.307 68.0038 229.732 81.2972 226.404C109.517 219.342 115.977 221.149 119.977 214.188C122.884 209.13 121.274 201.246 117.942 185.686C114.058 167.554 112.112 158.489 106.745 154.13C101.525 149.89 94.4517 148.89 60.9382 156.165C29.2355 163.049 13.278 166.628 8.00773 173.47V173.473Z" fill="#497A89"/>
<path d="M16.1506 180.597C20.4981 183.234 27.0463 186.774 35.4903 189.759C44.3359 192.883 51.9652 195.578 61.9575 194.848C67.2432 194.462 77.6717 193.697 86.386 185.686C97.0308 175.898 97.5443 162.261 97.5829 159.219" stroke="#E1E2C7" stroke-width="6.66023" stroke-miterlimit="10" stroke-linecap="round"/>
<path d="M33.4556 145.987C33.3011 144.736 32.4054 136.334 38.5444 129.701C39.0965 129.107 46.3397 121.512 54.8301 123.593C62.4478 125.462 68.2818 134.435 67.0463 144.968" stroke="#497A89" stroke-width="6.66023" stroke-miterlimit="10" stroke-linecap="round"/>
<path d="M186.123 293.199C175.537 293.199 165.278 290.319 156.482 284.778C136.367 272.103 126.031 246.782 131.344 223.211C136.911 198.512 156.869 186.624 162.849 183.57C164.486 182.732 166.494 183.385 167.328 185.022C168.166 186.659 167.513 188.666 165.876 189.5C162.081 191.439 142.896 202.242 137.838 224.674C133.131 245.547 142.259 267.944 160.031 279.145C180.567 292.087 208.942 287.74 226.031 269.029C241.919 251.635 244.973 223.164 232.699 206.859C224.062 195.385 207.591 190.408 197.753 187.431C191.764 185.62 185.552 184.377 179.293 183.74C177.463 183.554 176.131 181.917 176.32 180.091C176.506 178.261 178.139 176.929 179.969 177.118C186.652 177.802 193.282 179.126 199.679 181.06C210.301 184.269 228.077 189.643 238.019 202.856C244.679 211.701 247.799 224.334 246.583 237.512C245.332 251.064 239.78 263.852 230.946 273.52C221.98 283.334 209.645 290.014 196.216 292.33C192.842 292.913 189.463 293.199 186.12 293.199H186.123Z" fill="#E27B14"/>
<path d="M188.498 248.566C186.892 248.566 185.386 248.215 184.038 247.415C174.73 241.879 179.594 220.346 187.251 202.045C187.961 200.35 189.911 199.551 191.606 200.257C193.301 200.968 194.104 202.917 193.394 204.612C183.78 227.597 184.776 240.103 187.444 241.69C189.768 243.076 198.058 239.041 207.907 229.898C209.255 228.647 211.363 228.724 212.614 230.072C213.865 231.419 213.787 233.527 212.44 234.778C206.444 240.35 196.274 248.566 188.502 248.566H188.498Z" fill="#E27B14"/>
</g>
<defs>
<clipPath id="clip0_1692_17963">
<rect width="246.845" height="223.598" fill="white" transform="translate(0 69.6009)"/>
</clipPath>
</defs>
</svg>
