<svg width="243" height="363" viewBox="0 0 243 363" fill="none" xmlns="http://www.w3.org/2000/svg">
<path d="M91.9056 160.397C75.7296 155.685 36.8656 218.873 48.9816 234.141C51.2816 237.041 54.4856 237.993 54.4856 237.993C64.9736 241.117 75.4336 224.937 79.2496 226.985C85.1816 230.173 66.7696 273.017 69.3456 274.313C73.3936 276.349 126.79 174.289 135.386 178.009C142.15 180.937 113.042 245.881 128.782 256.153C137.006 261.521 153.63 249.465 181.062 229.189C216.486 203.005 245.942 173.989 242.698 169.753C239.598 165.705 212.898 192.441 189.866 183.509C169.754 175.709 170.758 147.813 156.298 146.089C137.13 143.805 120.85 191.093 106.77 187.361C97.4136 184.881 100.878 163.005 91.9096 160.397H91.9056Z" fill="#E1E2C7"/>
<path d="M109.86 173.943C115.956 152.507 124.784 144.787 131.912 141.783C138.544 138.991 137.6 130.495 150.288 124.783C157.344 121.607 168.44 121.927 172.34 122.487C181.164 123.751 183.26 143.323 185.204 148.215C188.064 155.415 191.6 164.319 187.04 171.187C182.176 178.511 171.408 178.531 166.824 178.539C162.604 178.547 153.372 178.563 151.204 173.943C147.276 165.583 172.36 146.007 167.744 146.379C163.916 146.687 154.584 150.383 149.52 161.235C146.716 167.243 143.832 168.195 141.096 172.107C138.292 176.111 130.64 178.827 109.856 173.943H109.86Z" fill="#497A89"/>
<path d="M154.884 88.4911C148.752 89.0431 144.28 96.0831 143.856 102.275C143.348 109.699 148.488 118.595 155.8 118.815C162.524 119.015 168.164 111.795 168.664 105.031C169.28 96.7151 162.22 87.8351 154.88 88.4911H154.884Z" fill="#497A89"/>
<path d="M188.688 101.475C187.804 101.843 182.208 104.275 180.568 110.139C180.3 111.091 178.752 116.623 182.192 119.883C185.184 122.723 189.668 121.667 190.312 121.507C194.484 120.459 198.944 116.303 198.432 110.679C197.98 105.687 193.804 101.703 188.688 101.475Z" fill="#497A89"/>
<path d="M126.284 105.147C120.728 105.987 116.648 112.051 117.62 117.599C118.232 121.071 120.928 124.943 125.2 125.719C130.352 126.659 134.012 122.403 134.404 121.931C137.364 118.371 138.284 112.363 134.944 108.395C132.824 105.879 129.404 104.675 126.28 105.147H126.284Z" fill="#497A89"/>
<path d="M197.724 129.819C193.5 130.455 190.4 135.067 191.14 139.283C191.604 141.923 193.656 144.863 196.9 145.455C200.816 146.167 203.596 142.935 203.896 142.575C206.144 139.871 206.844 135.303 204.308 132.287C202.696 130.375 200.096 129.459 197.724 129.819Z" fill="#497A89"/>
<path d="M104.724 129.563C101.78 132.891 104.9 140.487 110.472 143.667C113.276 145.267 117.868 146.419 119.668 144.711C121.788 142.699 119 137.703 117.368 134.787C115.548 131.527 113.748 128.307 110.28 127.823C108.4 127.563 106.02 128.099 104.724 129.563Z" fill="#497A89"/>
<path d="M10.2316 145.559C8.69157 149.759 6.70757 155.983 5.34357 163.715C3.29157 175.359 1.40757 186.039 5.34357 197.931C11.8596 217.623 29.3196 225.491 34.6716 227.259C39.2076 228.759 41.6356 228.059 43.0516 227.259C46.1156 225.523 47.6036 221.491 47.2396 218.183C46.6516 212.839 41.1876 208.903 40.9556 209.107C40.6596 209.367 46.0236 219.015 54.9236 221.675C55.5116 221.851 62.9876 223.991 66.0956 220.279C68.1196 217.863 67.2956 214.151 66.7956 211.899C64.9836 203.755 58.9196 198.827 59.1156 198.631C59.1756 198.571 69.7796 215.743 75.8756 213.995C79.8396 212.859 81.3236 203.915 80.0636 197.235C77.6636 184.503 64.2116 174.259 55.6236 176.287C53.1236 176.875 49.9996 178.775 43.7516 182.571C39.4956 185.159 38.1876 186.315 36.0716 186.063C32.2236 185.607 28.5116 180.823 28.3916 176.287C28.2556 171.211 32.6356 167.495 39.5636 161.623C41.7676 159.755 44.4796 157.479 48.6396 155.339C53.1716 153.003 57.7956 150.623 63.3036 151.151C69.4956 151.743 69.9156 155.347 75.8716 156.039C83.5996 156.935 87.2356 151.375 90.5356 152.547C94.1236 153.819 96.5836 162.783 91.2356 197.239" stroke="#8C4A60" stroke-width="6.092" stroke-miterlimit="10" stroke-linecap="round"/>
<path d="M121.56 150.463C117.276 151.831 116.3 164.343 117.836 173.739C119.22 182.203 122.184 185.371 120.164 188.171C117.14 192.359 109.1 187.219 101.076 192.359C97.3116 194.771 93.2556 199.635 94.0916 204.463C94.5876 207.323 96.7876 210.127 99.6796 211.447C108.464 215.459 117.8 203.099 124.352 206.791C126.552 208.031 125.668 209.523 130.868 221.687C134.828 230.951 136.392 232.547 138.316 233.327C142.06 234.839 147.94 233.563 149.956 230.067C154.432 222.307 137.764 207.251 141.576 202.599C143.872 199.799 150.388 204.683 155.544 201.203C161.128 197.431 162.272 185.771 157.872 182.115C152.492 177.647 141.656 187.507 136.456 183.047C132.12 179.323 138.044 171.059 133.196 160.703C130.5 154.943 124.88 149.399 121.556 150.463H121.56Z" fill="#E27B14"/>
</svg>
