<svg width="138" height="122" viewBox="0 0 138 122" fill="none" xmlns="http://www.w3.org/2000/svg">
<g clip-path="url(#clip0_1882_18567)">
<path d="M18.3023 43.5007C9.26885 58.16 -1.27571 61.3312 0.128026 69.1544C1.54415 77.0599 12.8566 76.846 16.7912 88.0173C19.5739 95.9228 15.115 99.4559 17.5468 106.127C21.1593 116.028 35.7748 121.375 47.0831 121.971C67.747 123.061 69.9558 93.7387 103.129 97.0744C123.579 99.131 134.59 90.2672 137.211 82.7401C140.799 72.4408 132.216 48.2884 111.461 40.4858C100.4 36.3315 88.1962 42.8508 83.44 35.9572C77.1851 26.9042 85.6405 17.8635 80.4096 9.55081C73.0688 -2.11818 44.0733 -3.91974 31.1796 8.7981C22.0677 17.7853 29.0244 26.1144 18.3065 43.5048L18.3023 43.5007Z" fill="#FFDCC1"/>
<path d="M52.376 71.7869C43.1237 66.9252 39.8373 57.8639 36.4724 48.5847C34.6517 43.5625 33.0292 38.9352 33.6319 32.7408C34.598 22.8076 40.5433 16.3335 42.1535 14.6306C53.2636 2.87939 69.0557 4.28608 70.5544 4.4465C72.7921 4.68506 88.1136 6.30564 93.8441 17.4605C97.019 23.6425 94.8267 31.5809 90.438 47.4535C86.8295 60.5046 84.9262 67.1062 80.2154 70.6558C72.2884 76.624 60.4805 76.044 52.3842 71.7869H52.376Z" fill="#497A89"/>
<path d="M64.8695 46.2156C62.7061 46.2156 60.8895 44.5374 60.7532 42.3574L59.6179 24.2472C59.4775 21.9809 61.2033 20.0272 63.4823 19.8873C65.753 19.7433 67.7183 21.4668 67.8586 23.7372L68.994 41.8474C69.1344 44.1137 67.4086 46.0675 65.1296 46.2073C65.0429 46.2114 64.9562 46.2156 64.8695 46.2156Z" fill="#E27B14"/>
<path d="M65.8355 58.263C64.6464 58.263 63.4615 57.7283 62.5284 56.7576C61.4798 55.6635 60.9472 54.2116 61.1454 52.9735C61.2486 52.3195 61.55 51.7067 62.0371 51.1555L62.1734 51.0033L62.3468 50.8964C64.0189 49.864 65.9222 49.5103 67.5695 49.938C68.6677 50.2218 69.5224 50.8265 69.9807 51.6409C70.5834 52.7103 70.5091 54.2404 69.7949 55.6265C69.0352 57.1031 67.7223 58.0779 66.2773 58.2425C66.1286 58.2589 65.98 58.2671 65.8314 58.2671L65.8355 58.263ZM64.0148 53.1381C63.9528 53.2327 63.9115 53.3231 63.8992 53.4054C63.8496 53.7221 64.056 54.3309 64.5432 54.8327C64.7538 55.0507 65.3112 55.5484 65.9635 55.4743C66.5663 55.4044 67.0534 54.8491 67.3094 54.3514C67.648 53.6974 67.6273 53.1422 67.5406 52.99C67.4911 52.8995 67.2681 52.7267 66.8677 52.6239C66.0254 52.4059 64.9726 52.5992 64.0106 53.1381H64.0148Z" fill="#E27B14"/>
<path d="M80.8762 108.439C78.4692 107.81 76.0539 106.802 73.7336 105.288C66.6282 100.657 61.9959 92.1137 61.3395 82.4355C60.6706 72.5393 64.2171 63.2312 70.8271 57.5304C76.5535 52.5905 84.8934 50.0609 93.1383 50.7643C100.26 51.373 106.3 54.2851 110.148 58.9618C113.253 62.7418 114.925 67.7557 114.987 73.4647C115.012 75.7352 113.183 77.5984 110.904 77.619C108.625 77.6437 106.755 75.8216 106.734 73.547C106.693 69.6724 105.694 66.5176 103.765 64.169C101.379 61.2651 97.2504 59.3649 92.4405 58.9536C86.4623 58.4435 80.2569 60.278 76.2397 63.7413C71.5785 67.7598 69.0931 74.5424 69.5885 81.8761C70.0674 88.996 73.3125 95.1698 78.2628 98.3945C87.7628 104.581 100.632 98.1806 100.76 98.1148C102.791 97.0824 105.277 97.8845 106.313 99.9081C107.349 101.932 106.548 104.404 104.521 105.44C103.943 105.736 92.4736 111.458 80.8886 108.431L80.8762 108.439Z" fill="#8C4A60"/>
<path d="M112.394 85.9027L86.7266 72.1196C84.7201 71.0419 83.9687 68.5453 85.0504 66.5463C86.1321 64.5473 88.6382 63.8028 90.6447 64.8763L110.252 75.4019L122.08 60.6727C123.505 58.8999 126.102 58.6079 127.885 60.0311C129.665 61.4501 129.954 64.0373 128.529 65.8141L112.399 85.9027H112.394Z" fill="#8C4A60"/>
</g>
<defs>
<clipPath id="clip0_1882_18567">
<rect width="138" height="122" fill="white"/>
</clipPath>
</defs>
</svg>
