<svg width="98" height="96" viewBox="0 0 98 96" fill="none" xmlns="http://www.w3.org/2000/svg">
<g clip-path="url(#clip0_1479_5444)">
<path d="M75.0275 81.7338C76.7335 78.8992 79.1928 76.4244 82.1492 74.5696C83.0142 74.0272 84.0544 73.5159 85.0793 73.7512C86.2707 74.0233 86.9233 75.2462 86.8291 76.3369C86.7349 77.4256 86.0867 78.4074 85.4538 79.3425C87.9306 78.2266 90.9331 77.8766 93.5128 78.7884C96.0926 79.7002 98.0942 82.0079 97.9978 84.4731C97.8927 87.156 95.4903 89.3588 92.8602 90.6827C89.3234 92.4616 85.0158 93.144 81.098 92.1817C77.1802 91.2212 73.7639 88.515 72.6273 85.0505L75.0297 81.7377L75.0275 81.7338Z" fill="#F9D3E3"/>
<path d="M67.2663 90.6109L66.4254 95.4615H43.7135C43.7135 95.4615 42.0316 92.104 49.6022 90.9841L38.2452 90.6109L32.3586 95.4615H18.8992C18.8992 95.4615 19.7402 91.7307 25.2084 90.9841L21.0607 59.6853C16.7772 60.0955 12.4476 60.1616 8.14878 59.8797C6.74065 59.7884 5.2909 59.6425 4.06235 59.0263C0.930725 57.4515 0.532155 53.5749 1.1541 50.4254C2.60165 43.1076 7.41515 38.6788 13.3061 36.9058C8.10936 29.5511 3.96599 20.1044 3.32214 11.698C3.136 9.26194 3.28054 6.72483 4.47187 4.52406C5.66538 2.32134 8.09622 0.51912 10.8468 0.466628C13.1966 0.419968 15.4041 1.63895 16.8779 3.26231C18.3495 4.88567 19.2014 6.87842 19.9263 8.8634C21.1373 12.1782 25.4866 28.1007 23.9799 36.4217C29.3606 37.4171 34.5727 40.2186 38.243 44.6843C38.243 44.6843 69.787 37.592 79.4621 66.3401C79.4621 66.3401 84.5099 83.5167 67.2641 90.6109H67.2663Z" fill="#FDF8EA"/>
<path d="M66.7385 90.4805C66.4582 92.098 66.1779 93.7156 65.8976 95.3312L66.4254 94.9734H43.7135L44.1865 95.2145C44.296 95.4381 44.1274 94.9871 44.112 94.8821C44.0639 94.5224 44.1449 94.1588 44.3201 93.8342C45.207 92.1778 47.9554 91.7287 49.7468 91.4487C50.3753 91.3496 50.1935 90.5136 49.6022 90.4941C47.2765 90.4183 44.9508 90.3405 42.6251 90.2647C41.3702 90.2239 40.1154 90.1831 38.8606 90.1403C38.2233 90.1189 37.9671 90.1753 37.494 90.5641C36.4779 91.402 35.4618 92.238 34.4478 93.076C33.9507 93.4862 33.4536 93.8964 32.9565 94.3047C32.8382 94.4019 32.0214 94.9171 32.0257 95.0726C32.0214 94.9035 32.6389 95.022 32.0104 94.9696C31.6009 94.9365 31.1739 94.9696 30.7643 94.9696H18.9058C19.081 95.1737 19.2584 95.3798 19.4336 95.5839C20.0051 93.1576 22.8477 91.8239 25.3596 91.4448C25.572 91.4137 25.7866 91.1707 25.7625 90.9763C24.5537 81.8505 23.3448 72.7227 22.136 63.5969C21.963 62.2904 21.7899 60.9839 21.6169 59.6755C21.5863 59.4364 21.3914 59.1603 21.0695 59.1895C17.2086 59.5492 13.3236 59.6483 9.44742 59.4578C7.7086 59.3722 5.75736 59.3606 4.2244 58.5304C2.99584 57.8655 2.23812 56.7593 1.84831 55.552C1.05555 53.0965 1.55705 50.4058 2.36514 48.0068C3.17761 45.598 4.51128 43.3155 6.4253 41.4511C8.34807 39.575 10.7701 38.1966 13.4638 37.3664C13.7857 37.2673 13.9894 36.9348 13.7901 36.6529C10.1197 31.429 7.2312 25.7307 5.44858 19.7739C4.57917 16.8674 3.95066 13.8695 3.82802 10.858C3.70319 7.82125 4.25725 4.48899 6.97716 2.38347C9.77591 0.215752 13.4616 0.752336 15.9428 3.0406C17.9094 4.85448 18.897 7.38382 19.6723 9.75957C20.8483 13.364 21.7111 17.0657 22.4294 20.7615C23.4061 25.7852 24.35 31.1977 23.4631 36.2874C23.4193 36.5343 23.531 36.824 23.8463 36.8862C29.4526 37.9614 34.3734 40.8387 37.7831 44.9253C37.932 45.1041 38.1466 45.2052 38.4007 45.1489C40.6914 44.6356 43.1156 44.4645 45.4676 44.4062C50.7739 44.274 56.1743 45.0069 61.0513 46.92C67.7503 49.5485 72.8835 54.298 76.1378 60.078C78.4022 64.1004 79.7052 68.012 79.6088 72.4894C79.541 75.6583 78.8227 78.8545 77.2109 81.6988C75.0275 85.5482 71.3571 88.3633 67.0013 90.185C66.3641 90.4514 66.9203 91.2893 67.5532 91.0249C71.4885 89.3801 74.9377 86.9208 77.2503 83.6235C79.0898 81.0009 80.1213 78.003 80.5199 74.9448C81.0608 70.8077 80.4564 66.8844 78.7832 63.0253C75.9692 56.5318 71.1863 50.7519 64.2902 47.2796C59.1854 44.7095 53.3208 43.5274 47.4824 43.4244C44.3836 43.37 41.1315 43.5333 38.1094 44.2079L38.727 44.4315C35.1464 40.1427 30.0329 37.0768 24.1354 35.9472L24.5186 36.546C25.3639 31.6876 24.5975 26.6095 23.728 21.7958C22.9747 17.6295 22.0308 13.4437 20.6906 9.39018C19.8803 6.93667 18.8248 4.3665 16.8341 2.46318C14.712 0.447105 11.495 -0.65717 8.50136 0.419887C1.5461 2.92006 2.34762 11.066 3.45135 16.3677C4.98212 23.7224 8.38968 30.8224 12.8375 37.1506C12.9469 36.9135 13.0564 36.6743 13.1638 36.4371C7.60568 38.1499 3.52362 42.013 1.60523 46.9219C-0.225565 51.6054 -0.803711 59.1992 6.41654 60.1985C11.1884 60.8576 16.28 60.6165 21.0607 60.1713L20.5132 59.6852C21.7221 68.8111 22.9309 77.9388 24.1398 87.0647C24.3128 88.3711 24.4858 89.6776 24.6588 90.986C24.7924 90.8305 24.9259 90.673 25.0617 90.5175C22.1907 90.9491 19.0153 92.5919 18.3714 95.3351C18.2992 95.6403 18.5269 95.9494 18.8992 95.9494H29.7898C30.5848 95.9494 31.5133 96.068 32.3017 95.9494C32.9346 95.8541 33.4602 95.2184 33.9135 94.8451C35.0084 93.943 36.1034 93.039 37.1984 92.1369C37.586 91.8181 38.024 91.5129 38.3788 91.1649C38.3985 91.1454 38.6153 90.9899 38.6087 90.9743C38.7817 91.3748 38.0525 90.9549 38.3766 91.1026C38.6131 91.2096 39.2131 91.1299 39.4803 91.1396L41.5827 91.2096C44.2544 91.2971 46.9261 91.3845 49.6 91.474C49.5519 91.1551 49.5037 90.8382 49.4555 90.5194C46.9108 90.916 41.6549 92.4558 43.2404 95.7122C43.3149 95.8639 43.5383 95.9533 43.7135 95.9533H66.4254C66.6422 95.9533 66.9181 95.8036 66.9532 95.5956C67.2335 93.978 67.5138 92.3605 67.7941 90.7449C67.8992 90.1325 66.8459 89.8701 66.7385 90.4864V90.4805Z" fill="#231F20"/>
<path d="M16.2538 33.8457C15.945 33.7757 15.6384 33.6241 15.3646 33.3772C14.8369 32.9028 14.5938 32.2418 14.3682 31.6061C11.9615 24.8482 8.52764 17.9348 8.52764 10.7804C8.63495 9.80442 8.88898 8.79541 9.71678 8.09746C10.1745 7.71252 10.7855 7.47728 11.4118 7.53172C12.6338 7.6367 13.2229 8.67876 13.6346 9.61779C15.2639 13.3253 16.2757 17.2213 16.9545 21.1485C17.5568 24.6441 18.6824 28.9873 18.2488 32.514C18.1262 33.5133 17.1801 34.0518 16.2538 33.8418V33.8457Z" fill="#F9D3E3"/>
<path d="M16.9743 39.6859C16.3041 39.6159 15.6165 39.6373 14.9223 39.7559C12.2199 40.2166 9.07513 41.7953 8.43128 44.3577C8.05899 45.8391 8.60867 47.3905 9.41238 48.732C10.1394 49.9451 11.1424 51.1038 12.5615 51.6579C13.2908 51.9418 14.0945 52.0506 14.8894 52.0584C18.1065 52.0895 21.3257 50.3029 22.4469 47.6258C23.4324 45.2695 22.6659 42.8082 20.5745 41.1459C19.5387 40.3216 18.297 39.8239 16.9743 39.6859Z" fill="#231F20"/>
<path d="M13.4375 47.4685C14.2769 47.4685 14.9573 46.7443 14.9573 45.8509C14.9573 44.9576 14.2769 44.2334 13.4375 44.2334C12.5981 44.2334 11.9177 44.9576 11.9177 45.8509C11.9177 46.7443 12.5981 47.4685 13.4375 47.4685Z" fill="#FDF8EA"/>
<path d="M13.4375 47.5677C12.5396 47.5677 11.8082 46.7978 11.8082 45.8529C11.8082 44.9081 12.5396 44.1382 13.4375 44.1382C14.3354 44.1382 15.0668 44.9081 15.0668 45.8529C15.0668 46.7978 14.3354 47.5677 13.4375 47.5677ZM13.4375 44.3307C12.6601 44.3307 12.0272 45.013 12.0272 45.851C12.0272 46.6889 12.6601 47.3713 13.4375 47.3713C14.2149 47.3713 14.8478 46.6889 14.8478 45.851C14.8478 45.013 14.2149 44.3307 13.4375 44.3307Z" fill="#231F20"/>
<path d="M4.22659 55.4585C4.32514 55.3885 4.41712 55.3107 4.49595 55.2194C5.00621 54.6381 4.55727 53.7379 3.90248 53.4035C3.08563 52.9855 2.01694 53.1839 1.23294 53.6485C0.678882 53.9771 0.203664 54.4534 0.0481779 55.0288C-0.109498 55.6043 0.111686 56.2789 0.672312 56.5997C1.60523 57.1305 2.35638 56.2148 3.16447 55.9329C3.53457 55.8046 3.92 55.6724 4.22659 55.4566V55.4585Z" fill="#231F20"/>
<path d="M49.9877 90.6398C45.1479 86.0827 41.633 79.284 42.3163 72.9655C42.6557 69.8257 44.1252 66.9367 46.2516 64.4346C46.6765 63.935 45.726 63.4509 45.3056 63.9447C41.6637 68.2296 40.3694 73.4477 41.6549 78.6911C42.601 82.5541 44.723 86.1857 47.3794 89.3372C47.9554 90.0215 48.5511 90.7059 49.2124 91.328C49.6964 91.7849 50.4695 91.0967 49.9877 90.6398Z" fill="#231F20"/>
<path d="M28.0116 56.4757C28.2481 57.0978 28.4846 57.718 28.7211 58.3401C28.9467 58.9292 30.0044 58.6765 29.7767 58.0816C29.5402 57.4595 29.3036 56.8393 29.0671 56.2171C28.8416 55.6281 27.7838 55.8808 28.0116 56.4757Z" fill="#231F20"/>
<path d="M30.1928 55.583L31.1213 57.1014C31.4585 57.6516 32.4024 57.1616 32.0674 56.6114L31.1388 55.0931C30.8016 54.5429 29.8577 55.0328 30.1928 55.583Z" fill="#231F20"/>
<path d="M32.617 79.115C32.4177 79.6496 32.2163 80.1862 32.017 80.7208C31.7958 81.3157 32.8513 81.5704 33.0725 80.9794L33.6726 79.3735C33.8938 78.7786 32.8382 78.5239 32.617 79.115Z" fill="#231F20"/>
<path d="M35.4596 79.2513L34.8836 80.9894C34.6843 81.5901 35.7399 81.8468 35.9392 81.248C36.1385 80.6492 36.3246 80.0893 36.5151 79.5099C36.7144 78.9092 35.6589 78.6525 35.4596 79.2513Z" fill="#231F20"/>
<path d="M60.6899 54.8073C61.3907 55.3477 62.0915 55.8882 62.7901 56.4267C63.32 56.835 64.0975 56.1507 63.5653 55.7385C62.8645 55.198 62.1638 54.6576 61.4652 54.119C60.9352 53.7108 60.1578 54.3951 60.6899 54.8073Z" fill="#231F20"/>
<path d="M59.6541 56.53C60.195 56.8974 60.6724 57.3388 61.0885 57.817C61.2703 58.025 61.671 57.9862 61.8637 57.817C62.0937 57.6129 62.0455 57.3368 61.8637 57.1288C61.3841 56.5805 60.8279 56.112 60.2059 55.6901C59.9716 55.5307 59.5928 55.6571 59.457 55.8651C59.2927 56.1159 59.4176 56.3706 59.6541 56.53Z" fill="#231F20"/>
<path d="M63.6069 81.7298C63.3638 82.3481 63.1186 82.9683 62.8755 83.5865C62.6324 84.2047 63.6989 84.4322 63.931 83.8451C64.1741 83.2268 64.4194 82.6067 64.6625 81.9884C64.8968 81.3974 63.8391 81.1427 63.6069 81.7298Z" fill="#231F20"/>
<path d="M66.4276 81.8601C66.2611 82.5697 66.0925 83.2774 65.9261 83.987C65.7815 84.5975 66.8371 84.858 66.9816 84.2456C67.1481 83.536 67.3167 82.8283 67.4831 82.1187C67.6277 81.5082 66.5721 81.2477 66.4276 81.8601Z" fill="#231F20"/>
<path d="M4.91642 35.4845C5.84277 36.6141 6.71437 37.7747 7.52903 38.9704C7.89475 39.505 8.8408 39.0171 8.47508 38.4805C7.65823 37.2868 6.78664 36.1242 5.86248 34.9946C5.45077 34.493 4.50033 34.9791 4.91642 35.4845Z" fill="#231F20"/>
<path d="M2.66735 38.3228C3.75137 39.2968 4.83321 40.2708 5.91723 41.2448C6.41216 41.69 7.1874 41.0037 6.69247 40.5566C5.60845 39.5826 4.52661 38.6086 3.44259 37.6345C2.94766 37.1893 2.17242 37.8756 2.66735 38.3228Z" fill="#231F20"/>
<path d="M71.0002 60.8656C74.6705 62.1216 75.967 67.1647 75.3845 70.6427C75.3166 71.0452 75.2355 71.4496 75.0472 71.8228C74.8282 72.2603 74.4756 72.6316 74.1033 72.9777C72.5879 74.3852 70.6629 74.9957 68.5343 74.2491C64.2333 72.7366 62.7967 69.1574 63.5938 65.3411C64.2573 62.1624 67.0364 59.5106 71.0002 60.8656Z" fill="#231F20"/>
<path d="M57.3612 71.5832C59.4482 72.2967 60.1862 75.1663 59.8556 77.1454C59.8183 77.3749 59.7701 77.6043 59.665 77.8162C59.5402 78.065 59.3387 78.2769 59.1285 78.4733C58.2678 79.2743 57.1707 79.6223 55.9596 79.1965C53.5135 78.3372 52.6944 76.2997 53.1499 74.1301C53.5266 72.322 55.1099 70.8134 57.3634 71.5852L57.3612 71.5832Z" fill="#231F20"/>
</g>
<defs>
<clipPath id="clip0_1479_5444">
<rect width="98" height="96" fill="white"/>
</clipPath>
</defs>
</svg>
