<svg width="138" height="115" viewBox="0 0 138 115" fill="none" xmlns="http://www.w3.org/2000/svg">
<g clip-path="url(#clip0_1848_2836)">
<path d="M39.7324 9.49117C34.002 14.5048 31.7078 20.0799 27.7062 29.8023C24.1961 38.33 17.1758 55.3893 21.8262 75.7703C23.4171 82.744 26.1969 94.9295 36.7914 104.098C57.5901 122.1 88.0082 110.746 89.974 109.978C95.1198 107.968 108.047 102.702 115.897 89.1329C124.205 74.7738 121.622 60.1174 119.906 50.3814C117.987 39.4897 114.875 21.8379 99.5954 10.2934C82.2272 -2.82835 54.855 -3.73745 39.7305 9.49117H39.7324Z" fill="#E1E2C7"/>
<path d="M68.9403 66.5648C67.4717 66.5648 66.0459 66.4308 64.7114 66.1782C60.5894 65.3973 56.613 63.3732 53.5127 60.4788C50.1385 57.3281 47.9571 53.3498 47.2053 48.9713C45.9213 41.4945 48.7671 33.8604 54.4529 29.5188C62.2658 23.5533 72.5864 25.4764 78.8686 29.7869C87.136 35.461 92.2176 47.9282 86.6057 57.4427C82.773 63.9385 75.4478 66.5648 68.9403 66.5648ZM65.9099 29.6276C62.7689 29.6276 59.5812 30.492 56.8092 32.6074C51.2808 36.8285 50.2434 43.707 51.034 48.3147C52.217 55.2029 58.1379 60.98 65.434 62.3612C71.3956 63.4917 79.5135 61.8153 83.2587 55.4691C87.7032 47.9359 83.3539 37.5764 76.6696 32.9901C73.785 31.0107 69.8844 29.6276 65.9099 29.6276Z" fill="#E27B14"/>
<path d="M34.1438 99.0923C33.9282 99.0923 33.7067 99.0554 33.4911 98.9796C32.481 98.6203 31.9526 97.5072 32.3139 96.4971C34.1205 91.4309 39.8296 78.9288 53.8197 72.2795C55.4087 71.5239 59.1305 69.7562 64.1228 68.7694C70.3817 67.5339 76.4987 67.9205 82.3069 69.9174C88.8163 72.1572 94.37 76.2035 98.8106 81.9436C101.932 85.9783 103.603 89.704 104.322 91.565C104.708 92.5654 104.209 93.6901 103.208 94.0767C102.206 94.4632 101.083 93.964 100.697 92.9636C99.7605 90.5354 94.4108 78.1926 81.0423 73.5908C72.9847 70.8188 64.387 71.5569 55.4864 75.7878C42.8075 81.8135 37.6151 93.1889 35.9717 97.8005C35.6881 98.595 34.9402 99.0923 34.1418 99.0923H34.1438Z" fill="#E27B14"/>
<path d="M4.00929 72.2057C0.0368137 75.6323 -0.00397904 81.1239 -9.39796e-05 81.8271C0.00767614 82.8042 0.0426414 87.6955 3.74122 90.9142C6.3073 93.1462 9.29685 93.4065 11.758 93.5871C16.5289 93.9349 19.0658 92.6916 25.3888 90.9142C37.6112 87.4779 40.1151 88.7561 42.4927 85.5684C44.7985 82.4778 45.0413 77.7905 43.295 74.3444C41.1932 70.1952 36.7545 68.9267 34.2079 68.1983C29.9518 66.9803 28.6095 68.0642 15.7674 69.5347C8.06335 70.4167 6.2296 70.2904 4.00734 72.2077L4.00929 72.2057Z" fill="#8C4A60"/>
<path d="M20.0448 74.0766C16.8571 71.1142 10.4235 72.0583 6.95024 75.6792C4.95138 77.7615 3.1662 81.5301 4.54539 85.0324C6.33252 89.5741 12.5836 91.5088 16.8397 89.576C22.5449 86.9827 23.9882 77.7382 20.0468 74.0746L20.0448 74.0766Z" fill="#E1E2C7"/>
<path d="M91.4192 18.4502C91.6057 18.4502 91.796 18.4832 91.9806 18.5531C98.0393 20.8434 104.388 22.174 110.85 22.5101C117.099 22.8345 123.347 22.2206 129.417 20.6841C130.268 20.4685 131.13 20.9833 131.346 21.8341C131.562 22.6849 131.047 23.5474 130.196 23.763C123.817 25.3773 117.253 26.0222 110.687 25.6822C103.896 25.3306 97.2235 23.932 90.8578 21.5252C90.038 21.2144 89.6243 20.2995 89.9332 19.4778C90.174 18.8426 90.7782 18.4502 91.4192 18.4502Z" fill="#497A89"/>
<path d="M136.049 27.1875C136.771 27.1875 137.424 27.6828 137.593 28.4171C137.791 29.2718 137.261 30.1246 136.406 30.3227C128.075 32.2594 119.537 33.1142 111.033 32.8597C104.974 32.679 98.8921 31.9331 92.9538 30.6394C92.0972 30.4529 91.5533 29.6059 91.7398 28.7493C91.9262 27.8926 92.7732 27.3487 93.6298 27.5352C99.3778 28.7862 105.266 29.5088 111.128 29.6836C119.359 29.9284 127.624 29.1028 135.689 27.2283C135.81 27.1992 135.932 27.1875 136.051 27.1875H136.049Z" fill="#497A89"/>
<path d="M107.713 36.6479C115.248 36.6479 122.787 37.5143 130.165 39.2296C131.02 39.4277 131.55 40.2824 131.352 41.1352C131.154 41.988 130.299 42.5202 129.446 42.3221C121.381 40.4475 113.117 39.622 104.885 39.8667C99.0222 40.0415 93.1344 40.7642 87.3864 42.0152C86.5298 42.2016 85.6828 41.6577 85.4963 40.8011C85.3099 39.9444 85.8538 39.0975 86.7104 38.911C92.6487 37.6173 98.7308 36.8713 104.79 36.6907C105.763 36.6615 106.738 36.6479 107.711 36.6479H107.713Z" fill="#497A89"/>
<path d="M98.7853 82.2038C94.4321 84.4999 92.8859 88.7793 91.3027 93.1616C90.446 95.5335 89.6826 97.7188 89.9662 100.644C90.4208 105.335 93.218 108.393 93.9756 109.197C99.203 114.747 106.633 114.083 107.338 114.007C108.391 113.894 115.6 113.129 118.296 107.861C119.79 104.941 118.758 101.192 116.694 93.6958C114.996 87.5322 114.1 84.4144 111.884 82.738C108.154 79.9194 102.599 80.1933 98.7892 82.2038H98.7853Z" fill="#497A89"/>
<path d="M104.663 100.448C103.645 100.448 102.791 99.6553 102.727 98.6258L102.192 90.0728C102.126 89.0025 102.938 88.0798 104.011 88.0137C105.079 87.9457 106.004 88.7597 106.07 89.8319L106.604 98.3849C106.67 99.4552 105.858 100.378 104.786 100.444C104.745 100.446 104.704 100.448 104.663 100.448Z" fill="#E27B14"/>
<path d="M105.118 106.138C104.559 106.138 104.001 105.885 103.562 105.427C103.069 104.91 102.818 104.224 102.911 103.64C102.96 103.331 103.102 103.041 103.331 102.781L103.395 102.709L103.477 102.659C104.263 102.171 105.159 102.004 105.934 102.206C106.451 102.34 106.853 102.626 107.068 103.01C107.352 103.515 107.317 104.238 106.981 104.893C106.623 105.59 106.006 106.05 105.326 106.128C105.256 106.136 105.186 106.14 105.116 106.14L105.118 106.138ZM104.261 103.717C104.232 103.762 104.213 103.805 104.207 103.844C104.184 103.993 104.281 104.281 104.51 104.518C104.609 104.621 104.871 104.856 105.178 104.821C105.462 104.788 105.691 104.525 105.812 104.29C105.971 103.981 105.961 103.719 105.92 103.647C105.897 103.605 105.792 103.523 105.604 103.474C105.207 103.372 104.712 103.463 104.259 103.717H104.261Z" fill="#E27B14"/>
</g>
<defs>
<clipPath id="clip0_1848_2836">
<rect width="137.636" height="114.213" fill="white"/>
</clipPath>
</defs>
</svg>
