<svg width="138" height="128" viewBox="0 0 138 128" fill="none" xmlns="http://www.w3.org/2000/svg">
<g clip-path="url(#clip0_1848_9577)">
<path d="M90.9817 8.09513C79.7348 -1.47202 64.137 -0.207193 56.1812 0.440399C33.4067 2.28705 4.90764 16.3949 0.495923 37.3304C-1.97808 49.073 5.64124 51.031 5.36804 71.4377C5.10495 91.1412 -2.08179 95.778 1.88723 106.241C6.53168 118.482 21.5806 125.861 33.9051 127.123C49.7888 128.75 52.8244 119.359 77.061 113.202C104.642 106.195 113.589 115.079 125.089 105.545C137.302 95.4188 141.178 73.813 134.138 60.3022C128.433 49.3563 120.037 52.311 108.383 38.0285C97.1667 24.2849 100.733 16.3924 90.9817 8.09766V8.09513Z" fill="#E1E2C7"/>
<path d="M121.016 82.1384C120.652 82.1384 120.28 82.0726 119.919 81.936C108.072 77.456 95.6566 74.853 83.0159 74.1978C70.7977 73.5654 58.5794 74.7644 46.7103 77.7697C45.0483 78.1921 43.3585 77.1828 42.9386 75.5208C42.5187 73.8588 43.5255 72.169 45.1874 71.7491C57.6612 68.5946 70.4992 67.3323 83.3397 67.9976C96.6204 68.6857 109.666 71.4202 122.117 76.1279C123.721 76.735 124.53 78.526 123.923 80.1298C123.452 81.3719 122.271 82.1384 121.019 82.1384H121.016Z" fill="#497A89"/>
<path d="M33.7407 65.0505C32.3292 65.0505 31.0517 64.0816 30.7178 62.6473C30.3282 60.9778 31.3679 59.3082 33.04 58.9186C49.3335 55.1317 66.0292 53.4596 82.6592 53.958C94.5056 54.3096 106.403 55.7717 118.014 58.2989C119.688 58.6631 120.753 60.3175 120.386 61.9947C120.022 63.6693 118.368 64.7343 116.691 64.3675C105.451 61.9213 93.9389 60.5072 82.472 60.1657C66.3758 59.6851 50.2163 61.3016 34.4439 64.9696C34.2087 65.0252 33.9709 65.0505 33.7382 65.0505H33.7407Z" fill="#497A89"/>
<path d="M89.1528 46.5511C74.4176 46.5511 59.6748 44.8588 45.2456 41.5045C43.576 41.1174 42.5363 39.4479 42.9234 37.7758C43.3104 36.1037 44.98 35.0665 46.6521 35.4535C62.4245 39.119 78.5814 40.7355 94.6801 40.2574C106.147 39.9159 117.66 38.5018 128.899 36.0556C130.576 35.6913 132.228 36.7538 132.595 38.4284C132.961 40.1031 131.896 41.7574 130.222 42.1242C118.608 44.6539 106.714 46.1135 94.8673 46.4651C92.965 46.5208 91.0577 46.5511 89.1528 46.5511Z" fill="#497A89"/>
<g clip-path="url(#clip1_1848_9577)">
<path d="M100.538 13.9231C98.8936 8.65683 93.9542 6.65397 93.0544 6.28839C88.6173 4.48658 84.539 5.65774 82.1055 6.39579C70.725 9.84398 64.063 21.4697 65.491 23.1633C66.1749 23.975 68.4293 22.1596 71.1951 23.4601C73.0249 24.3213 73.3765 25.7471 74.646 27.2159C78.0766 31.1889 84.3946 31.0806 85.6668 31.0576C87.1499 31.0331 94.4878 30.7047 98.5524 24.6996C99.1496 23.8165 102.216 19.2869 100.539 13.9204L100.538 13.9231Z" fill="#FFDCC1"/>
<path d="M100.577 13.9126C99.3588 10.0161 95.9451 7.12363 92.127 5.86957C89.2253 4.88252 86.047 5.10227 83.1302 5.91647C78.1963 7.15125 73.7538 9.97512 70.2535 13.6235C68.1787 15.8421 66.2367 18.3044 65.2235 21.2132C65.0399 21.8804 64.8008 22.6595 65.2154 23.3136C65.806 24.1098 67.2685 23.4225 68.0508 23.3779C68.5312 23.3084 69.0073 23.2868 69.4759 23.334C70.4066 23.4258 71.3201 23.8086 72.0186 24.4091C72.726 25.0087 73.1895 25.8873 73.7907 26.729C75.57 29.3408 78.7095 30.7145 81.7276 31.2014C86.7558 32.0124 92.3058 31.0401 96.2369 27.6581C100.022 24.3401 102.117 18.8102 100.578 13.9115L100.577 13.9126ZM100.501 13.9354C101.979 18.7667 99.7107 24.1479 95.8848 27.2386C91.9834 30.2976 86.6847 31.1735 81.862 30.3858C79.0046 29.9228 76.1088 28.7185 74.3982 26.2923C73.799 25.4755 73.2907 24.5428 72.4807 23.8698C71.6444 23.1712 70.6073 22.7593 69.5362 22.6638C68.5006 22.5571 67.444 22.827 66.4653 23.0227C66.1622 23.0579 65.8936 23.1348 65.7193 22.9441C65.4788 22.495 65.6778 21.8772 65.804 21.392C66.7546 18.5879 68.6349 16.1513 70.6289 13.9804C74.04 10.3447 78.3865 7.55233 83.2238 6.24968C86.0878 5.40564 89.1883 5.11769 92.0748 6.02677C95.8895 7.19527 99.3047 10.0608 100.501 13.9354Z" fill="#7C5635"/>
<path d="M81.6318 10.1866C86.2463 8.09358 92.3145 10.6671 94.3053 15.3294C95.551 18.2468 95.4149 22.4897 92.5675 25.169C89.1322 28.4028 84.2752 26.9895 83.7437 26.824C79.7555 25.5901 76.1037 21.5114 76.679 16.8839C77.0436 13.9473 79.0407 11.3615 81.6318 10.1866Z" fill="#7C5635"/>
<path d="M81.5581 13.6203C81.7282 13.7971 81.0364 14.2979 80.9553 15.385C80.8769 16.4324 81.4504 16.8887 81.1359 17.3916C80.8631 17.8271 80.1082 17.9939 79.6174 17.7522C78.8786 17.389 78.8837 16.1708 79.1199 15.4529C79.5819 14.0452 81.3142 13.3703 81.5575 13.6231L81.5581 13.6203Z" fill="#FFDCC1"/>
</g>
<g clip-path="url(#clip2_1848_9577)">
<path d="M0.274911 78.6734C-0.660431 75.3254 1.23886 72.5733 1.58464 72.0715C3.28989 69.5978 5.82104 68.8188 7.3447 68.3748C14.4692 66.2962 21.9146 70.1585 21.7455 71.5434C21.6646 72.207 19.8673 72.0201 18.8648 73.6558C18.2019 74.7383 18.5041 75.6127 18.3412 76.8244C17.9021 80.1009 14.5625 82.2095 13.8896 82.6335C13.106 83.129 9.15817 85.471 4.98644 83.6897C4.37325 83.4275 1.22642 82.0841 0.273667 78.6721L0.274911 78.6734Z" fill="#FFDCC1"/>
<path d="M0.251303 78.6807C-0.440253 76.2032 0.35827 73.5038 1.92671 71.5319C3.10708 70.0153 4.84343 69.0419 6.64571 68.4724C9.64577 67.4337 12.9307 67.4036 16.0041 68.1324C17.8449 68.5941 19.6994 69.23 21.2206 70.4205C21.544 70.7102 21.9346 71.0401 21.9408 71.5281C21.9035 72.1515 20.9047 72.2895 20.4806 72.5341C20.2057 72.6621 19.9494 72.8139 19.7206 72.9995C19.2654 73.367 18.9183 73.8826 18.7579 74.4396C18.5925 74.999 18.6497 75.6224 18.6223 76.2735C18.5825 78.2642 17.4096 80.0668 15.9979 81.3588C13.6458 83.5114 10.4132 84.9 7.20542 84.4597C4.09591 84.0031 1.11575 81.7978 0.250059 78.6807H0.251303ZM0.298568 78.6669C1.17296 81.7276 4.19292 83.7948 7.24646 84.1172C10.3286 84.397 13.3971 83.0435 15.6496 80.9737C16.9855 79.7494 18.0887 78.12 18.1559 76.2509C18.1907 75.6137 18.1385 74.9463 18.3325 74.3129C18.5315 73.6568 18.9333 73.0835 19.4606 72.6658C19.9656 72.2544 20.6099 72.0349 21.1883 71.8028C21.3587 71.7175 21.5254 71.6661 21.5515 71.5055C21.5241 71.1856 21.2094 70.9272 20.9781 70.714C19.5253 69.5574 17.7118 68.9139 15.9295 68.4498C12.907 67.6972 9.68308 67.711 6.71038 68.6806C4.92552 69.2162 3.20658 70.1269 2.00756 71.5971C0.411754 73.5226 -0.396719 76.2083 0.298568 78.6669Z" fill="#7C5635"/>
<path d="M8.88441 70.2157C5.75872 70.6911 3.4639 74.1319 4.01242 77.2792C4.35571 79.2486 5.87315 81.445 8.27494 81.8853C11.173 82.4172 13.2303 80.005 13.4517 79.7353C15.1159 77.7157 15.6345 74.3075 13.7564 72.0584C12.5648 70.6309 10.6394 69.9485 8.88441 70.2157Z" fill="#7C5635"/>
<path d="M10.0934 72.0057C10.0648 72.1575 10.5971 72.1851 11.0101 72.732C11.4081 73.2589 11.2638 73.6966 11.5996 73.8547C11.8907 73.9914 12.3422 73.8208 12.5163 73.5248C12.7788 73.0795 12.3608 72.4372 11.9927 72.1387C11.2713 71.5529 10.1357 71.79 10.0946 72.007L10.0934 72.0057Z" fill="#FFDCC1"/>
</g>
</g>
<defs>
<clipPath id="clip0_1848_9577">
<rect width="137.636" height="127.307" fill="white"/>
</clipPath>
<clipPath id="clip1_1848_9577">
<rect width="35.1599" height="26.8344" fill="white" transform="matrix(-0.839033 0.544081 0.546215 0.837645 91.3367 -0.994629)"/>
</clipPath>
<clipPath id="clip2_1848_9577">
<rect width="21.942" height="16.908" fill="white" transform="translate(0 67.6318)"/>
</clipPath>
</defs>
</svg>
