<svg width="213" height="144" viewBox="0 0 213 144" fill="none" xmlns="http://www.w3.org/2000/svg">
<g clip-path="url(#clip0_1895_1179)">
<path d="M52.2125 33.2837C52.5604 39.1355 52.6975 47.7544 51.3991 58.0899C50.522 65.0548 49.7038 67.1562 50.5857 69.5385C54.2018 79.2966 79.4065 74.8961 92.1607 73.3564C157.029 65.5125 193.832 96.0248 207.101 74.3083C212.03 66.2407 212.623 52.7479 212.809 48.5451C213.162 40.5555 213.686 28.6075 207.919 21.8299C201.613 14.4229 190.74 16.6648 181.832 18.012C154.937 22.0848 116.88 22.4021 88.9023 17.0601C74.4478 14.2981 60.7185 9.64787 54.6673 18.012C51.5069 22.3761 51.6245 28.6439 52.2223 33.2785L52.2125 33.2837Z" fill="#8C4A60"/>
<path d="M0.0586271 106.126C-0.235362 108.191 0.465312 109.346 4.88005 123.749C9.28008 138.09 8.7999 137.653 9.36338 138.532C15.1844 147.682 33.9899 144.082 88.3975 132.706C126.763 124.68 125.778 124.722 129.076 124.347C152.472 121.679 160.533 124.42 168.083 117.175C179.167 106.537 180.485 82.7039 171.023 73.4971C165.232 67.8639 156.529 68.8001 149.724 69.6324C77.7159 78.4282 72.3163 80.8573 37.8215 88.54C21.3875 92.2019 1.45018 96.3632 0.0586271 106.126Z" fill="#E1E2C7"/>
<path d="M129.586 106.683C131.394 106.439 133.138 107.172 133.736 108.525C134.427 110.101 133.295 111.916 131.202 112.587C110.8 119.115 89.6324 123.63 68.2888 126.007C53.0895 127.703 37.6943 128.317 22.5392 127.833C20.3538 127.765 18.8006 126.319 19.0701 124.613C19.3396 122.902 21.3338 121.575 23.5191 121.648C38.1892 122.116 53.0846 121.523 67.7988 119.88C88.4515 117.581 108.943 113.206 128.694 106.891C128.988 106.798 129.292 106.73 129.586 106.688V106.683Z" fill="#497A89"/>
<path d="M61.9974 112.94C76.7997 110.948 91.3914 107.151 105.459 101.621C107.086 100.981 107.919 99.0621 107.316 97.33C106.713 95.6031 104.905 94.7188 103.273 95.3586C87.8978 101.403 71.8705 105.309 55.6374 106.974C44.0739 108.16 32.329 108.206 20.7262 107.119C18.9966 106.958 17.4679 108.316 17.316 110.152C17.1641 111.988 18.4429 113.611 20.1725 113.772C32.1624 114.901 44.2944 114.849 56.2401 113.621C58.1608 113.424 60.0767 113.195 61.9925 112.94H61.9974Z" fill="#497A89"/>
<path d="M65.0843 57.4258C63.2616 57.4258 61.6152 56.4687 61.1889 55.0487C60.6892 53.3946 62.0268 51.7405 64.1827 51.3608C85.198 47.6105 106.733 45.9564 128.184 46.4506C143.467 46.7991 158.808 48.2451 173.787 50.747C175.948 51.1059 177.32 52.7444 176.849 54.4037C176.379 56.063 174.242 57.1137 172.082 56.7548C157.583 54.3309 142.732 52.9317 127.944 52.5936C107.184 52.1203 86.3348 53.7171 65.9908 57.3478C65.687 57.3998 65.3783 57.431 65.0794 57.431L65.0843 57.4258Z" fill="#E1E2C7"/>
<path d="M105.14 31.526C120.06 31.526 134.99 33.3466 149.601 36.9512C151.292 37.3674 152.345 39.1619 151.953 40.9564C151.561 42.751 149.871 43.8693 148.18 43.4532C132.207 39.5104 115.846 37.7783 99.5496 38.288C87.937 38.6574 76.2804 40.1762 64.8981 42.803C63.2028 43.1931 61.527 42.054 61.1546 40.249C60.7822 38.4441 61.8602 36.6704 63.5604 36.275C75.32 33.5546 87.3638 31.989 99.3585 31.6093C101.284 31.5468 103.215 31.5156 105.145 31.5156L105.14 31.526Z" fill="#E1E2C7"/>
<path d="M170.298 7.0479C168.715 9.51344 168.412 11.8541 167.878 15.9374C167.412 19.5212 166.481 26.6838 170.033 33.9607C171.249 36.4523 173.37 40.8008 178.01 43.2403C187.114 48.0257 196.938 40.7279 197.57 40.2442C199.227 38.975 203.357 35.7032 204.91 29.7839C206.552 23.516 204.269 18.2104 202.754 14.6786C201.059 10.7358 198.31 4.3379 191.779 1.46144C184.356 -1.81033 174.483 0.535565 170.298 7.0427V7.0479Z" fill="#E1E2C7"/>
<path d="M186.027 25.8403C185.502 25.9859 184.978 26.0744 184.478 26.1108C182.93 26.22 181.323 25.8403 179.946 25.0497C178.446 24.1862 177.3 22.891 176.624 21.3045C175.472 18.5945 175.781 15.4164 177.413 13.2109C179.652 10.1784 183.523 9.89235 186.169 10.9119C189.652 12.2539 192.622 16.4827 191.495 20.6492C190.725 23.4892 188.349 25.2109 186.022 25.8507L186.027 25.8403ZM181.524 12.1186C180.402 12.4255 179.338 13.0705 178.544 14.142C176.957 16.2903 177.226 19.0003 177.937 20.67C179 23.1667 181.651 24.7792 184.385 24.5867C186.619 24.4307 189.368 22.9951 190.118 20.2174C191.01 16.9196 188.496 13.419 185.679 12.3319C184.463 11.8637 182.94 11.7233 181.519 12.1134L181.524 12.1186Z" fill="#E27B14"/>
<path d="M176.599 41.6058C176.521 41.6266 176.438 41.637 176.354 41.6266C175.957 41.5902 175.668 41.2209 175.703 40.7995C175.879 38.6981 176.761 33.3925 181.146 29.4914C181.646 29.0492 182.812 28.0089 184.503 27.1455C186.624 26.0584 188.849 25.6058 191.113 25.7931C193.646 26.0011 196.007 26.9946 198.129 28.732C199.619 29.9543 200.559 31.2079 200.991 31.8425C201.221 32.1858 201.147 32.6591 200.824 32.9036C200.501 33.1481 200.055 33.07 199.824 32.7267C199.266 31.8997 196.208 27.7385 191.005 27.3067C187.869 27.0466 184.86 28.1702 182.072 30.6513C178.099 34.1832 177.295 39.0154 177.133 40.9244C177.104 41.2521 176.883 41.5174 176.599 41.5954V41.6058Z" fill="#E27B14"/>
<path d="M24.1022 57.424C21.4122 58.6828 19.9276 60.5866 17.3307 63.9C15.0571 66.8076 10.5052 72.623 9.86823 81.1639C9.65264 84.0872 9.27046 89.1951 12.1222 94.0742C17.7128 103.661 30.2319 102.938 31.0452 102.875C33.1718 102.719 38.542 102.235 43.0008 97.8869C47.7144 93.2835 48.4494 87.2341 48.9394 83.2185C49.4882 78.7244 50.375 71.437 46.073 65.0547C41.183 57.7986 31.202 54.095 24.1022 57.424Z" fill="#497A89"/>
<path d="M28.2915 83.3216C27.7526 83.1448 27.2381 82.9159 26.7775 82.6558C25.3468 81.8444 24.1169 80.57 23.3084 79.0564C22.4265 77.4127 22.0835 75.5869 22.3089 73.782C22.696 70.7027 24.6265 68.0603 27.2185 67.0564C30.7856 65.678 34.3673 67.691 36.1852 70.1461C38.5812 73.3763 39.0172 78.8743 35.852 81.912C33.6911 83.9874 30.6876 84.1175 28.2915 83.3216ZM31.4274 68.4972C30.2711 68.1123 28.9971 68.0603 27.733 68.5492C25.2096 69.5271 24.0336 72.0863 23.7935 73.99C23.4358 76.8301 24.9548 79.8106 27.4831 81.2462C29.5508 82.4165 32.7357 82.7547 34.8475 80.7313C37.3513 78.3281 36.9446 73.7404 35.0092 71.1292C34.1762 70.0005 32.8974 68.9862 31.4323 68.4972H31.4274Z" fill="#E27B14"/>
<path d="M11.7253 91.7902C11.6469 91.7642 11.5685 91.7226 11.4999 91.6654C11.1667 91.4001 11.103 90.9008 11.3529 90.5523C12.6023 88.7889 16.1449 84.5965 22.0688 83.707C22.7401 83.6082 24.3178 83.3689 26.2679 83.5926C28.7178 83.8735 30.9276 84.7734 32.8386 86.2662C34.9798 87.9359 36.5624 90.1986 37.5375 92.9866C38.2235 94.9476 38.4097 96.6069 38.4587 97.4235C38.4881 97.8604 38.1745 98.2402 37.758 98.2714C37.3464 98.2974 36.9887 97.9697 36.9593 97.5275C36.8956 96.4612 36.3419 90.9788 31.9468 87.5458C29.296 85.4756 26.0425 84.7161 22.2746 85.2831C16.9093 86.0893 13.6852 89.9073 12.5484 91.5093C12.3524 91.785 12.0193 91.8891 11.7253 91.7902Z" fill="#E27B14"/>
</g>
<defs>
<clipPath id="clip0_1895_1179">
<rect width="213" height="143.724" fill="white"/>
</clipPath>
</defs>
</svg>
