<svg width="194" height="182" viewBox="0 0 194 182" fill="none" xmlns="http://www.w3.org/2000/svg">
<path d="M92.6783 97.9204C122.418 108.127 131.906 107.822 135.946 109.834C132.844 105.729 128.784 101.685 126.56 96.188C124.336 90.691 121.979 81.9731 121.668 79.1687C123.04 79.3821 128.159 85.4458 132.926 93.8205C142.435 110.525 158.742 116.751 161.967 128.657C162.472 130.521 162.63 132.292 161.778 132.36C159.737 132.523 156.309 131.485 156.355 132.533C156.371 132.879 157.404 133.529 158.753 135.094C165.92 143.405 175.854 151.146 192.42 169.813C195.098 172.831 194.088 172.831 191.502 172.312C188.916 171.794 184.732 171.107 182.162 169.767C175.02 166.043 163.164 159.334 150.647 151.605C137.221 143.314 119.294 133.777 120.979 137.781C121.336 138.63 179.006 176.931 148.964 172.836C136.181 171.093 122.135 161.196 115.521 161.329C113.501 161.369 114.049 164.54 112.634 165.566C110.083 167.415 103.26 163.85 99.881 167.593C98.1977 169.457 97.8819 174.31 93.5914 177.586C91.3826 179.273 85.0528 184.615 75.5538 180.441C68.2235 177.22 64.2769 171.144 52.4305 164.016C50.2268 162.69 49.2168 163.696 48.7118 164.717C48.2068 165.738 48.375 167.021 47.6865 167.247C46.1561 167.75 38.8227 172.855 32.0363 166.709C30.5161 165.332 30.0959 162.193 29.3174 162.675C27.1086 164.042 23.8726 168.095 19.0896 168.091C13.4886 168.086 7.91081 167.91 7.05102 165.535C6.37768 163.676 5.46381 159.73 8.96394 156.025C10.9555 153.917 12.7466 151.771 14.3059 149.925C13.6144 150.127 12.8803 150.262 12.1164 150.304C9.37713 150.457 6.34707 149.451 4.83204 147.739C3.31701 146.027 3.31701 143.679 3.83732 140.433C4.35764 137.187 5.36766 133.163 8.64767 131.151C11.9277 129.139 19.2848 130.205 18.9672 128.448C18.5999 126.416 12.1725 122.766 7.36729 116.23C3.64348 111.165 0.966445 101.063 2.8171 91.0162C3.33741 88.1915 4.43456 89.8103 5.89307 92.0881C12.5194 102.437 17.1198 120.94 31.4139 123.221C35.9844 123.95 26.3329 100.748 29.1985 91.5539C21.1135 85.0426 12.3286 77.0903 6.61743 69.6938C-2.82473 57.4653 -3.83475 47.0708 14.7384 54.4831C33.3115 61.8954 68.8879 89.7556 92.6783 97.9204Z" fill="#FFDCC1"/>
<path d="M51.621 82.5938C51.621 82.5938 25.0075 89.7237 43.2056 118.246C43.2056 118.246 36.0373 122.084 41.5522 128.119H122.062C122.062 128.119 126.232 121.933 118.203 116.602C118.203 116.602 124.087 93.5646 112.048 85.3393L51.6267 82.5966L51.621 82.5938Z" fill="#FDF8EA"/>
<path d="M51.3893 81.767C42.0843 84.2849 35.0705 92.735 36.0888 102.517C36.6952 108.352 39.3583 113.772 42.4561 118.68L42.7651 117.505C38.9006 119.616 37.3932 123.992 40.082 127.685C41.1775 129.19 41.8354 128.976 43.5145 128.976H119.582C120.526 128.976 122.108 129.304 122.806 128.541C123.787 127.471 124.05 125.249 123.993 123.906C123.838 120.384 121.401 117.766 118.629 115.857L119.027 116.828C120.56 110.782 120.995 104.124 120.014 97.97C119.31 93.5658 117.62 89.1103 114.267 86.0176C113.544 85.349 112.78 84.5808 111.782 84.4642C111.195 84.3959 110.586 84.4101 109.994 84.3845C95.3856 83.7216 80.7773 83.0587 66.1691 82.3958C61.3178 82.1767 56.4665 81.9548 51.6152 81.7357C50.5025 81.6845 50.5054 83.4029 51.6152 83.4541C63.2315 83.9805 74.8477 84.5097 86.461 85.036C93.3518 85.349 100.245 85.662 107.136 85.9749C108.552 86.0404 110.403 85.8099 111.779 86.1855C111.85 86.2054 111.962 86.1656 112.03 86.1969C111.947 86.157 112.705 86.9309 112.906 87.1101C113.409 87.5625 113.878 88.049 114.31 88.5669C115.786 90.3308 116.796 92.4448 117.471 94.6242C119.585 101.455 119.104 109.484 117.357 116.372C117.256 116.768 117.431 117.121 117.754 117.343C121.041 119.61 123.855 123.821 121.304 127.685C121.553 127.542 121.802 127.4 122.05 127.258H42.2902C42.1415 127.258 41.8326 127.315 41.6867 127.258C41.6581 127.246 41.6123 127.272 41.5837 127.258C42.1558 127.514 40.7713 125.622 41.2805 126.396C40.4481 125.124 40.0362 123.653 40.614 122.199C41.1518 120.842 42.3646 119.684 43.6404 118.987C44.0408 118.768 44.1924 118.196 43.9493 117.812C39.6386 110.989 35.4824 101.962 38.9979 93.9299C40.9001 89.5826 44.7674 86.4529 49.0122 84.4955C49.9276 84.0744 50.8773 83.6846 51.8527 83.4229C52.9253 83.1326 52.4705 81.4739 51.3921 81.767H51.3893Z" fill="#231F20"/>
<path d="M55.3337 61.2052C55.3337 61.2052 47.0614 90.823 55.3337 123.184C55.3337 123.184 47.6134 133.605 57.5391 137.443C63.7034 137.443 69.0838 133.287 70.6142 127.346L74.0839 113.857L89.5245 114.406L92.382 131.454C93.1687 136.152 97.7625 139.355 102.419 138.254C105.8 137.455 108.255 134.664 105.637 127.025C105.637 127.025 120.06 94.3283 105.62 57.1992L55.3366 61.2052H55.3337Z" fill="#FDF8EA"/>
<path d="M54.5013 60.9775C53.217 65.6009 52.4933 70.4205 51.8955 75.1719C50.4681 86.5382 50.3794 98.1065 51.8526 109.473C52.2873 112.816 52.848 116.145 53.5631 119.442C53.7319 120.216 53.9063 120.987 54.0923 121.755C54.1609 122.046 54.5385 122.905 54.5528 122.802C54.5213 123.007 54.1724 123.366 54.0637 123.542C52.622 125.855 51.4492 128.669 51.6294 131.434C51.8354 134.621 54.7731 138.468 58.2685 138.283C62.891 138.038 67.1787 135.554 69.6702 131.671C71.3922 128.985 71.9385 125.679 72.7223 122.637C73.4545 119.786 74.1868 116.939 74.9219 114.088L74.0895 114.719C79.2355 114.901 84.3842 115.086 89.5302 115.268C89.2527 115.058 88.9752 114.847 88.6978 114.637C89.5902 119.969 90.4855 125.298 91.378 130.629C91.9386 133.978 93.4976 136.92 96.7127 138.448C99.8277 139.927 104.493 139.66 106.55 136.544C107.557 135.017 107.72 133.105 107.537 131.329C107.422 130.228 107.305 128.68 106.77 127.699C106.378 126.985 106.418 127.807 106.547 127.096C106.813 125.628 107.702 124.071 108.166 122.643C110.669 114.924 112.122 106.847 112.677 98.7638C113.652 84.5665 111.578 70.2697 106.461 56.9716C106.332 56.6387 106.026 56.3087 105.629 56.34C90.9518 57.5093 76.2749 58.6787 61.598 59.848C59.5128 60.013 57.4275 60.1809 55.3451 60.3459C54.2439 60.4341 54.2353 62.1526 55.3451 62.0644C70.022 60.895 84.6989 59.7257 99.3758 58.5563C101.461 58.3913 103.546 58.2234 105.629 58.0584L104.796 57.4268C112.253 76.805 113.126 98.3455 107.645 118.344C107.03 120.592 106.335 122.819 105.523 125.004C105.331 125.519 105.108 126.023 104.922 126.538C104.839 126.766 104.936 126.396 104.902 126.589C104.719 127.579 105.257 128.578 105.489 129.565C105.932 131.449 106.258 133.827 105.137 135.557C104.201 137 102.402 137.566 100.752 137.608C96.5268 137.719 93.7722 134.413 93.1114 130.567C92.1761 125.107 91.2807 119.641 90.3654 114.182C90.3025 113.806 89.8848 113.564 89.533 113.55C84.3871 113.368 79.2383 113.183 74.0924 113.001C73.7205 112.987 73.3516 113.277 73.26 113.632C72.113 118.096 71.0174 122.578 69.8161 127.027C68.6519 131.335 65.4396 134.837 61.0832 136.086C60.1163 136.365 58.5574 136.852 57.5534 136.587C56.6152 136.339 55.4481 135.403 54.7931 134.709C53.6346 133.48 53.237 131.87 53.3829 130.22C53.6003 127.741 54.9132 125.941 55.9601 123.807C56.0745 123.571 56.1747 123.488 56.2118 123.184C56.2662 122.72 55.9601 122.077 55.8514 121.627C55.6112 120.64 55.3852 119.647 55.1735 118.651C54.4813 115.405 53.9264 112.127 53.5145 108.833C52.2015 98.3142 52.2358 87.6279 53.4086 77.0981C53.9922 71.8573 54.7645 66.5255 56.1804 61.4327C56.4779 60.3658 54.8102 59.9106 54.5156 60.9747L54.5013 60.9775Z" fill="#231F20"/>
<path d="M91.8272 26.3039C93.4548 24.1786 94.8535 22.7503 97.3364 21.1172C99.7105 25.0918 100.491 29.9826 99.4674 34.495C99.2185 35.5904 98.8667 36.6915 98.9468 37.8124C99.0612 39.4 100.022 40.7856 100.88 42.1285C103.761 46.6438 105.855 51.856 105.62 57.1992C105.3 64.4572 100.288 71.294 93.4405 73.8205C86.5926 76.347 78.3116 74.4123 73.3116 69.1175C70.2881 72.4093 65.3882 73.866 61.0461 72.7649C56.7039 71.6639 53.1027 68.0534 52.03 63.7231C51.2462 60.5593 51.744 57.2419 52.2417 54.0212C53.9064 43.2865 55.5712 32.5546 57.236 21.8199C61.4322 25.6779 65.0078 30.2017 67.7853 35.1665L85.8289 36.4496L85.8632 36.3757C87.4622 32.805 89.4473 29.4165 91.83 26.3067L91.8272 26.3039Z" fill="#FDF8EA"/>
<path d="M92.5737 26.7357C94.0669 24.8123 95.7459 23.2191 97.774 21.8562C97.3792 21.7538 96.9874 21.6514 96.5926 21.549C98.0657 24.1096 98.941 26.9462 99.0354 29.9023C99.0783 31.2708 98.9725 32.6393 98.695 33.9794C98.4519 35.1516 98.06 36.3181 98.08 37.5273C98.1229 39.9285 99.7505 41.849 100.912 43.8292C102.382 46.3386 103.572 49.0188 104.236 51.8554C106.578 61.8731 99.9279 72.6049 89.3843 73.9165C83.7007 74.6221 77.8997 72.5879 73.9208 68.5023C73.6005 68.1751 73.0198 68.1694 72.6994 68.5023C69.121 72.2237 63.3458 73.43 58.7119 70.9292C53.8034 68.2775 52.1158 63.1989 52.5849 57.9098C53.1112 51.9777 54.3412 46.0427 55.2537 40.1562C56.189 34.1188 57.1272 28.0814 58.0626 22.044L56.6181 22.4224C58.6347 24.2974 60.5226 26.2975 62.2417 28.4484C63.1771 29.6178 64.0552 30.8326 64.8847 32.0788C65.5369 33.0575 66.1862 34.8101 67.0329 35.5954C68.0112 36.503 70.371 36.2043 71.6182 36.2953C76.3522 36.631 81.0862 36.9696 85.8202 37.3053C86.092 37.3252 86.4524 37.1346 86.5668 36.8786C88.1772 33.2766 90.1853 29.8852 92.5651 26.7357C93.2345 25.8508 91.7356 24.9944 91.0748 25.8679C88.695 29.0174 86.6869 32.4089 85.0765 36.0108C85.3254 35.8685 85.5742 35.7263 85.8231 35.584C79.8076 35.1573 73.795 34.7276 67.7795 34.3009L68.5261 34.7276C65.6742 29.6974 62.0844 25.1509 57.8395 21.2076C57.4133 20.8092 56.5008 20.9117 56.395 21.586C55.2851 28.7415 54.1753 35.897 53.0654 43.0525C52.5448 46.4069 52.0242 49.7613 51.5036 53.1158C51.0145 56.2682 50.451 59.4832 50.9401 62.6726C51.6838 67.5264 55.1936 71.6888 59.8561 73.302C64.7732 75.0034 70.3682 73.413 73.9151 69.72H72.6937C80.0536 77.2823 92.5852 77.8172 100.294 70.491C103.93 67.0342 106.244 62.206 106.475 57.1957C106.77 50.8596 103.835 45.616 100.76 40.3297C99.6218 38.3694 99.8278 36.8359 100.291 34.7219C100.617 33.2339 100.783 31.7146 100.757 30.1925C100.697 26.8352 99.7448 23.5918 98.0743 20.684C97.8541 20.3 97.2791 20.1179 96.893 20.3768C94.6161 21.9075 92.7511 23.7113 91.0748 25.8707C90.3969 26.7442 91.8958 27.6006 92.5651 26.7385L92.5737 26.7357Z" fill="#231F20"/>
<path d="M75.4397 65.6755C76.8499 65.3597 78.4002 66.3214 78.815 67.6984C79.2326 69.0755 78.529 70.6773 77.2732 71.3886C76.5295 71.8096 75.6485 71.9405 74.7904 71.9348C73.6519 71.9291 72.4791 71.6873 71.5524 71.0272C70.6256 70.3672 69.9906 69.2405 70.125 68.1138C70.2594 66.9871 71.3006 65.9828 72.4362 66.0653L75.4368 65.6755H75.4397Z" fill="#231F20"/>
<path d="M91.2235 45.1502C92.6337 45.7277 93.9953 46.4077 95.231 47.2783C104.078 53.5092 96.7613 69.3736 86.1692 64.7987C84.8419 64.2268 83.6892 63.3163 82.6422 62.3234C79.7847 59.6205 77.5249 56.01 77.4563 52.0866C77.3876 48.1632 80.0393 44.069 83.9294 43.4118C84.8619 43.2553 85.8316 43.2923 86.7327 43.5796C88.2258 44.0548 89.7533 44.547 91.2264 45.1502H91.2235Z" fill="#F9D3E3"/>
<path d="M86.5182 55.9683C87.5135 55.9683 88.3203 55.0678 88.3203 53.9568C88.3203 52.8459 87.5135 51.9453 86.5182 51.9453C85.5229 51.9453 84.7161 52.8459 84.7161 53.9568C84.7161 55.0678 85.5229 55.9683 86.5182 55.9683Z" fill="#231F20"/>
<path d="M67.4992 55.9683C68.4945 55.9683 69.3013 55.0678 69.3013 53.9568C69.3013 52.8459 68.4945 51.9453 67.4992 51.9453C66.504 51.9453 65.6971 52.8459 65.6971 53.9568C65.6971 55.0678 66.504 55.9683 67.4992 55.9683Z" fill="#231F20"/>
<path d="M56.3835 22.1419C57.2731 24.4464 58.0225 26.7937 58.5946 29.195C58.8664 30.3416 59.1009 31.4995 59.2983 32.6604C59.5071 33.898 60.062 35.7559 59.7731 37.0163C59.9734 36.8171 60.1764 36.6151 60.3767 36.4159C58.8521 36.9025 56.8097 36.672 55.2279 36.6435C54.1152 36.6236 54.1152 38.3421 55.2279 38.362C56.3006 38.3791 57.3704 38.3762 58.4402 38.3222C59.1381 38.288 60.1993 38.4075 60.8372 38.0746C62.1072 37.4089 61.4122 35.349 61.2634 34.228C60.6999 29.9262 59.6129 25.7353 58.0511 21.6838C57.6564 20.6624 55.9859 21.1063 56.3864 22.1419H56.3835Z" fill="#231F20"/>
<path d="M96.6212 20.8845C94.6904 24.7283 93.4719 28.848 93.0914 33.1356C92.9942 34.2367 92.9513 35.3435 92.9684 36.4502C92.977 37.0818 92.8654 37.9809 93.2974 38.5158C93.5806 38.8657 93.961 38.9084 94.3758 38.9653C95.6372 39.1389 97.0646 38.9625 98.3375 38.9596C99.4502 38.9596 99.4502 37.2412 98.3375 37.2412C97.4564 37.2412 96.5783 37.2412 95.6973 37.244C95.2568 37.244 94.8163 37.244 94.3758 37.244C94.7762 37.1416 94.8821 36.8741 94.6933 36.4474C95.0308 34.8143 94.7819 32.9422 95.0394 31.2635C95.5514 27.9461 96.6012 24.7482 98.1086 21.7494C98.6035 20.7621 97.1161 19.8915 96.6183 20.8816L96.6212 20.8845Z" fill="#231F20"/>
<path d="M75.3396 35.0536C74.9306 33.7534 74.819 32.4588 74.9792 31.1074C75.1079 30.012 73.3802 30.0206 73.2515 31.1074C73.0741 32.5982 73.2229 34.0777 73.672 35.5088C74.0038 36.5615 75.6714 36.112 75.3367 35.0508L75.3396 35.0536Z" fill="#231F20"/>
<path d="M78.037 35.198C77.8139 33.9973 77.8596 32.7967 78.1457 31.6102C78.4031 30.5348 76.7383 30.0767 76.4809 31.1522C76.1205 32.6516 76.0947 34.1396 76.3722 35.6532C76.5724 36.74 78.2372 36.2791 78.037 35.1951V35.198Z" fill="#231F20"/>
<path d="M81.0805 36.1053C81.3837 35.2034 81.7327 34.3214 82.136 33.4593C82.6022 32.4635 81.1148 31.59 80.6457 32.5915C80.1794 33.5873 79.7647 34.6059 79.4157 35.6472C79.061 36.697 80.7287 37.1494 81.0805 36.1053Z" fill="#231F20"/>
<path d="M79.1697 111.533C76.3064 111.254 73.5948 110.409 71.7441 108.347C70.0879 106.5 69.6016 103.84 69.4843 101.322C69.1353 93.7825 71.5753 86.1376 76.1892 80.3022C76.8843 79.4231 77.6337 78.5781 78.5404 77.9379C82.0559 75.457 87.1503 76.8397 90.0966 80.0206C93.0428 83.2014 94.2528 87.6939 94.8907 92.0583C95.3455 95.1823 95.5629 98.3432 95.5343 101.504C95.5057 104.927 95.048 109.234 91.5011 110.629C87.9741 112.014 82.8626 111.897 79.1669 111.536L79.1697 111.533Z" fill="#F9D3E3"/>
<path d="M104.339 155.828C104.339 158.628 102.059 160.896 99.2443 160.896C96.4296 160.896 94.1527 158.628 94.1527 155.828C94.1527 155.351 94.2185 154.887 94.3472 154.449H65.7C65.7801 154.804 65.823 155.171 65.823 155.553C65.823 158.352 63.5433 160.62 60.7315 160.62C57.9196 160.62 55.637 158.352 55.637 155.553C55.637 153.84 56.4923 152.326 57.7995 151.413C56.4923 150.494 55.637 148.98 55.637 147.267C55.637 144.471 57.9168 142.203 60.7315 142.203C63.5461 142.203 65.823 144.471 65.823 147.267C65.823 147.848 65.7258 148.406 65.5456 148.926H94.3444C94.2185 148.488 94.1527 148.021 94.1527 147.546C94.1527 144.75 96.4325 142.482 99.2443 142.482C102.056 142.482 104.339 144.75 104.339 147.546C104.339 149.259 103.483 150.773 102.176 151.692C103.483 152.605 104.339 154.119 104.339 155.831V155.828Z" fill="#FDF8EA"/>
<path d="M103.475 155.829C103.36 158.347 101.189 160.444 98.5607 159.986C96.0263 159.545 94.6018 157.101 95.1825 154.677C95.3112 154.136 94.9251 153.59 94.3501 153.59H65.7029C65.0965 153.59 64.779 154.136 64.8705 154.677C65.4226 157.963 62.2017 160.84 58.9866 159.391C55.8487 157.975 55.883 153.971 58.4145 152.02C58.7549 151.758 58.7492 151.067 58.4145 150.805C55.7743 148.759 55.9231 144.545 59.2984 143.322C62.7681 142.065 65.6543 145.416 64.716 148.697C64.5616 149.234 64.9906 149.783 65.5484 149.783H94.3472C94.9251 149.783 95.3083 149.237 95.1796 148.697C94.4216 145.473 97.385 142.403 100.683 143.598C104.053 144.821 104.207 149.032 101.567 151.081C101.229 151.342 101.229 152.037 101.567 152.296C102.757 153.215 103.403 154.313 103.478 155.829C103.532 156.93 105.26 156.936 105.205 155.829C105.108 153.903 104.333 152.27 102.788 151.081V152.296C106.501 149.416 105.686 143.333 101.044 141.899C96.4697 140.485 92.4679 144.699 93.5149 149.152C93.7923 148.79 94.0698 148.426 94.3472 148.065H65.5484C65.8259 148.426 66.1033 148.79 66.3808 149.152C67.6737 144.637 63.6434 140.17 58.938 141.624C54.2955 143.057 53.4803 149.143 57.1931 152.02V150.805C53.5318 153.627 54.2526 159.542 58.7263 161.13C63.2772 162.746 67.2818 158.663 66.5353 154.219C66.2578 154.58 65.9804 154.944 65.7029 155.306H94.3501C94.0726 154.944 93.7952 154.58 93.5177 154.219C92.6825 157.707 94.8678 161.266 98.5549 161.702C102.156 162.128 105.048 159.309 105.205 155.826C105.254 154.72 103.529 154.723 103.478 155.826L103.475 155.829Z" fill="#231F20"/>
</svg>
