<svg width="138" height="141" viewBox="0 0 138 141" fill="none" xmlns="http://www.w3.org/2000/svg">
<g clip-path="url(#clip0_1891_19561)">
<path d="M126.919 105.589C131.388 98.5809 141.348 82.9661 136.865 67.2448C133.151 54.2197 123.264 54.2468 115.443 36.5703C108.578 21.0529 112.665 13.0461 105.497 8.1954C98.9825 3.78873 92.5538 8.3336 74.8929 10.495C51.4227 13.3679 48.4118 7.0943 36.6372 10.495C12.4866 17.4709 -6.66158 53.0506 2.20613 72.6144C7.36898 84.0038 17.6676 80.3493 34.3406 95.6198C56.2782 115.711 50.7017 133.257 65.711 139.331C84.8208 147.066 113.531 126.58 126.919 105.589Z" fill="#FFDCC1"/>
<path d="M88.1843 36.4026C80.1597 21.3179 65.4804 14.6162 55.6565 18.3545C43.5541 22.9605 42.1572 42.1437 44.0401 52.7039C47.5867 72.6008 67.5713 88.7208 94.5746 94.6228C97.5538 93.6327 123.388 84.5452 132.912 56.7798C140.104 35.809 137.959 6.20611 124.2 0.888643C114.846 -2.72506 100.956 5.1911 93.9959 15.4431C88.2272 23.9393 88.0554 32.8138 88.1865 36.4026H88.1843Z" fill="#497A89"/>
<path d="M54.7524 78.4227C59.6621 73.2094 65.7517 70.3706 69.6803 72.1876C75.3088 74.7931 75.7316 86.613 70.9236 94.008C68.0822 98.3785 62.7453 102.235 56.6172 102.112C46.6532 101.913 39.2887 91.2847 39.2028 82.1632C39.1825 80.1219 38.5721 75.1783 41.6915 72.8129C44.3159 70.8237 47.91 71.8432 48.5339 72.0336C53.048 73.4111 54.5942 77.931 54.7546 78.4227H54.7524Z" fill="#E27B14"/>
</g>
<defs>
<clipPath id="clip0_1891_19561">
<rect width="138" height="141" fill="white"/>
</clipPath>
</defs>
</svg>
