<svg width="119" height="144" viewBox="0 0 119 144" fill="none" xmlns="http://www.w3.org/2000/svg">
<g clip-path="url(#clip0_1497_10548)">
<path d="M32.7186 130.083C29.1903 131.927 25.2342 133.588 21.2148 133.077C17.1984 132.568 13.4532 129.006 14.5198 125.439C11.9347 128.483 5.79709 127.108 4.37795 123.504C2.95881 119.897 5.73382 115.664 9.67186 114.269C5.27282 115.791 -0.00602092 112.121 5.15457e-06 107.849C0.00603123 103.577 4.68829 99.9489 9.3796 100.159C5.1282 99.0434 1.41915 95.5176 1.58788 91.4894C1.75661 87.4613 6.95711 83.9776 10.8771 85.8398C7.78269 83.0932 4.51956 80.0608 3.86573 76.162C3.21191 72.2662 6.75223 67.6273 10.9946 68.4245C7.24938 67.3114 4.45328 63.9662 4.27551 60.3832C4.09774 56.8003 6.54734 53.2114 10.166 51.7614C6.33341 52.4563 3.40775 47.7031 5.14929 44.5203C6.89083 41.3345 11.3742 40.1101 15.24 40.5854C12.1124 39.1745 10.5577 35.4261 11.8804 32.4719C13.2001 29.5177 17.1984 27.8 20.5309 28.7536C16.8549 27.8511 13.7696 24.4637 14.553 21.0673C15.3364 17.6709 24.3363 16.1156 24.3363 16.1156L30.1575 16.3202L29.0005 12.4214C28.4552 10.5833 30.1696 8.79932 32.2395 9.09414C34.8157 9.46115 37.2261 10.9292 38.3259 13.0922C38.9285 10.7006 39.971 8.40222 41.3811 6.30842C42.2639 5.0028 44.3158 4.91255 45.3342 6.12491L49.9411 11.5941C53.3429 7.70128 57.2447 4.16648 61.5383 1.08294C62.7345 0.225563 64.4067 -0.643846 65.624 0.673805C65.8892 0.959597 66.0579 1.30856 66.1603 1.67257L69.6072 13.9285C72.3672 12.8696 75.0066 11.5519 77.4743 10.0027C78.7398 9.20845 80.4662 9.9485 80.5988 11.3353L81.3189 18.8472C84.8623 17.1535 88.6527 15.89 92.5576 15.0928C94.6697 14.6626 96.6643 16.0945 96.6734 18.062C96.6824 20.1227 96.0376 22.1894 94.7842 23.9132L101.955 23.8711C104.441 23.856 106.3 25.9077 105.836 28.1309C105.333 30.5586 104.173 32.878 102.452 34.8004L111.133 37.0987C113.531 37.7335 114.577 40.3176 113.164 42.2009C111.916 43.8645 110.38 45.3446 108.62 46.566C109.129 48.3048 111.946 47.8024 113.869 48.2326C117.045 48.9456 117.888 53.0549 116.183 55.606C114.477 58.1571 111.266 59.4777 108.249 60.651C108.039 62.2454 110.307 63.1088 112.067 63.0035C113.869 62.8982 115.894 62.4079 117.301 63.4668C118.509 64.3753 118.723 65.9878 117.948 67.2362C116.526 69.5286 113.751 70.0581 111.169 70.5033C113.616 71.9142 115.897 73.5598 117.967 75.4009C119.464 76.7336 119.319 78.9898 117.641 80.151C115.306 81.7635 112.697 83.048 109.934 83.9385L114.83 88.0058C116.84 89.6754 116.33 92.6747 113.86 93.7367L111.377 94.8016C113.685 97.0278 116.008 99.6631 115.921 102.729C115.833 105.794 111.832 108.7 109.066 106.958C112.359 108.664 115.249 111.636 115.167 115.093C115.086 118.546 110.726 121.735 107.394 120.093C109.202 123.191 109.985 127.244 107.671 130.071C105.357 132.896 99.2556 132.523 98.6228 129.058C99.0356 132.301 96.9988 135.694 93.7718 137.141C90.5449 138.588 86.3567 137.983 83.8017 135.7C84.4163 138.049 82.5814 140.67 80.0022 141.277C77.4261 141.885 74.5185 140.492 73.4911 138.266C71.8369 142.839 65.389 145.2 60.5079 143.383C55.6267 141.566 52.8668 136.287 53.8008 131.551L32.7186 130.083Z" fill="#FFDCC1"/>
<path d="M35.8009 133.302C27.0089 127.417 22.0585 116.037 22.3417 105.375C22.7033 91.7835 34.3396 84.9215 36.8525 72.4249C36.9851 71.7721 37.0031 71.0922 36.8284 70.4484C35.9335 67.1031 31.3085 67.1874 27.9369 67.783C24.499 68.3937 19.5817 67.7228 19.648 64.0647C19.6631 63.3156 19.9072 62.5876 20.2928 61.9438C22.64 58.027 26.3279 54.9705 28.2322 50.825C30.0942 46.7638 30.0701 42.0136 32.0648 38.0155C32.8783 36.388 33.975 34.9741 35.2526 33.7106C39.4045 29.6072 45.1233 27.4773 50.9656 27.6157L56.6241 27.7481C72.1292 28.1091 83.645 32.9074 87.4565 47.916C88.9058 53.6228 91.6235 66.0322 90.9155 73.7004C90.6021 77.0938 93.2656 82.4547 93.8592 85.8721C95.3266 94.3195 95.9352 103.269 94.0912 111.708C89.9965 130.432 73.2229 138.058 55.2049 138.298C47.5217 138.401 40.9653 136.758 35.7949 133.299L35.8009 133.302Z" fill="#FDF8EA"/>
<path d="M36.2167 132.592C26.9486 126.26 21.6758 113.552 23.4264 102.485C25.0142 92.449 33.3423 85.4877 36.6717 76.1559C37.3918 74.1373 38.3379 71.5712 37.3466 69.4954C36.4849 67.6904 34.5987 66.9444 32.7156 66.7278C30.4196 66.463 28.2653 67.1008 25.9935 67.161C23.9627 67.2121 20.4254 66.7909 20.4766 64.0714C20.5067 62.4258 22.0374 60.7502 23.0076 59.5198C23.9898 58.2743 25.0323 57.074 26.0086 55.8255C27.7802 53.5663 29.1722 51.1957 29.9858 48.4341C30.8686 45.4317 31.1759 42.264 32.3721 39.3549C33.6315 36.2894 35.9907 33.7654 38.7296 31.9394C43.0262 29.0754 47.7868 28.3685 52.8367 28.4888C56.8591 28.5821 60.8875 28.6302 64.8677 29.286C74.0002 30.7902 81.9276 35.3989 85.4377 44.2946C87.1883 48.7319 88.035 53.6625 88.8726 58.3375C89.3698 61.1262 89.7825 63.933 90.0206 66.7578C90.2315 69.2848 90.0839 71.7426 90.0748 74.2666C90.0658 76.7064 90.9637 79.1191 91.7199 81.4024C92.6329 84.1641 93.2445 86.8535 93.6453 89.7415C94.6366 96.9284 94.8655 104.368 93.3048 111.492C91.1505 121.317 84.7357 129.069 75.6243 133.278C71.0535 135.39 66.0549 136.59 61.0592 137.132C55.3194 137.755 49.3777 137.691 43.7975 136.076C41.1009 135.294 38.5669 134.133 36.2197 132.592C35.3309 132.009 34.5023 133.435 35.3881 134.015C44.9756 140.303 57.8534 140.167 68.64 137.448C78.2034 135.035 87.0075 129.515 91.729 120.646C94.5914 115.27 95.7423 109.178 96.0135 103.141C96.1792 99.4163 95.9924 95.683 95.5766 91.9797C95.2301 88.8872 94.8475 85.7645 93.9104 82.7893C93.0668 80.1148 91.7772 77.3021 91.726 74.4592C91.6777 71.7968 91.8856 69.1886 91.6536 66.5172C91.1685 60.9668 90.111 55.4585 88.8364 50.0405C87.7487 45.4257 86.2633 40.9884 83.2894 37.219C80.5476 33.7444 76.8446 31.2565 72.7348 29.662C68.0706 27.851 63.0057 27.1832 58.0341 26.9726C54.4999 26.8252 50.8029 26.5364 47.2927 27.0117C41.4654 27.8029 35.8672 30.8925 32.4715 35.7509C30.5974 38.4344 29.8863 41.5871 29.1994 44.7308C28.4551 48.1272 27.4458 51.1626 25.3607 53.9905C23.098 57.062 15.6347 63.4366 20.344 67.3114C24.3032 70.5664 29.5037 67.2181 33.8605 68.623C37.3346 69.7451 35.8823 73.6199 34.9392 76.1378C33.9901 78.6769 32.6403 81.0474 31.2 83.3368C28.4521 87.6928 25.3035 91.8293 23.3721 96.6426C19.1991 107.042 22.3266 119.828 29.2235 128.354C30.9921 130.541 33.0741 132.43 35.3942 134.015C36.274 134.614 37.0996 133.188 36.2258 132.592H36.2167Z" fill="#231F20"/>
<path d="M34.3629 52.9142C35.6986 52.8764 36.7429 51.4874 36.6955 49.8117C36.648 48.1359 35.5267 46.8081 34.191 46.8458C32.8553 46.8835 31.811 48.2725 31.8585 49.9483C31.9059 51.624 33.0272 52.9519 34.3629 52.9142Z" fill="#231F20"/>
<path d="M46.4882 58.5991C47.1149 56.6317 48.4316 54.9169 50.2485 54.231C52.1286 53.524 54.2618 53.7136 56.139 54.4326C61.7733 56.5956 62.2946 65.5213 55.7563 66.8841C50.0225 68.0784 44.3881 65.1874 46.4912 58.5991H46.4882Z" fill="#F9D3E3"/>
<path d="M50.0648 55.5079C51.4005 55.4702 52.4448 54.0812 52.3974 52.4054C52.3499 50.7297 51.2286 49.4018 49.8929 49.4395C48.5572 49.4772 47.5129 50.8663 47.5604 52.542C47.6078 54.2177 48.7291 55.5456 50.0648 55.5079Z" fill="#231F20"/>
<path d="M22.5646 64.7413C21.6487 63.9531 21.26 62.8189 22.414 61.8112C23.348 60.9959 24.8696 61.3058 25.8187 62.106C26.4063 62.6023 26.8763 63.3213 26.8281 64.0915C26.6835 66.3447 23.9868 65.9627 22.5646 64.7413Z" fill="#231F20"/>
<path d="M36.9519 80.5755C39.2328 84.1524 43.4691 86.177 47.6934 85.3377C49.6579 84.9466 51.4989 83.9238 52.921 82.5189C53.6321 81.8179 54.2498 81.0057 54.7168 80.1242C54.9036 79.7753 55.0904 78.9179 55.4008 78.6863C57.1724 77.3716 56.7054 80.6357 56.5487 81.2824C56.3469 82.1188 57.308 82.6061 57.9287 82.0827C58.6428 81.481 59.851 81.478 60.4868 82.206C61.472 83.3311 60.3873 84.9135 59.0074 84.8774C58.0673 84.8533 57.9016 86.2432 58.7874 86.4959C59.5166 86.7035 60.2879 86.902 60.9387 87.3051C61.9481 87.9309 62.7255 89.8351 60.9809 90.0578C59.7968 90.2112 58.4891 89.3959 57.2719 89.3628C54.7108 89.2966 52.7644 91.944 50.6914 93.1233C45.6265 96.0052 39.4467 96.4294 34.0112 94.3807C33.0169 94.0077 32.586 95.5991 33.5713 95.9691C40.2482 98.4811 48.0911 97.4041 53.7677 93.048C54.6565 92.3652 55.458 91.4356 56.5578 91.1378C57.5792 90.861 58.5042 91.2491 59.4985 91.4807C60.6947 91.7575 62.0385 91.8838 62.9816 90.9302C63.8704 90.0307 63.9005 88.5927 63.3492 87.5127C62.5477 85.9424 60.8062 85.3617 59.2213 84.9075L59.0013 86.526C61.3666 86.5861 63.3733 83.999 62.2102 81.7638C61.1527 79.7332 58.3897 79.5436 56.7566 80.9214C57.2176 81.1892 57.6756 81.4569 58.1366 81.7217C58.5795 79.8896 58.691 77.1099 56.2293 76.7068C54.066 76.3518 53.6411 78.954 52.68 80.2837C49.0824 85.2595 41.6342 84.8594 38.3741 79.7452C37.8046 78.8547 36.3764 79.679 36.9489 80.5755H36.9519Z" fill="#231F20"/>
<path d="M87.2817 76.1331C85.8264 78.2028 82.9912 78.4826 80.653 78.4134C78.7096 78.3562 78.0196 77.6372 76.9078 76.2203C76.3775 75.5434 75.7478 74.9809 74.9554 74.6319C73.4278 73.9611 71.5958 74.3431 70.8396 75.9405C70.5413 76.5723 70.4479 77.3093 70.71 77.9682C71.0595 78.8466 71.9664 79.0482 72.4485 79.8002C72.6866 79.3881 72.9246 78.9729 73.1596 78.5608C71.5024 78.6661 69.3782 79.2768 69.1462 81.2202C68.8781 83.4614 71.2192 84.4271 72.9879 84.8151C72.9216 84.3127 72.8553 83.8103 72.792 83.311C71.3849 84.2225 70.2008 85.6966 70.6287 87.4865C71.1168 89.5202 73.0391 89.818 74.8258 89.6014C76.3986 89.4119 77.6822 89.3667 79.249 89.7247C80.4903 90.0075 81.7106 90.3174 82.9791 90.4497C85.6487 90.7325 88.3092 90.3595 90.8311 89.466C91.8254 89.114 91.3975 87.5226 90.3912 87.8776C86.7484 89.1712 83.3919 88.9757 79.6859 88.1363C78.2697 87.8144 76.9169 87.643 75.4676 87.8445C74.7686 87.9408 73.7652 88.2657 73.0692 87.9949C71.0957 87.2308 72.7137 85.3205 73.6206 84.7339C74.181 84.3699 74.1539 83.3892 73.4248 83.2297C73.1235 83.1636 72.8101 83.1064 72.5148 83.0161C71.6531 82.7484 71.2644 82.604 71.1348 81.6504C71.0173 80.787 71.0746 80.7599 71.8098 80.4711C72.2497 80.2966 72.6805 80.2455 73.1536 80.2154C73.7441 80.1793 74.2262 79.5325 73.8647 78.9759C73.491 78.3953 72.1683 77.6312 72.2135 76.9303C72.2678 76.0729 73.4639 75.8533 74.0726 76.0488C74.7867 76.2805 75.329 76.8761 75.7629 77.4507C76.8446 78.8917 77.7093 79.8063 79.6105 80.0078C82.8646 80.3538 86.6972 79.8093 88.6948 76.9694C89.3065 76.1 87.8753 75.2757 87.2697 76.1391L87.2817 76.1331Z" fill="#231F20"/>
<path d="M35.9817 114.916C40.7212 112.362 46.7624 109.775 52.2702 110.211C54.8825 110.416 57.5641 111.676 58.7995 114.098C59.5648 115.596 58.8929 118.409 60.9508 118.999C61.698 119.212 62.2735 118.942 62.7917 118.391C63.8222 117.302 65.4342 115.687 66.8111 117.407C68.5677 119.603 62.7375 122.191 61.3636 122.958C60.6525 123.355 59.6913 124.104 58.8447 123.731C58.453 123.556 58.1456 123.021 57.8534 122.72C57.1574 122.004 56.3469 121.445 55.4158 121.074C53.6713 120.377 51.6586 120.349 49.911 121.056C45.8705 122.693 44.5749 127.852 46.8226 131.432C47.3861 132.329 48.8143 131.501 48.2478 130.602C46.7985 128.298 47.1119 125.039 49.3114 123.292C51.4085 121.625 54.6324 121.893 56.5307 123.731C57.1785 124.357 57.6636 125.127 58.5735 125.406C59.7606 125.771 60.9357 125.079 61.936 124.531C63.9457 123.433 66.6032 122.239 68.0344 120.38C69.2125 118.845 68.9835 116.806 67.3686 115.672C65.6873 114.492 63.4727 115.088 62.15 116.523C61.6016 117.116 61.3395 117.266 60.996 116.129C60.8634 115.696 60.9086 115.178 60.7941 114.727C60.538 113.713 60.0107 112.768 59.3509 111.965C57.9227 110.229 55.8407 109.131 53.6411 108.737C47.4674 107.636 40.4681 110.633 35.1501 113.496C34.2161 113.999 35.0477 115.422 35.9817 114.919V114.916Z" fill="#231F20"/>
<path d="M92.7775 106.727C88.1163 105.852 82.6296 105.773 79.4117 109.871C78.7126 110.761 78.1824 111.781 77.9564 112.894C77.869 113.324 77.9925 114.251 77.8178 114.588C77.173 115.833 76.8747 114.94 76.3655 114.522C74.8891 113.3 72.6896 113.078 71.2252 114.431C67.016 118.318 75.0729 121.727 77.5827 122.9C78.5439 123.351 79.6346 123.869 80.7163 123.493C81.6172 123.18 82.0631 122.392 82.6718 121.724C84.5459 119.672 87.6433 119.383 89.9422 120.869C90.8371 121.447 91.6657 120.021 90.7738 119.446C88.0922 117.717 84.3681 117.918 81.9697 120.087C81.6443 120.382 81.3852 120.716 81.102 121.047C80.4572 121.811 79.7069 121.838 78.6825 121.603C77.6581 121.369 76.4288 120.499 75.4857 119.994C74.5426 119.488 73.4248 118.989 72.6142 118.255C71.2403 117.013 71.9303 114.946 73.943 115.184C75.6183 115.382 76.4107 118.09 78.2727 117.112C79.9118 116.249 79.2429 114.122 79.719 112.678C81.4425 107.455 87.9386 107.488 92.3376 108.313C93.3741 108.508 93.82 106.92 92.7775 106.724V106.727Z" fill="#231F20"/>
</g>
<defs>
<clipPath id="clip0_1497_10548">
<rect width="119" height="144" fill="white"/>
</clipPath>
</defs>
</svg>
