<svg width="138" height="144" viewBox="0 0 138 144" fill="none" xmlns="http://www.w3.org/2000/svg">
<g clip-path="url(#clip0_1479_3791)">
<path d="M33.9799 31.6589C27.2258 39.2649 17.4711 52.0284 7.64555 64.9137C7.13847 64.9964 6.70508 65.1848 6.42742 65.6139C5.93242 66.3789 5.93242 67.8639 6.10242 68.8614C7.10242 71.5289 6.39723 75.2352 8.93992 80.6189C10.9424 84.8589 12.1979 87.0135 14.2749 90.4464C16.4424 94.0289 18.4632 98.9112 21.0224 101.271C23.1124 103.199 25.3865 106.971 30.0399 110.536C36.1124 115.189 38.8071 116.755 41.7749 117.851C44.9624 119.029 48.9418 122.204 51.8599 121.764C54.6124 121.349 58.1974 118.081 61.1899 121.104C61.9324 121.854 63.9375 123.696 66.4399 125.439C68.9524 127.189 74.4512 128.65 81.0349 126.844C85.2824 125.679 88.0743 121.501 97.6549 120.591C105.477 119.849 111.346 119.523 113.117 117.159C115.612 113.829 117.615 111.171 118.857 110.009C122.642 106.469 129.78 99.0739 128.092 96.0064C126.432 92.9889 125.28 89.1639 124.257 85.1489C121.752 75.3089 117.624 70.2741 117.262 61.5489C116.762 49.4889 116.026 45.7027 113.422 41.1664C112.752 39.9989 112.092 39.1739 110.912 39.6964C109.732 40.2189 108.082 42.0339 105.642 40.9014C103.202 39.7689 100.328 34.5428 96.5449 34.4239C89.2274 34.1939 84.225 35.1557 82.3249 32.6514C78.9124 28.1539 76.2717 23.6079 73.9174 23.1764C69.4024 22.3489 59.3959 31.0693 55.4974 26.0789C53.0874 22.9939 51.1468 20.2349 49.5899 20.0139C48.4274 19.8489 43.4461 20.9987 33.9799 31.6589Z" fill="#FFDCC1"/>
<path d="M19.3078 63.9364C18.7358 63.6284 18.1738 63.3024 17.6298 62.9484C17.3778 62.7844 17.1318 62.6164 16.8878 62.4424C16.7518 62.3464 16.2378 61.9324 16.7418 62.3484C17.2478 62.7684 16.7098 62.3204 16.6078 62.2384C15.5638 61.3864 14.5958 60.4384 13.7178 59.4164C13.5318 59.2004 13.3598 58.9064 13.1458 58.7224C13.2278 58.7924 13.7558 59.5544 13.3038 58.9184C13.2178 58.7964 13.1278 58.6764 13.0418 58.5524C12.6398 57.9804 12.2618 57.3904 11.9118 56.7844C11.5878 56.2224 11.2858 55.6464 11.0078 55.0584C10.9438 54.9224 10.8858 54.7844 10.8218 54.6504C10.6038 54.2044 10.9798 55.0364 10.9798 55.0364C10.8878 54.6584 10.6838 54.2844 10.5558 53.9164C10.1098 52.6324 9.81384 51.3264 9.58584 49.9884C9.49784 49.4784 9.64584 50.4064 9.64384 50.4084C9.66784 50.2804 9.60984 50.0724 9.59784 49.9404C9.56584 49.5764 9.53984 49.2124 9.52584 48.8484C9.49584 48.1184 9.50384 47.3884 9.54584 46.6584C9.56384 46.3464 9.58784 46.0344 9.61984 45.7224C9.63584 45.5664 9.65584 45.4124 9.67184 45.2564C9.72384 44.7424 9.61784 45.6764 9.61784 45.6764C9.88984 45.0744 9.88984 44.1804 10.0558 43.5284C10.2218 42.8704 10.4178 42.2204 10.6418 41.5784C10.7438 41.2884 10.8198 40.7704 11.0258 40.5524C11.0298 40.5484 10.6578 41.3704 10.8758 40.9064C10.9638 40.7184 11.0478 40.5264 11.1358 40.3364C11.7418 39.0584 12.4738 37.8644 13.2858 36.7064C13.7458 36.0504 12.7298 37.3704 13.4458 36.5064C13.6458 36.2644 13.8498 36.0284 14.0598 35.7964C14.5298 35.2764 15.0278 34.7824 15.5398 34.3044C17.4898 32.4864 19.6538 30.9084 21.5618 29.0424C23.8098 26.8404 25.7158 24.1764 26.5658 21.1124C27.4258 18.0164 27.1918 14.5624 25.9838 11.5944C24.4758 7.89038 21.8718 4.78638 18.3078 2.88838C14.9778 1.11638 11.1338 0.286384 7.36784 0.548384C5.02384 0.710384 2.75384 2.50238 2.86784 5.04838C2.96984 7.34638 4.85384 9.72239 7.36784 9.54838C8.04784 9.50039 8.72984 9.48438 9.41184 9.51438C9.72784 9.52838 10.0398 9.56838 10.3558 9.58239C10.8918 9.60839 9.91584 9.52838 9.94184 9.52038C10.1178 9.45438 10.5438 9.62238 10.7178 9.65638C11.3338 9.78038 11.9438 9.94038 12.5398 10.1364C12.6878 10.1864 12.8358 10.2404 12.9838 10.2904C13.7358 10.5384 12.8838 10.2664 12.7798 10.1864C13.0418 10.3924 13.4658 10.5044 13.7638 10.6644C14.0398 10.8104 14.3098 10.9664 14.5738 11.1324C14.8098 11.2804 15.2018 11.6784 15.4758 11.7464C15.4358 11.7364 14.8338 11.1944 15.1758 11.5284C15.2858 11.6364 15.4138 11.7324 15.5298 11.8364C15.8278 12.1084 16.1138 12.3944 16.3818 12.6964C16.4818 12.8084 16.5738 12.9284 16.6738 13.0384C16.9998 13.3944 16.4338 12.7404 16.4298 12.7204C16.4738 12.9444 16.8058 13.2684 16.9298 13.4684C17.1138 13.7664 17.2838 14.0724 17.4398 14.3864C17.4938 14.4924 17.5518 14.7084 17.6358 14.7924C17.4878 14.6444 17.3238 13.9584 17.5258 14.5484C17.7278 15.1384 17.9238 15.7764 18.0458 16.4164C18.0718 16.5584 18.0798 16.7184 18.1218 16.8564C18.1178 16.8444 18.0498 15.9064 18.0458 16.3984C18.0418 16.7924 18.0898 17.1864 18.0778 17.5824C18.0718 17.7644 17.9718 18.7424 18.0718 18.0164C18.1718 17.2904 18.0078 18.2624 17.9638 18.4384C17.8818 18.7744 17.7658 19.0984 17.6658 19.4304C17.4478 20.1424 18.0618 18.6384 17.6078 19.5384C17.3298 20.0884 16.9998 20.6004 16.6578 21.1124C16.2038 21.7924 17.2058 20.4804 16.6698 21.1024C16.4198 21.3924 16.1718 21.6824 15.9098 21.9624C15.0418 22.8884 14.0898 23.7364 13.1238 24.5584C11.1138 26.2724 9.00584 27.8924 7.28384 29.9104C5.07784 32.4924 3.45384 35.2964 2.23184 38.4604C0.0718367 44.0564 -0.0921634 50.6424 1.87784 56.3164C4.13184 62.8064 8.68384 68.4404 14.7658 71.7124C16.8378 72.8264 19.7598 72.2984 20.9218 70.0984C22.0278 68.0044 21.5218 65.1324 19.3078 63.9424V63.9364Z" fill="#FFF7F8"/>
<path d="M19.5619 63.5044C18.5979 62.9784 17.6619 62.4104 16.7899 61.7424C16.3199 61.3824 15.8239 62.1284 16.1839 62.5284C16.2999 62.6564 16.4679 62.7684 16.6019 62.8804C17.0939 63.2844 17.8059 62.5864 17.3099 62.1724C15.9019 60.9984 14.7559 59.6884 13.4999 58.3704C13.0519 57.9004 12.3699 58.5984 12.7919 59.0784C12.8879 59.1864 12.9699 59.3064 13.0519 59.4244L13.9159 58.9204C12.8399 57.4524 12.0079 55.9024 11.1919 54.2824C11.1199 54.1404 10.9219 54.0184 10.7599 54.0344H10.7559C10.4739 54.0644 10.1359 54.3364 10.2739 54.6684C10.3619 54.8784 10.4539 55.0864 10.5479 55.2924C10.7819 55.8104 11.6259 55.4424 11.4619 54.9064C11.1819 53.9944 10.8039 53.1284 10.5619 52.1984C10.3479 51.3764 10.2359 50.5344 10.0399 49.7084C9.88791 49.0644 8.99191 49.3584 9.07591 49.9744C9.10191 50.1644 9.13391 50.3544 9.16191 50.5444C9.24591 51.1024 10.1679 50.9684 10.1439 50.4124C10.1019 49.4004 9.98991 48.4084 10.0159 47.3924C10.0359 46.6284 10.1559 45.8704 10.1859 45.1084C10.2119 44.4464 9.26791 44.4924 9.18591 45.1084C9.15991 45.2984 9.13991 45.4904 9.11791 45.6804C9.04791 46.2804 9.91591 46.2984 10.0999 45.8124C10.3999 45.0204 10.4079 44.1524 10.6239 43.3364C10.8299 42.5584 11.0059 41.4804 11.4579 40.8084C11.1699 40.6404 10.8819 40.4724 10.5939 40.3044C10.5239 40.4664 10.4499 40.6284 10.3799 40.7904C10.1779 41.2604 10.7619 41.8724 11.1659 41.3964C11.7359 40.7244 12.0279 39.6524 12.4779 38.8844C12.7739 38.3784 13.0899 37.8844 13.4179 37.3984C13.5619 37.1844 13.8279 36.9224 13.8899 36.6524C13.9999 36.1804 13.4139 35.7944 13.0539 36.1664C12.9419 36.2824 12.8399 36.4204 12.7519 36.5544C12.6159 36.7624 12.6919 37.1344 12.9319 37.2384H12.9359C13.1379 37.3284 13.3779 37.3364 13.5419 37.1624C14.3319 36.3264 15.0519 35.4484 15.8959 34.6604C16.9599 33.6664 18.0879 32.7484 19.2019 31.8144C21.2539 30.0924 23.2199 28.2804 24.7479 26.0624C27.7759 21.6724 28.4259 16.1164 26.3499 11.1784C24.4759 6.72236 20.9979 3.31636 16.5199 1.51036C13.9619 0.480357 11.1859 -0.0396432 8.42991 0.00235681C6.34791 0.0343568 4.27991 0.606357 3.07991 2.45836C1.83191 4.38436 2.34791 6.95236 3.85991 8.57836C4.56191 9.33236 5.49991 9.86836 6.52391 10.0104C7.25391 10.1124 7.99591 9.99636 8.72991 9.99836C9.30391 9.99836 9.94591 10.1524 10.5119 10.0844C11.0119 10.0244 11.2579 9.18836 10.6439 9.10236C10.4559 9.07636 10.2459 9.07236 10.0719 9.03636C10.0279 9.36436 9.98391 9.69036 9.93991 10.0184C10.9539 9.95036 12.2079 10.5544 13.1579 10.8724C13.7719 11.0784 14.0279 10.1184 13.4239 9.90836C13.2919 9.86236 13.1579 9.81836 13.0339 9.75236C12.4659 9.44836 11.9819 10.2724 12.5299 10.6164C13.0159 10.9204 13.5659 11.0984 14.0579 11.3984C14.4559 11.6424 14.7959 11.9884 15.2259 12.1744C15.8099 12.4264 16.2699 11.6844 15.7299 11.3104C15.6259 11.2384 15.5339 11.1444 15.4339 11.0664C15.0879 10.7904 14.4079 11.0304 14.5979 11.5524C14.7659 12.0124 15.3939 12.3784 15.7199 12.7144C16.0119 13.0164 16.3099 13.5864 16.7699 13.6304C17.2499 13.6764 17.3639 13.0744 17.1239 12.7764C17.0399 12.6704 16.9439 12.5704 16.8639 12.4624C16.4759 11.9444 15.7419 12.3744 15.9999 12.9664C16.3059 13.6684 16.8259 14.3604 17.2059 15.0384L18.0699 14.5344C17.9939 14.4204 17.9479 14.3124 17.9159 14.1784C17.6119 14.3064 17.3059 14.4344 17.0019 14.5644C17.4139 15.2264 17.4899 16.2304 17.6399 16.9844C17.7479 17.5304 18.6759 17.4164 18.6219 16.8524C18.5979 16.6084 18.5859 16.3644 18.5419 16.1244C18.4619 15.6904 17.8299 15.6524 17.6279 16.0044C17.4079 16.3884 17.5779 16.9664 17.5759 17.3804C17.5759 17.6764 17.5179 17.9804 17.5299 18.2764C17.5519 18.8144 18.3979 18.9864 18.5119 18.4084C18.5539 18.1924 18.5839 17.9664 18.6019 17.7464C18.6479 17.1664 17.7799 17.0924 17.6199 17.6144C17.4839 18.0544 17.4219 18.5184 17.2859 18.9644C17.1859 19.2964 16.9879 19.6764 17.2699 19.9764C17.4979 20.2184 17.8879 20.1384 18.0559 19.8744C18.1839 19.6724 18.3299 19.3464 18.2579 19.1064C18.1239 18.6584 17.5979 18.6564 17.3439 18.9864C17.0219 19.4084 16.8179 19.9444 16.5299 20.3944C16.3459 20.6804 16.0779 20.9604 16.0399 21.3104C15.9899 21.7644 16.6059 21.9364 16.8939 21.6644C17.0339 21.5304 17.1699 21.3524 17.2639 21.1824C17.5239 20.7164 17.0179 20.3004 16.5799 20.4984C16.2719 20.6384 16.0299 21.0844 15.8159 21.3244C15.2679 21.9344 14.6799 22.5084 14.0739 23.0604C12.9819 24.0584 11.8319 24.9884 10.7019 25.9424C8.39191 27.8944 6.33991 30.0184 4.67791 32.5544C1.50191 37.3984 -0.200086 43.1404 0.0179141 48.9404C0.223914 54.4204 2.18391 59.7284 5.41991 64.1424C6.92391 66.1944 8.68591 68.0484 10.6859 69.6204C12.3879 70.9564 14.4479 72.6003 16.6899 72.7604C19.0139 72.9264 21.1379 71.5484 21.7799 69.2884C22.4099 67.0744 21.5719 64.6724 19.5599 63.5044C19.0019 63.1804 18.4979 64.0444 19.0559 64.3684C20.9499 65.4684 21.5019 67.9324 20.4919 69.8404C19.4519 71.8044 16.8919 72.2184 15.0199 71.2764C11.0279 69.2684 7.63391 65.8604 5.24791 62.1224C-0.358086 53.3424 -0.274086 42.2884 5.26391 33.4884C6.82791 31.0044 8.77391 28.9044 10.9959 26.9984C12.0799 26.0684 13.1939 25.1744 14.2639 24.2284C14.7839 23.7704 15.2939 23.3004 15.7819 22.8104C16.1279 22.4624 16.7899 21.4944 17.0839 21.3604L16.3999 20.6764C16.3439 20.7764 16.2679 20.8764 16.1859 20.9564C16.4699 21.0744 16.7559 21.1924 17.0399 21.3104C17.0059 21.6204 17.0779 21.3624 17.1919 21.2084C17.3719 20.9684 17.5319 20.6904 17.6859 20.4324C17.8639 20.1304 17.9959 19.7704 18.2079 19.4924C17.9039 19.4524 17.5979 19.4124 17.2939 19.3724C17.2239 19.1404 17.3079 19.1904 17.1939 19.3724L17.9799 19.2704L17.9719 19.2624C18.0139 19.4244 18.0579 19.5864 18.0999 19.7484C18.2199 19.1444 18.4019 18.4744 18.5859 17.8824C18.2579 17.8384 17.9319 17.7944 17.6039 17.7504C17.5939 17.8824 17.5739 18.0164 17.5479 18.1464C17.8759 18.1904 18.2019 18.2344 18.5299 18.2784C18.5219 18.0804 18.5639 17.8784 18.5719 17.6824C18.5799 17.5164 18.5779 17.3524 18.5739 17.1864C18.5619 16.9904 18.5539 16.7924 18.5519 16.5944C18.5759 16.3604 18.5559 16.3344 18.4919 16.5124C18.1879 16.4724 17.8819 16.4324 17.5779 16.3924C17.6059 16.5444 17.6079 16.7024 17.6239 16.8544C17.9519 16.8104 18.2779 16.7664 18.6059 16.7224C18.4379 15.8844 18.3279 14.8044 17.8659 14.0624C17.5639 13.5784 16.8239 13.8924 16.9519 14.4484C16.9999 14.6584 17.0879 14.8664 17.2059 15.0444C17.5599 15.5764 18.3879 15.1064 18.0699 14.5404C17.6919 13.8664 17.1679 13.1664 16.8639 12.4684L15.9999 12.9724C16.1319 13.1504 16.2779 13.3164 16.4159 13.4884C16.5339 13.2044 16.6519 12.9184 16.7699 12.6344C17.1199 12.6684 16.9959 12.6904 16.8099 12.4284C16.6759 12.2404 16.4839 12.0644 16.3219 11.9024C16.1799 11.7584 16.0339 11.6184 15.8839 11.4844C15.8379 11.4424 15.4599 11.0144 15.5619 11.2904L14.7259 11.7764C14.8919 11.9084 15.0479 12.0564 15.2239 12.1764L15.7279 11.3124C15.3019 11.1284 14.9579 10.7764 14.5599 10.5364C14.0679 10.2404 13.5159 10.0564 13.0319 9.75436L12.5279 10.6184C12.7279 10.7244 12.9439 10.8004 13.1579 10.8764L13.4239 9.91236C12.3779 9.56236 11.0559 8.94836 9.93991 9.02236C9.40991 9.05836 9.22191 9.88836 9.80791 10.0044C9.99591 10.0424 10.1899 10.0424 10.3799 10.0704C10.4239 9.74236 10.4679 9.41636 10.5119 9.08836C9.61591 9.19636 8.62191 8.98836 7.70791 9.03036C6.56991 9.08236 5.61191 8.87236 4.75591 8.06836C3.19991 6.60636 2.83991 4.05436 4.35991 2.44836C5.93991 0.778357 8.44191 0.892357 10.5499 1.08836C13.0439 1.32036 15.5079 2.02436 17.7399 3.16436C21.4699 5.07036 24.3519 8.42836 25.7439 12.3784C27.3679 16.9884 26.5099 21.8924 23.6939 25.8324C22.1739 27.9584 20.2059 29.6784 18.2139 31.3464C16.2839 32.9604 14.5559 34.6384 12.8319 36.4624L13.4379 36.3844H13.4339C13.4939 36.6104 13.5539 36.8384 13.6139 37.0664C13.6579 37.0004 13.7059 36.9364 13.7599 36.8804L12.9239 36.3944C12.8259 36.8124 11.9199 37.8624 11.6119 38.3864C11.3739 38.7904 11.1479 39.2024 10.9359 39.6204C10.7859 39.9144 10.6499 40.4664 10.4539 40.6964C10.7159 40.8984 10.9779 41.1004 11.2399 41.3024C11.3099 41.1404 11.3839 40.9784 11.4539 40.8164C11.7079 40.2344 10.9579 39.7664 10.5899 40.3124C10.1379 40.9844 9.96591 41.9824 9.74591 42.7524C9.48391 43.6724 9.46991 44.6624 9.13191 45.5544C9.45991 45.5984 9.78591 45.6424 10.1139 45.6864C10.1359 45.4964 10.1559 45.3044 10.1819 45.1144H9.18191C9.15191 45.8764 9.03191 46.6324 9.01191 47.3984C8.98591 48.4144 9.09791 49.4084 9.13991 50.4184C9.46791 50.3744 9.79391 50.3304 10.1219 50.2864C10.0939 50.0964 10.0619 49.9064 10.0359 49.7164C9.71391 49.8044 9.39391 49.8944 9.07191 49.9824C9.26791 50.8084 9.37991 51.6484 9.59391 52.4724C9.83391 53.4024 10.2139 54.2684 10.4939 55.1804C10.7979 55.0524 11.1039 54.9244 11.4079 54.7944C11.3499 54.6664 11.2899 54.5384 11.2359 54.4084C11.0759 54.6184 10.9139 54.8304 10.7539 55.0404H10.7579C10.6139 54.9584 10.4699 54.8744 10.3259 54.7924C11.1419 56.4124 11.9719 57.9624 13.0499 59.4304C13.4239 59.9404 14.2819 59.4624 13.9139 58.9264C13.7839 58.7384 13.6479 58.5484 13.4959 58.3764C13.2599 58.6124 13.0239 58.8484 12.7879 59.0844C14.0419 60.4004 15.1919 61.7124 16.5979 62.8864C16.8339 62.6504 17.0699 62.4144 17.3059 62.1784C17.1719 62.0684 17.0039 61.9564 16.8879 61.8264L16.2819 62.6124C17.1539 63.2804 18.0899 63.8484 19.0539 64.3744C19.6199 64.6824 20.1239 63.8184 19.5579 63.5104L19.5619 63.5044Z" fill="#665459"/>
<path d="M11.004 60.7139C15.038 55.1019 20.488 50.5939 27.138 48.1099C27.138 48.1099 55.044 34.3979 81.236 66.5819C83.634 63.4379 86.748 60.8379 90.282 59.0599C90.408 61.8499 90.534 64.6379 90.66 67.4279C90.684 67.9479 90.752 68.5519 91.192 68.8339C91.458 69.0039 91.794 69.0079 92.11 69.0059C97.41 68.9719 102.708 68.9379 108.008 68.9039C108.732 68.8999 109.478 68.8899 110.142 68.6059C112.676 67.5139 113.564 66.1939 113.6 66.1379C114.754 64.3859 116.566 62.7979 117.962 61.2619C117.878 61.3539 118.708 70.2279 118.844 71.0979C119.446 74.9739 121.414 78.4939 122.084 82.3579C123.128 88.3759 120.802 94.8659 116.174 98.8519C114.95 99.9059 113.576 100.774 112.108 101.448C113.466 104.34 117.054 111.772 122.33 121.154L129.596 130.642C129.596 130.642 137.1 130.136 137.1 133.92V135.938H126.902C127.488 136.42 128.14 136.77 128.898 136.878C137.026 138.038 134.01 143.136 134.01 143.136H122.33L82.47 117.492C82.47 117.492 68.634 116.242 62.896 112.268C62.896 112.268 61.184 112.2 58.374 111.908L60.082 119.83C63.172 122.258 62.95 125.126 62.95 125.126H51.032C46.196 119.412 43.89 112.918 42.888 109.2C37.698 107.902 32.146 106.062 27.08 103.462C30.152 111 35.356 121.322 42.588 127.268C42.588 127.268 47.884 126.876 47.884 133.92H28.462C28.462 133.92 15.31 120.656 10.63 110.504C8.47404 105.828 5.70204 101.86 4.29204 96.7419C0.998042 84.7879 3.66004 70.9239 11.002 60.7119L11.004 60.7139Z" fill="#FFF7F8"/>
<path d="M11.436 60.966C16.604 53.838 24.196 48.844 32.622 46.806C41.976 44.544 51.918 45.88 60.538 50.078C68.56 53.984 75.27 60.072 80.882 66.936C81.038 67.128 81.436 67.136 81.59 66.936C84 63.818 87.024 61.288 90.534 59.494C90.284 59.35 90.032 59.206 89.782 59.062C89.878 61.186 89.974 63.312 90.07 65.436C90.124 66.614 89.788 68.866 91.226 69.388C91.974 69.658 92.92 69.502 93.7 69.498C94.628 69.492 95.554 69.486 96.482 69.48C98.602 69.466 100.722 69.452 102.84 69.44C104.902 69.426 107.044 69.58 109.096 69.364C110.464 69.22 111.768 68.45 112.832 67.61C113.494 67.088 113.92 66.51 114.414 65.846C115.562 64.31 117.018 63.026 118.314 61.62C118.036 61.458 117.756 61.296 117.478 61.134C117.344 61.56 117.502 62.178 117.534 62.606C117.614 63.632 117.706 64.658 117.8 65.684C117.966 67.5 118.088 69.332 118.346 71.138C118.872 74.826 120.69 78.172 121.464 81.798C122.21 85.286 121.786 88.988 120.372 92.256C118.686 96.154 115.692 99.218 111.854 101.022C111.594 101.144 111.568 101.48 111.674 101.706C113.204 104.958 114.812 108.174 116.468 111.366C117.744 113.824 119.048 116.266 120.384 118.692C121.05 119.904 121.666 121.11 122.504 122.206C124.266 124.508 126.03 126.81 127.792 129.112C128.224 129.676 128.638 130.41 129.16 130.898C129.634 131.34 130.568 131.116 131.186 131.14C132.666 131.198 134.432 131.356 135.674 132.25C136.916 133.144 136.598 134.626 136.598 135.946L137.098 135.446H126.9C126.506 135.446 126.188 136.022 126.546 136.3C128.022 137.448 129.742 137.372 131.43 138.014C132.446 138.4 133.492 139.042 133.892 140.108C134.222 140.99 134.048 142.088 133.578 142.894C133.722 142.812 133.866 142.728 134.01 142.646H125.84C124.71 142.646 123.526 142.544 122.4 142.646C122.346 142.65 122.658 142.838 122.47 142.642C122.358 142.524 122.156 142.44 122.02 142.352C117.792 139.632 113.564 136.912 109.336 134.192C103.32 130.322 97.304 126.452 91.29 122.582C89.146 121.204 87.004 119.824 84.86 118.446C84.134 117.978 83.274 117.176 82.414 116.998C81.422 116.79 80.358 116.77 79.354 116.628C77.33 116.344 75.312 115.994 73.314 115.558C71.07 115.068 68.834 114.478 66.69 113.648C65.7 113.264 64.73 112.822 63.818 112.276C63.198 111.904 62.938 111.784 62.246 111.742C60.952 111.664 59.662 111.548 58.374 111.416C58.03 111.38 57.83 111.762 57.892 112.048C58.376 114.288 58.858 116.528 59.342 118.768C59.418 119.118 59.45 119.536 59.58 119.872C59.85 120.568 60.78 121.092 61.24 121.71C61.94 122.65 62.53 123.924 62.452 125.132C62.618 124.966 62.786 124.798 62.952 124.632H52.274C52.034 124.632 51.298 124.764 51.088 124.632C50.996 124.574 51.192 124.534 51.152 124.496C50.802 124.16 50.506 123.696 50.22 123.316C49.69 122.614 49.186 121.892 48.708 121.154C47.87 119.862 47.112 118.52 46.426 117.142C45.144 114.562 44.13 111.854 43.372 109.074C43.328 108.908 43.19 108.768 43.022 108.724C37.616 107.362 32.31 105.568 27.334 103.036C26.99 102.862 26.42 103.162 26.6 103.6C28.952 109.35 31.738 114.982 35.36 120.046C37.176 122.584 39.204 124.994 41.558 127.052C42.042 127.476 42.31 127.734 42.91 127.774C43.382 127.806 43.844 127.892 44.288 128.058C46.708 128.952 47.36 131.594 47.388 133.926C47.554 133.76 47.722 133.592 47.888 133.426H29.114C28.978 133.426 28.68 133.366 28.562 133.426C28.424 133.496 28.824 133.702 28.738 133.49C28.55 133.028 27.774 132.492 27.434 132.132C22.706 127.132 18.17 121.844 14.384 116.088C12.014 112.484 10.256 108.552 8.24598 104.746C5.91198 100.328 4.22598 95.838 3.66198 90.848C2.47998 80.382 5.32798 69.538 11.438 60.97C11.812 60.446 10.946 59.946 10.574 60.466C5.07598 68.178 2.18598 77.728 2.41198 87.192C2.52398 91.91 3.39798 96.628 5.27998 100.968C6.27398 103.264 7.49798 105.448 8.65798 107.66C9.69598 109.64 10.584 111.694 11.694 113.636C15.41 120.132 20.372 125.964 25.428 131.45C26.114 132.196 26.808 132.934 27.512 133.664C27.796 133.958 28.054 134.34 28.466 134.424C28.878 134.508 29.398 134.424 29.812 134.424H47.886C48.154 134.424 48.39 134.194 48.386 133.924C48.362 131.756 47.888 129.406 46.122 127.968C45.096 127.134 44.056 127.004 42.824 126.768C42.76 126.756 42.65 126.798 42.592 126.77C42.898 126.912 42.476 126.518 42.488 126.536C42.386 126.402 42.156 126.248 42.04 126.144C41.704 125.844 41.374 125.536 41.05 125.222C39.872 124.078 38.778 122.85 37.754 121.568C35.62 118.9 33.786 115.994 32.14 113.002C30.42 109.876 28.912 106.636 27.562 103.334C27.318 103.522 27.072 103.71 26.828 103.898C31.88 106.47 37.266 108.304 42.754 109.686C42.638 109.57 42.522 109.454 42.404 109.336C43.938 114.97 46.524 120.372 50.21 124.918C50.648 125.458 50.816 125.628 51.44 125.628H62.948C63.232 125.628 63.43 125.398 63.448 125.128C63.52 124.018 63.086 122.828 62.546 121.884C62.292 121.44 61.986 121.024 61.652 120.636C61.446 120.396 61.226 120.126 60.974 119.938C60.926 119.902 60.558 119.684 60.558 119.684C60.41 119.464 60.402 118.958 60.348 118.706C59.85 116.396 59.352 114.088 58.854 111.778C58.694 111.988 58.532 112.2 58.372 112.41C59.746 112.55 61.222 112.508 62.58 112.756C63.156 112.86 63.982 113.53 64.724 113.882C67.06 114.988 69.572 115.71 72.082 116.298C74.394 116.84 76.736 117.254 79.086 117.586C80.202 117.742 81.36 117.788 82.464 117.996C82.07 117.922 82.264 117.94 82.45 118.078C82.662 118.236 82.902 118.368 83.124 118.512C83.972 119.058 84.82 119.602 85.668 120.148C88.486 121.962 91.306 123.776 94.124 125.588C101.02 130.024 107.914 134.46 114.81 138.896C116.92 140.254 119.03 141.61 121.138 142.968C121.428 143.154 121.75 143.444 122.074 143.57C122.398 143.696 122.782 143.638 123.12 143.638H131.716C132.378 143.638 133.976 143.956 134.454 143.364C134.97 142.728 135.104 141.506 135.04 140.736C134.894 138.988 133.562 137.816 132.024 137.172C130.486 136.528 128.606 136.638 127.252 135.586C127.134 135.87 127.016 136.156 126.898 136.44H137.096C137.366 136.44 137.596 136.21 137.596 135.94C137.596 135.014 137.738 133.952 137.47 133.052C137.146 131.962 136.186 131.272 135.178 130.862C133.464 130.166 131.428 130.024 129.592 130.142L130.024 130.39C127.996 127.742 125.968 125.092 123.938 122.444C122.74 120.88 121.836 119.264 120.88 117.52C119.156 114.372 117.482 111.196 115.862 107.994C114.722 105.742 113.608 103.478 112.534 101.194C112.474 101.422 112.414 101.65 112.354 101.878C118.776 98.858 122.896 92.184 122.824 85.086C122.784 81.138 121.13 77.612 120.012 73.9C119.344 71.688 119.158 69.544 118.942 67.244C118.822 65.97 118.706 64.694 118.598 63.418C118.556 62.926 118.516 62.434 118.482 61.942C118.472 61.79 118.46 61.638 118.454 61.484C118.45 61.388 118.494 61.212 118.438 61.392C118.588 60.92 117.938 60.54 117.602 60.906C116.506 62.096 115.314 63.198 114.268 64.43C113.762 65.026 113.366 65.712 112.824 66.272C111.968 67.156 110.684 67.992 109.49 68.282C108.634 68.49 107.688 68.402 106.81 68.408C105.882 68.414 104.956 68.42 104.028 68.426C100.452 68.448 96.874 68.472 93.298 68.494C92.922 68.496 92.468 68.578 92.106 68.502C91.162 68.304 91.222 68.092 91.156 67.424C91.066 66.502 91.072 65.562 91.03 64.634C90.946 62.774 90.862 60.916 90.778 59.056C90.76 58.666 90.37 58.448 90.026 58.624C86.448 60.452 83.336 63.044 80.88 66.224H81.588C72.648 55.29 60.61 46.41 46.222 44.922C39.816 44.26 33.096 45.03 27.142 47.554C24.65 48.61 22.24 49.71 19.984 51.23C16.306 53.708 13.168 56.872 10.57 60.458C10.192 60.98 11.058 61.48 11.434 60.962L11.436 60.966Z" fill="#665459"/>
<path d="M127.252 135.586C124.7 132.308 122.148 129.032 119.596 125.754C115.526 120.526 111.456 115.3 107.384 110.072C106.446 108.866 105.506 107.662 104.568 106.456C104.174 105.948 103.47 106.662 103.86 107.164C106.412 110.442 108.964 113.718 111.516 116.996C115.586 122.224 119.656 127.45 123.728 132.678C124.666 133.884 125.606 135.088 126.544 136.294C126.938 136.802 127.642 136.088 127.252 135.586Z" fill="#665459"/>
<path d="M14.58 91.2761C15.036 93.0321 16.01 94.7281 17.04 96.1981C19.512 99.7261 22.992 102.298 26.948 103.946C27.542 104.194 27.8 103.226 27.214 102.982C23.396 101.39 20.004 98.8221 17.684 95.3741C16.796 94.0541 15.948 92.5641 15.544 91.0101C15.382 90.3881 14.418 90.6521 14.58 91.2761Z" fill="#665459"/>
<path d="M42.7558 109.684C47.9958 111.008 53.4458 111.7 58.7858 112.448C59.4158 112.536 59.6878 111.572 59.0518 111.484C53.7098 110.736 48.2618 110.044 43.0218 108.72C42.3978 108.562 42.1318 109.526 42.7558 109.684Z" fill="#665459"/>
<path d="M42.7219 126.788C40.3779 126.29 37.7899 127.02 36.2419 128.874C35.8319 129.364 36.5359 130.076 36.9499 129.582C38.2679 128.004 40.4459 127.324 42.4579 127.752C43.0859 127.886 43.3539 126.922 42.7239 126.788H42.7219Z" fill="#665459"/>
<path d="M60.2139 119.35C58.0759 118.664 55.7439 119.52 54.1919 121.022C53.7279 121.47 54.4359 122.178 54.8999 121.73C56.2059 120.464 58.1479 119.736 59.9499 120.314C60.5639 120.512 60.8279 119.546 60.2159 119.35H60.2139Z" fill="#665459"/>
<path d="M129.148 136.448C126.812 135.014 124.002 137.374 122.606 139.026C122.192 139.514 122.896 140.226 123.314 139.734C124.38 138.474 126.75 136.148 128.644 137.312C129.194 137.65 129.696 136.786 129.148 136.448Z" fill="#665459"/>
<path d="M129.462 130.162C128.06 130.492 126.932 131.61 126.418 132.922C126.184 133.522 127.15 133.782 127.382 133.188C127.77 132.198 128.682 131.374 129.728 131.128C130.354 130.98 130.09 130.016 129.462 130.164V130.162Z" fill="#665459"/>
<path d="M98.444 74.352C94.56 73.532 90.734 73.296 87.706 76.184C87.61 76.276 87.516 76.368 87.424 76.462C85.432 78.498 84.232 81.1741 83.758 83.9281C83.532 85.2361 83.468 86.608 83.914 87.864C84.374 89.16 85.344 90.236 86.424 91.132C88.836 93.138 92.016 94.422 95.2 94.174C98.384 93.926 101.482 91.97 102.538 89.08C103.092 87.566 103.102 85.856 103.982 84.4901C104.538 83.628 105.404 82.974 105.924 82.092C107.012 80.246 106.256 77.754 104.594 76.356C102.906 74.938 100.578 74.8 98.466 74.352C98.46 74.352 98.452 74.35 98.446 74.348L98.444 74.352Z" fill="#FFE0E8"/>
<path d="M98.9461 83.8358C99.6828 83.8358 100.28 83.03 100.28 82.0358C100.28 81.0417 99.6828 80.2358 98.9461 80.2358C98.2093 80.2358 97.6121 81.0417 97.6121 82.0358C97.6121 83.03 98.2093 83.8358 98.9461 83.8358Z" fill="#665459"/>
<path d="M113.078 84.5678C113.815 84.5678 114.412 83.7619 114.412 82.7678C114.412 81.7737 113.815 80.9678 113.078 80.9678C112.341 80.9678 111.744 81.7737 111.744 82.7678C111.744 83.7619 112.341 84.5678 113.078 84.5678Z" fill="#665459"/>
<path d="M108.252 90.3679C108.862 90.3499 109.36 90.0819 109.4 89.4199C109.432 88.8579 109.02 88.3339 108.5 88.1219C107.98 87.9099 107.38 87.9699 106.852 88.1639C104.618 88.9839 106.766 90.4159 108.252 90.3679Z" fill="#665459"/>
<path d="M89.7898 59.078C87.8298 61.3 85.9778 63.764 85.1958 66.67C84.9258 67.67 84.6558 68.804 85.9358 69.096C86.6798 69.266 87.5398 69.18 88.2978 69.208C89.2258 69.242 90.1518 69.278 91.0798 69.312C91.7238 69.336 91.7218 68.336 91.0798 68.312C89.7558 68.262 88.4318 68.212 87.1058 68.162C86.9258 68.156 86.4618 68.222 86.3118 68.132C85.8518 67.856 86.0298 67.452 86.1198 67.096C86.2638 66.528 86.4518 65.974 86.6818 65.434C87.5738 63.322 88.9938 61.492 90.4998 59.786C90.9238 59.304 90.2198 58.596 89.7918 59.078H89.7898Z" fill="#665459"/>
<path d="M117.438 61.1776C115.906 63.6056 114.64 66.1736 113.63 68.8616C113.51 69.1796 113.814 69.4836 114.112 69.4936C115.546 69.5416 116.978 69.5536 118.412 69.5276C119.054 69.5156 119.056 68.5156 118.412 68.5276C116.978 68.5516 115.546 68.5416 114.112 68.4936L114.594 69.1256C115.574 66.5196 116.816 64.0356 118.302 61.6816C118.646 61.1356 117.782 60.6336 117.438 61.1776Z" fill="#665459"/>
<path d="M102 68.67C101.262 67.066 101.258 65.268 101.99 63.66C102.254 63.078 101.394 62.57 101.126 63.156C100.232 65.12 100.234 67.214 101.136 69.176C101.404 69.76 102.266 69.252 102 68.672V68.67Z" fill="#665459"/>
<path d="M103.86 68.8999C103.74 67.5459 104.12 66.2719 105.02 65.2439C105.442 64.7619 104.738 64.0519 104.312 64.5359C103.246 65.7539 102.714 67.2799 102.858 68.8999C102.914 69.5359 103.916 69.5419 103.858 68.8999H103.86Z" fill="#665459"/>
<path d="M105.316 104.63C104.302 106.246 102.544 107.07 100.87 107.842C100.286 108.112 100.794 108.974 101.374 108.706C103.224 107.854 105.064 106.912 106.178 105.136C106.52 104.59 105.656 104.086 105.314 104.632L105.316 104.63Z" fill="#665459"/>
<path d="M48.7939 49.518C45.1479 48.11 40.2339 48.05 37.5839 48.23C33.8059 48.486 30.0139 49.638 27.0499 51.992C25.4119 53.292 23.9879 55.1 23.8859 57.19C23.8059 58.856 24.6019 60.488 25.7999 61.648C26.9979 62.806 28.5659 63.526 30.1779 63.952C32.7439 64.628 35.4939 64.592 38.0419 63.848C39.3679 63.46 40.6339 62.888 41.9559 62.484C44.1939 61.8 46.5739 61.606 48.7599 60.768C50.9459 59.93 53.0279 58.208 53.3239 55.886C53.7459 52.57 51.6619 50.626 48.7939 49.52V49.518Z" fill="#FFE0E8"/>
<path d="M30.7941 67.6239C34.1981 68.1679 38.8461 71.3199 35.2261 74.8959C33.8601 76.2439 31.9461 77.0579 30.0461 77.0639C28.7301 77.0679 27.3681 76.9659 26.2061 76.3499C22.5501 74.4139 23.1601 69.0639 26.9721 67.7719C27.9441 67.4419 29.3541 67.3939 30.7941 67.6239Z" fill="#FFE0E8"/>
<path d="M55.1219 62.4318C56.8199 62.3798 58.3479 62.9738 59.0639 64.5238C59.7219 65.9498 59.3359 67.6918 58.4479 68.9878C57.0119 71.0798 54.2759 72.1918 51.7879 71.6898C50.6919 71.4698 49.6359 70.9458 48.9059 70.1018C48.1759 69.2578 47.8059 68.0718 48.0679 66.9858C48.6439 64.5998 52.1439 62.5238 55.1199 62.4318H55.1219Z" fill="#FFE0E8"/>
<path d="M42.5459 87.3357C41.5559 87.3077 40.5799 87.4057 39.6139 87.6197C38.9859 87.7597 39.2519 88.7237 39.8799 88.5837C40.7619 88.3877 41.6439 88.3097 42.5479 88.3357C43.1919 88.3537 43.1919 87.3537 42.5479 87.3357H42.5459Z" fill="#665459"/>
<path d="M42.3978 90.5036C41.5638 90.7596 40.7298 91.0136 39.8938 91.2696C39.2798 91.4576 39.5418 92.4236 40.1598 92.2336C40.9938 91.9776 41.8278 91.7236 42.6638 91.4676C43.2778 91.2796 43.0158 90.3136 42.3978 90.5036Z" fill="#665459"/>
<path d="M77.078 72.5797C76.582 72.2777 76.0879 71.9777 75.5919 71.6757C75.0399 71.3397 74.5379 72.2057 75.0879 72.5397C75.5839 72.8417 76.0779 73.1417 76.5739 73.4437C77.1259 73.7797 77.628 72.9137 77.078 72.5797Z" fill="#665459"/>
<path d="M75.7479 75.8778C75.2579 75.6998 74.7699 75.5238 74.2799 75.3458C73.6739 75.1258 73.4119 76.0918 74.0139 76.3098C74.5039 76.4878 74.9919 76.6638 75.4819 76.8418C76.0879 77.0618 76.3499 76.0958 75.7479 75.8778Z" fill="#665459"/>
<path d="M91.806 101.5C91.216 101.972 90.624 102.446 90.034 102.918C89.822 103.088 89.86 103.448 90.034 103.626C90.24 103.836 90.532 103.794 90.742 103.626C91.332 103.154 91.924 102.68 92.514 102.208C92.726 102.038 92.688 101.678 92.514 101.5C92.308 101.29 92.016 101.332 91.806 101.5Z" fill="#665459"/>
<path d="M93.6279 103.324C93.0779 104 92.5719 104.708 92.1239 105.456C91.7919 106.008 92.6559 106.512 92.9879 105.96C93.3939 105.286 93.8399 104.64 94.3359 104.03C94.7379 103.536 94.0359 102.824 93.6279 103.322V103.324Z" fill="#665459"/>
<path d="M105.612 124.106C105.702 124.818 105.792 125.528 105.88 126.24C105.96 126.87 106.96 126.878 106.88 126.24C106.79 125.528 106.7 124.818 106.612 124.106C106.532 123.476 105.532 123.468 105.612 124.106Z" fill="#665459"/>
<path d="M107.302 124.758C107.41 125.248 107.424 125.736 107.366 126.232C107.334 126.5 107.618 126.732 107.866 126.732C108.162 126.732 108.334 126.502 108.366 126.232C108.436 125.646 108.394 125.066 108.266 124.492C108.126 123.864 107.162 124.13 107.302 124.758Z" fill="#665459"/>
<path d="M15.4479 105.05C15.0939 105.568 14.8499 106.152 14.7259 106.768C14.6019 107.396 15.5639 107.666 15.6899 107.034C15.7979 106.492 15.9979 106.012 16.3099 105.556C16.6739 105.022 15.8079 104.522 15.4459 105.052L15.4479 105.05Z" fill="#665459"/>
<path d="M18.3758 106.114C17.9938 106.636 17.7138 107.218 17.5318 107.836C17.3498 108.454 18.3138 108.718 18.4958 108.102C18.6558 107.56 18.9058 107.074 19.2398 106.618C19.3998 106.398 19.2758 106.062 19.0598 105.934C18.8078 105.784 18.5338 105.896 18.3758 106.114Z" fill="#665459"/>
<path d="M60.7158 103.572C60.8998 104.282 61.0838 104.99 61.2698 105.7C61.4318 106.322 62.3958 106.058 62.2338 105.434C62.0498 104.724 61.8658 104.016 61.6798 103.306C61.5178 102.684 60.5538 102.948 60.7158 103.572Z" fill="#665459"/>
<path d="M63.578 103.3C63.604 104.092 63.784 104.834 64.104 105.558C64.362 106.146 65.224 105.638 64.968 105.054C64.724 104.498 64.6 103.906 64.578 103.3C64.556 102.658 63.556 102.656 63.578 103.3Z" fill="#665459"/>
</g>
<defs>
<clipPath id="clip0_1479_3791">
<rect width="137.636" height="143.724" fill="white"/>
</clipPath>
</defs>
</svg>
