<svg width="138" height="119" viewBox="0 0 138 119" fill="none" xmlns="http://www.w3.org/2000/svg">
<g clip-path="url(#clip0_1848_16030)">
<path d="M46.0252 118.89C37.4335 118.504 38.9059 94.1557 21.5865 86.3042C13.4034 82.5956 5.9486 84.8002 2.0347 78.7014C-0.434439 74.8546 -0.914055 68.6058 2.0347 65.1241C7.80588 58.3088 21.8628 67.8143 28.1037 61.8655C35.7065 54.6179 19.8496 35.7452 28.1037 23.3067C33.7466 14.8039 48.1331 13.1065 57.4313 14.6164C71.8672 16.9612 78.8345 27.8206 83.5004 24.935C88.6557 21.7455 81.1871 7.84058 86.2162 3.75496C92.9703 -1.73201 120.634 11.8157 131.835 35.7965C141.352 56.1733 138.244 82.4988 129.119 85.7614C120.826 88.7279 113.616 70.469 97.0776 71.0986C86.1807 71.5131 77.9088 79.8718 70.4658 87.3917C53.9359 104.093 52.7951 119.196 46.0252 118.89Z" fill="#FFDCC1"/>
<path d="M71.81 0.999064C65.3271 5.49504 63.9604 9.61796 62.4999 13.3957C60.7334 17.9688 61.2722 20.7676 58.5169 23.1716C55.4734 25.8262 52.1595 24.7288 45.4824 25.7058C42.6619 26.1183 32.0492 27.6105 31.7235 30.05C31.5064 31.6842 35.7835 34.6626 57.7925 40.5502C53.174 47.932 52.2069 54.3269 51.9996 57.9289C51.7667 61.981 52.4931 62.504 52.724 62.6363C56.1958 64.6297 66.3249 46.7458 73.7225 48.8774C78.1673 50.1583 77.4232 57.4513 84.9471 61.5487C85.476 61.8369 91.0341 64.8074 92.9131 62.9975C96.7658 59.2849 81.0924 39.3798 84.9471 35.8429C85.8886 34.9804 87.1498 35.8626 94.3598 36.5673C100.354 37.1515 103.352 37.4456 103.773 36.5673C104.645 34.7514 84.6254 31.1652 82.0496 20.2741C81.0371 15.9911 83.3405 13.3542 81.3253 8.32517C79.6338 4.10534 75.3008 0.499512 73.8047 0.499512C72.3087 0.499512 71.81 0.999064 71.81 0.999064Z" fill="#E27B14"/>
<path d="M83.6347 68.4407C82.2689 69.1671 81.207 71.5671 80.0603 71.881C78.7932 72.2264 77.0997 71.5434 74.9306 72.3645C73.3654 72.9566 72.4378 75.6389 71.068 76.3475C69.3745 77.2258 67.2567 77.289 66.181 78.8818C63.0744 83.4766 65.7843 89.0425 66.1198 89.984C68.6344 97.0381 76.2984 101.224 82.7742 101.57C87.4381 101.818 88.8789 102.069 91.8356 103.018C98.6331 105.199 96.0732 113.795 102.687 117.502C108.985 121.029 120.547 116.819 122.239 110.984C124.061 104.704 113.247 100.654 113.187 89.2616C113.16 83.8516 115.589 82.9832 116.446 76.5903C117.678 67.4144 113.929 59.8452 111.014 54.1431C102.843 38.1519 86.2736 22.518 79.8767 25.9029C76.6734 27.5964 75.876 34.1334 77.3425 38.5743C79.2353 44.3099 86.171 44.3672 90.5586 52.3331C92.2106 55.3332 94.5317 60.4846 93.5744 64.2821C92.7889 67.3947 91.1901 66.9901 89.1552 67.8131C87.8427 68.344 86.5302 66.9072 83.6347 68.4467V68.4407Z" fill="#8C4A60"/>
<path d="M82.0514 31.3291C80.5396 32.6653 81.56 35.993 81.6902 36.3976C81.8343 36.8516 83.1903 40.9017 86.3976 41.105C89.3424 41.2905 92.0227 38.1148 91.8293 35.6733C91.5273 31.8837 84.2502 29.387 82.0534 31.3291H82.0514Z" fill="#E1E2C7"/>
<path d="M20.7734 67.7163C24.6558 69.1828 30.4348 70.8743 37.6093 71.2473C44.5075 71.6046 50.2313 70.6157 54.1729 69.619" stroke="#497A89" stroke-width="2.8" stroke-miterlimit="10" stroke-linecap="round"/>
<path d="M22.4019 75.5917C26.7362 76.5352 31.9527 77.3168 37.8798 77.4924C46.5702 77.751 53.9835 76.6259 59.6027 75.3193" stroke="#497A89" stroke-width="2.8" stroke-miterlimit="10" stroke-linecap="round"/>
<path d="M16.9702 85.4878C21.3045 84.5443 26.5211 83.7628 32.4482 83.5871C41.1385 83.3285 48.5518 84.4536 54.171 85.7602" stroke="#497A89" stroke-width="2.8" stroke-miterlimit="10" stroke-linecap="round"/>
</g>
<defs>
<clipPath id="clip0_1848_16030">
<rect width="137.636" height="118.893" fill="white"/>
</clipPath>
</defs>
</svg>
