<svg width="138" height="112" viewBox="0 0 138 112" fill="none" xmlns="http://www.w3.org/2000/svg">
<g clip-path="url(#clip0_1848_17248)">
<path d="M9.22473 29.4127C5.50438 35.2332 -2.7869 48.2026 0.944742 61.2606C4.03657 72.0791 12.2676 72.0565 18.7787 86.7385C24.4938 99.627 21.0915 106.277 27.0587 110.306C32.4821 113.966 37.834 110.192 52.5366 108.396C72.0755 106.01 74.5821 111.221 84.3845 108.396C104.49 102.604 120.431 73.052 113.046 56.8025C108.748 47.3427 100.175 50.378 86.2945 37.6946C68.0315 21.0048 72.6739 6.43198 60.1805 1.38683C44.2698 -5.03768 20.3707 11.9777 9.22473 29.4127Z" fill="#FFDCC1"/>
<path d="M51.3736 87.6771C49.0741 87.6771 46.7049 87.4098 44.3356 86.8641C35.6021 84.8543 28.2047 79.4347 24.5484 72.3666C17.1302 58.029 27.3297 43.0573 27.7681 42.4269C33.5717 34.0717 44.8738 26.3374 55.9766 29.0961C62.8339 30.8011 68.1481 36.3863 71.3435 45.2496C73.6619 51.676 74.4786 58.7818 74.4767 62.9142C74.4767 64.5778 74.4729 68.4712 72.6852 73.0892C71.0424 77.3365 68.2178 81.3937 65.4929 83.4279C61.7594 86.213 56.7594 87.6771 51.3755 87.6771H51.3736ZM51.2363 32.2839C43.1313 32.2839 35.2559 38.2418 30.8581 44.5741C30.764 44.7096 21.5036 58.2906 27.8905 70.6372C31.0463 76.7362 37.5103 81.4313 45.1787 83.1983C52.0323 84.7753 58.7861 83.7347 63.2385 80.4132C65.0394 79.0696 67.5723 75.8649 69.1718 71.7324C70.7055 67.7674 70.7093 64.3651 70.7093 62.9124C70.7149 55.6053 67.9167 35.9441 55.0658 32.7506C53.7918 32.4345 52.5103 32.2858 51.2344 32.2858L51.2363 32.2839Z" fill="#E27B14"/>
<path d="M128.748 101.915C127.153 101.915 125.711 101.736 124.797 101.621C116.074 100.535 110.389 95.3604 105.374 90.7951C104.127 89.6585 102.949 88.5878 101.735 87.5753C93.6487 80.8384 83.1802 76.3597 70.6172 74.2671L68.645 73.9378L71.0575 63.4316L72.8208 63.7459C84.6781 65.8611 95.7225 68.4392 104.757 71.1998C120.666 76.0605 130.67 81.5366 134.494 87.4775C135.863 89.6077 139.074 94.5945 136.898 98.4184C135.269 101.284 131.737 101.913 128.748 101.913V101.915ZM73.2047 70.9043C85.5682 73.2415 95.9709 77.8727 104.145 84.6849C105.423 85.7481 106.686 86.8998 107.909 88.0119C112.736 92.406 117.727 96.9487 125.261 97.8858C129.977 98.4729 132.792 98.0251 133.628 96.5572C134.324 95.3341 133.551 92.9649 131.33 89.5136C126.112 81.4049 105.233 73.5069 73.9254 67.7711L73.2065 70.9043H73.2047Z" fill="#E27B14"/>
<path d="M35.047 51.2499C34.6763 51.2499 34.3037 51.1407 33.9763 50.913C33.1219 50.3202 32.9112 49.1479 33.504 48.2935C34.7328 46.5227 38.2687 42.2774 44.5521 41.0975C51.7858 39.7407 57.1471 43.4742 58.6187 44.6503C59.4297 45.2996 59.5615 46.4832 58.9141 47.2962C58.2649 48.1072 57.0812 48.2389 56.2683 47.5916C55.4459 46.933 51.05 43.7094 45.2465 44.799C40.1938 45.7474 37.3466 49.3567 36.5958 50.4407C36.2307 50.9676 35.6436 51.2499 35.0489 51.2499H35.047Z" fill="#E27B14"/>
<path d="M13.4231 34.6844C9.20594 36.9087 7.70801 41.0543 6.17433 45.2997C5.34445 47.5974 4.6049 49.7144 4.87964 52.5484C5.31999 57.093 8.0298 60.055 8.76371 60.8341C13.8277 66.2104 21.0256 65.5668 21.7087 65.4934C22.7287 65.3843 29.7121 64.6429 32.324 59.5394C33.7712 56.711 32.7719 53.0791 30.7715 45.8172C29.1268 39.8462 28.2593 36.8259 26.1122 35.2018C22.4991 32.4713 17.1171 32.7367 13.4268 34.6844H13.4231Z" fill="#497A89"/>
<path d="M19.1175 52.3579C18.1315 52.3579 17.3035 51.5902 17.2414 50.5928L16.7239 42.3072C16.6599 41.2703 17.4465 40.3764 18.4852 40.3124C19.5202 40.2466 20.416 41.0351 20.48 42.0738L20.9975 50.3594C21.0614 51.3963 20.2748 52.2902 19.2361 52.3542C19.1966 52.3561 19.157 52.3579 19.1175 52.3579Z" fill="#E27B14"/>
<path d="M19.5577 57.8706C19.0158 57.8706 18.4757 57.626 18.0504 57.1819C17.5724 56.6813 17.3297 56.017 17.42 55.4506C17.467 55.1514 17.6044 54.871 17.8265 54.6188L17.8886 54.5492L17.9676 54.5003C18.7297 54.0279 19.5973 53.8661 20.3481 54.0618C20.8487 54.1916 21.2382 54.4683 21.4471 54.8409C21.7218 55.3302 21.6879 56.0302 21.3624 56.6644C21.0161 57.3399 20.4177 57.7859 19.7591 57.8612C19.6913 57.8687 19.6236 57.8725 19.5559 57.8725L19.5577 57.8706ZM18.7297 55.5259C18.7015 55.5691 18.6827 55.6105 18.677 55.6482C18.6545 55.7931 18.7486 56.0716 18.9706 56.3012C19.0666 56.4009 19.3206 56.6286 19.618 56.5947C19.8927 56.5627 20.1148 56.3087 20.2314 56.081C20.3857 55.7818 20.3763 55.5277 20.3368 55.4581C20.3142 55.4167 20.2126 55.3377 20.0301 55.2906C19.6462 55.1909 19.1663 55.2793 18.7279 55.5259H18.7297Z" fill="#E27B14"/>
</g>
<defs>
<clipPath id="clip0_1848_17248">
<rect width="137.636" height="111.848" fill="white"/>
</clipPath>
</defs>
</svg>
