<svg width="103" height="96" viewBox="0 0 103 96" fill="none" xmlns="http://www.w3.org/2000/svg">
<g clip-path="url(#clip0_1479_6133)">
<path d="M47.149 56.7183H8.70443C5.09758 56.7183 2.17366 59.6568 2.17366 63.2816V63.2841C2.17366 66.909 5.09758 69.8475 8.70443 69.8475H47.149C50.7559 69.8475 53.6798 66.909 53.6798 63.2841V63.2816C53.6798 59.6568 50.7559 56.7183 47.149 56.7183Z" fill="#FDF8EA"/>
<path d="M47.149 69.1875C41.1794 69.1875 35.2074 69.1875 29.2378 69.1875C22.4717 69.1875 15.7033 69.2392 8.93724 69.1875C6.75623 69.1703 4.76391 68.1827 3.63175 66.2617C1.89674 63.3211 3.13673 59.4077 6.18769 57.9423C8.15795 56.9966 10.9222 57.3734 13.0468 57.3734C21.4229 57.3734 29.8014 57.3734 38.1775 57.3734H46.5339C47.9969 57.3734 49.3864 57.6148 50.6068 58.5063C53.3857 60.5357 53.8121 64.6338 51.538 67.2123C50.4156 68.4856 48.8277 69.1407 47.1515 69.1851C46.3085 69.2072 46.306 70.5248 47.1515 70.5027C50.1755 70.4214 52.8981 68.5964 53.9248 65.6903C54.9198 62.8729 54.0351 59.6269 51.7389 57.7207C49.357 55.7455 46.4261 56.0558 43.5638 56.0558C34.5678 56.0558 25.5717 56.0558 16.5757 56.0558C13.9928 56.0558 11.405 56.0115 8.82206 56.0558C3.26416 56.1494 -0.495016 62.3557 2.67848 67.2123C4.04835 69.3057 6.31267 70.4534 8.77795 70.5027C9.57684 70.5199 10.3782 70.5027 11.1771 70.5027H23.1236C30.9801 70.5027 38.8465 70.6283 46.7006 70.5027C46.85 70.5027 46.9995 70.5027 47.1466 70.5027C47.9896 70.5027 47.992 69.1851 47.1466 69.1851L47.149 69.1875Z" fill="#231F20"/>
<path d="M47.149 43.5889H8.70443C5.09758 43.5889 2.17366 46.5274 2.17366 50.1522V50.1547C2.17366 53.7796 5.09758 56.7181 8.70443 56.7181H47.149C50.7559 56.7181 53.6798 53.7796 53.6798 50.1547V50.1522C53.6798 46.5274 50.7559 43.5889 47.149 43.5889Z" fill="#FDF8EA"/>
<path d="M47.149 56.0581C41.1794 56.0581 35.2074 56.0581 29.2378 56.0581C22.4717 56.0581 15.7033 56.1098 8.93724 56.0581C6.75623 56.0409 4.76391 55.0533 3.63175 53.1323C1.89674 50.1917 3.13673 46.2783 6.18769 44.813C8.15795 43.8672 10.9222 44.244 13.0468 44.244C21.4229 44.244 29.8014 44.244 38.1775 44.244C40.9638 44.244 43.7476 44.244 46.5339 44.244C47.9969 44.244 49.3864 44.4854 50.6068 45.3769C53.3857 47.4063 53.8121 51.5044 51.538 54.083C50.4156 55.3562 48.8277 56.0113 47.1515 56.0557C46.3085 56.0778 46.306 57.3954 47.1515 57.3733C50.1755 57.292 52.8981 55.4671 53.9248 52.5609C54.9198 49.7435 54.0351 46.4975 51.7389 44.5913C49.357 42.6161 46.4261 42.9264 43.5638 42.9264C34.5678 42.9264 25.5717 42.9264 16.5757 42.9264C13.9928 42.9264 11.405 42.8821 8.82206 42.9264C3.26416 43.02 -0.495016 49.2263 2.67848 54.083C4.04835 56.1763 6.31267 57.324 8.77795 57.3733C9.57684 57.3905 10.3782 57.3733 11.1771 57.3733C15.1592 57.3733 19.1414 57.3733 23.1236 57.3733C30.9801 57.3733 38.8465 57.4989 46.7006 57.3733C46.85 57.3733 46.9995 57.3733 47.1466 57.3733C47.9896 57.3733 47.992 56.0557 47.1466 56.0557L47.149 56.0581Z" fill="#231F20"/>
<path d="M94.695 33.8019C97.6651 34.9446 100.951 33.8955 102.87 31.4007C103.385 30.7308 102.248 30.0732 101.738 30.7357C100.162 32.7872 97.4151 33.4448 95.0454 32.5335C94.2563 32.2306 93.9157 33.5039 94.6974 33.8044L94.695 33.8019Z" fill="#231F20"/>
<path d="M29.4461 43.5889C29.25 43.5889 31.0635 38.1313 31.2791 37.6732C32.2887 35.5158 33.492 33.3732 35.075 31.5852C38.2485 27.9944 43.0982 26.8024 47.7151 27.0487C52.9446 27.327 57.4316 30.6518 62.0387 33.154C66.6458 35.6562 72.5443 37.3383 76.9259 34.4543C78.9599 33.1146 80.32 30.9941 81.8957 29.1322C83.4714 27.2728 85.5397 25.539 87.9706 25.4946C91.323 25.4306 93.8079 28.4771 95.7439 31.2256C95.7439 31.2256 99.5104 33.4815 95.7439 35.1907C95.7439 35.1907 87.1154 35.4739 83.5449 39.7838C82.5279 41.0128 81.3688 42.1211 80.0063 42.9486C76.5142 45.0715 69.9908 47.3693 61.1614 43.249C61.1614 43.249 46.7937 33.5554 44.3358 43.5889C44.3358 43.5889 29.451 43.5889 29.4485 43.5889H29.4461Z" fill="#FDF8EA"/>
<path d="M29.9092 43.1236C30.2866 43.5719 30.0685 43.5793 30.2376 42.9512C30.3356 42.5867 30.4484 42.2247 30.5611 41.8627C30.865 40.8751 31.1884 39.8924 31.5242 38.9147C32.3549 36.5011 33.7934 34.0039 35.5357 32.0509C39.8095 27.2632 47.2887 26.6622 52.952 28.9945C58.8554 31.4253 63.7859 36.0135 70.3829 36.575C73.1398 36.809 75.8967 36.1761 78.0777 34.4151C80.5748 32.3981 82.001 29.3295 84.606 27.4331C87.6325 25.2289 90.6908 26.3174 93.0556 28.8689C93.8986 29.7777 94.5137 30.9869 95.4253 31.8021C95.8762 32.206 96.751 32.6222 96.7559 33.334C96.7657 34.8067 94.4279 34.622 93.5187 34.7427C91.5093 35.0136 89.5145 35.4618 87.6325 36.2302C85.3436 37.1636 83.888 38.533 82.2093 40.2914C80.4915 42.0917 78.3203 43.3182 75.9677 44.0644C71.2847 45.5495 65.494 45.0151 61.2275 42.5129C56.1426 39.5279 45.985 34.6688 43.6961 43.4142C43.9069 43.2542 44.1176 43.0916 44.3284 42.9315C39.366 42.9315 34.4036 42.9315 29.4412 42.9315C28.5982 42.9315 28.5957 44.2491 29.4412 44.2491C34.4036 44.2491 39.366 44.2491 44.3284 44.2491C44.6127 44.2491 44.8871 44.0447 44.9606 43.7664C45.4826 41.774 46.6417 40.1978 48.7321 39.8038C50.5823 39.4565 52.5476 39.954 54.2924 40.5549C55.9172 41.114 57.4733 41.8627 58.973 42.7025C59.7498 43.1384 60.4801 43.6704 61.2937 44.0349C66.5551 46.3967 72.532 47.0124 77.9257 44.7392C80.3445 43.7196 82.2633 42.2149 84.0007 40.252C85.721 38.3064 88.1201 37.2868 90.5854 36.6465C92.2297 36.2204 93.8667 36.0775 95.538 35.8608C96.952 35.6786 98.4419 34.2969 97.9567 32.7651C97.7239 32.0262 97.126 31.4376 96.528 30.982C95.7953 30.4229 95.364 29.5807 94.7661 28.8492C92.9845 26.6696 90.5535 24.6009 87.5589 24.857C84.5692 25.1131 82.3711 27.4577 80.6042 29.6693C78.2713 32.5877 75.9751 35.1417 72.0003 35.2993C64.95 35.5801 59.4656 30.2432 53.295 27.7237C47.1245 25.2043 38.844 26.0662 34.3105 31.4573C32.4529 33.6665 31.0267 36.2647 30.1053 38.9984C29.7475 40.0599 29.3971 41.1238 29.0834 42.1976C28.9217 42.7493 28.5492 43.5423 28.978 44.0521C29.522 44.6998 30.4459 43.764 29.9043 43.1212L29.9092 43.1236Z" fill="#231F20"/>
<path d="M89.3944 31.3787C90.0454 31.3787 90.5732 30.8185 90.5732 30.1276C90.5732 29.4366 90.0454 28.8765 89.3944 28.8765C88.7434 28.8765 88.2157 29.4366 88.2157 30.1276C88.2157 30.8185 88.7434 31.3787 89.3944 31.3787Z" fill="#231F20"/>
<mask id="mask0_1479_6133" style="mask-type:luminance" maskUnits="userSpaceOnUse" x="29" y="25" width="69" height="21">
<path d="M29.4461 43.5889C29.25 43.5889 31.0635 38.1313 31.2791 37.6732C32.2887 35.5158 33.492 33.3732 35.075 31.5852C38.2485 27.9944 43.0982 26.8024 47.7151 27.0487C52.9446 27.327 57.4316 30.6518 62.0387 33.154C66.6458 35.6562 72.5443 37.3383 76.9259 34.4543C78.9599 33.1146 80.32 30.9941 81.8957 29.1322C83.4714 27.2728 85.5397 25.539 87.9706 25.4946C91.323 25.4306 93.8079 28.4771 95.7439 31.2256C95.7439 31.2256 99.5104 33.4815 95.7439 35.1907C95.7439 35.1907 87.1154 35.4739 83.5449 39.7838C82.5279 41.0128 81.3688 42.1211 80.0063 42.9486C76.5142 45.0715 69.9908 47.3693 61.1614 43.249C61.1614 43.249 46.7937 33.5554 44.3358 43.5889C44.3358 43.5889 29.451 43.5889 29.4485 43.5889H29.4461Z" fill="white"/>
</mask>
<g mask="url(#mask0_1479_6133)">
<path d="M53.246 25.1844C54.3561 25.9848 53.398 27.9625 52.9226 29.2505C52.4471 30.5386 51.4841 31.6838 50.2049 32.1665C48.7762 32.7058 47.176 32.3758 45.6738 32.6467C44.2745 32.8979 42.983 33.6688 41.5642 33.7501C39.8929 33.8461 38.2608 32.9324 37.2364 31.6025C36.2121 30.2726 35.7391 28.5782 35.6313 26.901C35.6313 26.901 46.8574 20.5716 53.2485 25.1869L53.246 25.1844Z" fill="#231F20"/>
<path d="M73.6593 47.7143C73.3285 46.6849 72.9535 45.5889 72.0934 44.9363C71.4342 44.4364 70.5814 44.2738 69.8634 43.8625C68.6846 43.1877 67.9887 41.9268 67.0673 40.9269C65.6533 39.395 63.5384 38.4468 61.4775 38.7251C59.4166 39.0034 57.5296 40.6535 57.2454 42.7222L65.6533 48.9014L73.6593 47.7143Z" fill="#231F20"/>
<path d="M81.7633 23.7881C83.7164 24.9161 84.9246 27.2336 84.7334 29.4895C84.5423 31.7454 82.9617 33.824 80.8444 34.5998C78.7271 35.3781 76.1858 34.8141 74.593 33.2157L81.7633 23.7881Z" fill="#231F20"/>
</g>
<mask id="mask1_1479_6133" style="mask-type:luminance" maskUnits="userSpaceOnUse" x="2" y="43" width="52" height="14">
<path d="M47.5117 43.5894H8.21922C4.84651 43.5894 2.11239 46.3371 2.11239 49.7267V50.5813C2.11239 53.9708 4.84651 56.7186 8.21922 56.7186H47.5117C50.8844 56.7186 53.6185 53.9708 53.6185 50.5813V49.7267C53.6185 46.3371 50.8844 43.5894 47.5117 43.5894Z" fill="white"/>
</mask>
<g mask="url(#mask1_1479_6133)">
<path d="M15.2842 39.708C15.6543 40.6981 16.0292 41.7004 16.1566 42.7521C16.2841 43.8037 16.1468 44.9218 15.5611 45.8035C14.8725 46.8379 13.684 47.3994 12.7111 48.1702C12.2137 48.5667 11.7505 49.0347 11.1575 49.2613C10.5742 49.4854 9.92237 49.4534 9.30482 49.3573C5.93039 48.8401 2.90148 46.4512 1.60022 43.2791L15.2842 39.7056V39.708Z" fill="#231F20"/>
<path d="M52.9005 58.5483C54.6429 57.5262 54.9982 54.9132 53.9273 53.1966C52.8564 51.48 50.7317 50.6402 48.7149 50.6624C47.497 50.6747 46.2962 50.9579 45.0807 51.022C42.2381 51.1722 39.3317 50.1427 36.5821 50.8816C35.9107 51.0614 35.2466 51.3618 34.7908 51.8864C34.4036 52.3297 34.1953 52.8986 34.0164 53.4601C33.3572 55.5215 32.9822 57.674 32.9087 59.8388L52.9005 58.5483Z" fill="#231F20"/>
</g>
<mask id="mask2_1479_6133" style="mask-type:luminance" maskUnits="userSpaceOnUse" x="2" y="56" width="52" height="14">
<path d="M47.5117 56.7183H8.21922C4.84651 56.7183 2.11239 59.466 2.11239 62.8556V63.7102C2.11239 67.0997 4.84651 69.8475 8.21922 69.8475H47.5117C50.8844 69.8475 53.6185 67.0997 53.6185 63.7102V62.8556C53.6185 59.466 50.8844 56.7183 47.5117 56.7183Z" fill="white"/>
</mask>
<g mask="url(#mask2_1479_6133)">
<path d="M0 61.1663C4.97956 60.2575 10.29 61.3264 14.5392 64.0921C15.1298 64.4763 15.7106 64.9024 16.1174 65.4787C16.5757 66.1289 16.7791 66.9243 16.9751 67.6977C17.3697 69.2714 17.7691 70.8895 17.5682 72.5026L0 71.2958V61.1663Z" fill="#231F20"/>
<path d="M47.97 72.0866C48.3228 68.6066 46.0046 65.0356 42.6939 63.9568C41.2946 63.5012 39.7899 63.4569 38.3221 63.5702C37.4742 63.6367 36.6165 63.7549 35.8372 64.0997C35.075 64.4346 34.4158 64.974 33.8351 65.57C32.4064 67.0354 31.3918 68.9046 30.9385 70.9044L47.97 72.089V72.0866Z" fill="#231F20"/>
</g>
</g>
<defs>
<clipPath id="clip0_1479_6133">
<rect width="103" height="49" fill="white" transform="translate(0 23.5)"/>
</clipPath>
</defs>
</svg>
