<svg width="98" height="96" viewBox="0 0 98 96" fill="none" xmlns="http://www.w3.org/2000/svg">
<g clip-path="url(#clip0_1479_5584)">
<path d="M97.505 48.2368V51.8484H66.9674L66.3398 95.6334L61.4633 95.5938L62.0909 51.8484H33.1352V48.2368H97.505Z" fill="#FDF8EA"/>
<path d="M97.0101 48.2367V51.8483L97.505 51.4817H66.9674C66.6981 51.4817 66.4744 51.6503 66.4724 51.8483C66.4011 56.7899 66.3299 61.73 66.2606 66.6716C66.1477 74.5356 66.0349 82.3996 65.922 90.2636C65.8963 92.0525 65.8705 93.8429 65.8448 95.6318L66.3398 95.2652C64.7143 95.252 63.0888 95.2388 61.4633 95.2256L61.9583 95.5922C62.0296 90.6551 62.1008 85.7193 62.1701 80.7822C62.283 72.9255 62.3958 65.0674 62.5087 57.2107C62.5344 55.4232 62.5602 53.6343 62.5859 51.8468C62.5879 51.6489 62.3562 51.4803 62.0909 51.4803H33.1352C33.2996 51.602 33.4659 51.7251 33.6302 51.8468V48.2352C33.4659 48.3569 33.2996 48.4801 33.1352 48.6018H97.505C98.1425 48.6018 98.1425 47.8687 97.505 47.8687H33.1352C32.8679 47.8687 32.6403 48.0373 32.6403 48.2352V51.8468C32.6403 52.0448 32.8679 52.2134 33.1352 52.2134H62.0909C61.9266 52.0917 61.7603 51.9685 61.596 51.8468C61.5247 56.784 61.4534 61.7197 61.3841 66.6569C61.2713 74.5136 61.1584 82.3717 61.0456 90.2284C61.0198 92.0158 60.9941 93.8048 60.9684 95.5922C60.9664 95.7917 61.198 95.9574 61.4633 95.9588C63.0888 95.972 64.7143 95.9852 66.3398 95.9984C66.609 95.9999 66.8328 95.8283 66.8347 95.6318C66.906 90.6903 66.9773 85.7502 67.0466 80.8086C67.1594 72.9446 67.2723 65.0806 67.3851 57.2166C67.4109 55.4276 67.4366 53.6372 67.4624 51.8483C67.298 51.97 67.1317 52.0932 66.9674 52.2149H97.505C97.7723 52.2149 98 52.0463 98 51.8483V48.2367C98 47.7645 97.0101 47.7645 97.0101 48.2367Z" fill="#231F20"/>
<path d="M42.0546 49.1183C50.7819 50.4292 60.5071 50.9967 67.9771 47.4071C73.2476 44.8747 76.6015 40.571 78.3081 36.0928C80.0148 31.6146 80.2484 26.9105 80.484 22.2608C80.5078 21.8106 80.5434 21.3311 80.8978 20.9645C81.9986 19.8281 85.0872 20.944 87.2829 20.7973C86.7682 19.8516 85.1942 18.3046 84.4062 17.2605C83.0539 15.4672 83.4657 13.2237 82.8658 11.2177C81.5334 6.75858 76.4273 3.04873 70.3827 2.14546C64.3381 1.2422 57.6897 3.19537 54.1279 6.92281L30.2565 39.219L0.49498 73.7514C0.49498 73.7514 11.4833 73.0915 18.6109 65.8331L13.2652 72.6516C13.2652 72.6516 22.4716 75.0711 27.5203 65.3932L37.9147 48.2385L42.0566 49.1198L42.0546 49.1183Z" fill="#FDF8EA"/>
<path d="M41.9239 49.4716C50.8274 50.7972 61.1842 51.4893 68.9928 47.3366C76.9994 43.0798 79.698 35.5897 80.5137 28.6833C80.6444 27.5688 80.7375 26.4515 80.8107 25.3327C80.8879 24.164 80.7177 22.8208 81.0463 21.6756C81.3552 20.6037 82.8242 20.7782 83.9508 20.9028C85.0595 21.026 86.1584 21.2122 87.2869 21.1609C87.6908 21.1433 87.865 20.8677 87.7145 20.6096C86.7899 19.0186 84.9586 17.7546 84.2834 16.08C83.5528 14.2691 83.836 12.3277 83.139 10.505C81.9432 7.37583 78.9536 4.6631 75.1364 3.07358C71.2202 1.44301 66.5556 1.14241 62.285 2.15272C58.9845 2.93428 55.4999 4.54872 53.6646 6.78929C52.0827 8.72047 50.7205 10.7719 49.2574 12.7529C46.3984 16.6226 43.5375 20.4908 40.6786 24.3605C38.0176 27.9589 35.3586 31.5588 32.6977 35.1572C31.7176 36.4842 30.801 37.8538 29.7358 39.1456C25.1346 44.7221 20.2304 50.174 15.4827 55.6816C10.43 61.5425 5.37933 67.4035 0.326685 73.2645C0.24155 73.3642 0.154436 73.4639 0.069301 73.5636C-0.122747 73.7865 0.124738 74.1384 0.496955 74.115C2.78767 73.9727 5.09225 73.4434 7.20874 72.807C11.9367 71.3832 16.0093 69.0619 19.0385 66.0163L18.1832 65.6468C16.4013 67.9197 14.6194 70.1925 12.8375 72.4653C12.6673 72.6809 12.8356 72.9258 13.1325 73.0035C14.8214 73.4419 16.8626 73.3569 18.5574 73.0181C23.0062 72.1266 25.8988 69.1836 27.6153 66.182C30.0308 61.9604 32.6561 57.8004 35.1923 53.617C36.2417 51.8852 37.291 50.1535 38.3403 48.4217C38.1542 48.4774 37.9681 48.5346 37.782 48.5903C39.162 48.8836 40.5439 49.1783 41.9239 49.4716C42.5377 49.6021 42.799 48.8953 42.1872 48.7648C40.8073 48.4716 39.4253 48.1768 38.0453 47.8836C37.8533 47.8425 37.5741 47.907 37.487 48.0522C35.1092 51.9776 32.7313 55.9015 30.3535 59.8269C29.3022 61.5616 28.2331 63.2919 27.1996 65.0324C25.5622 67.7906 23.6358 70.6177 19.7354 71.9316C17.8506 72.5665 15.3995 72.8172 13.3978 72.2982C13.4968 72.4771 13.5958 72.6574 13.6928 72.8363C15.4747 70.5635 17.2566 68.2906 19.0385 66.0178C19.3652 65.5999 18.5534 65.2758 18.1832 65.6483C15.2371 68.6103 11.1804 70.8831 6.55538 72.2175C4.6448 72.7689 2.53425 73.2586 0.496955 73.3847L0.924608 73.9361C5.14373 69.0414 9.36285 64.1468 13.582 59.2521C18.993 52.9732 24.406 46.6958 29.817 40.4169C30.5574 39.5562 31.2187 38.6881 31.882 37.7922L38.568 28.7478C43.5989 21.941 48.6318 15.1328 53.6626 8.32602C54.1378 7.68376 54.5536 7.07083 55.1891 6.50482C58.1827 3.83461 62.8512 2.26563 67.5277 2.29495C72.2022 2.32281 76.6054 4.07803 79.4723 6.78196C80.878 8.109 81.9095 9.66626 82.3966 11.3159C82.945 13.1737 82.6302 15.1562 83.6538 16.9364C84.4834 18.3793 86.0237 19.5391 86.8612 20.982C87.0038 20.7987 87.1463 20.614 87.2889 20.4307C85.4713 20.5128 83.5627 19.8192 81.767 20.1477C79.6683 20.5319 79.9891 22.4205 79.9217 23.6566C79.698 27.8005 79.3634 31.984 77.835 35.9944C76.5738 39.3025 74.4315 42.5006 71.1766 44.9817C67.8267 47.5346 63.4254 48.9921 58.7054 49.5141C53.2171 50.1197 47.5864 49.5684 42.1892 48.7648C41.5675 48.6724 41.3003 49.3792 41.9259 49.4716H41.9239Z" fill="#231F20"/>
<path d="M47.9051 12.7354C49.3861 12.0697 51.0096 11.7383 52.7934 12.0081C59.0162 12.9495 63.4135 18.2738 64.1045 22.8239C64.7776 27.2625 62.6671 31.8082 58.9964 35.2614C56.8502 37.2791 54.209 38.9434 51.2947 40.2734C49.1841 41.2368 46.8736 39.2425 48.3585 37.7337C48.3744 37.719 48.3882 37.7029 48.404 37.6882C45.1452 40.0534 41.2428 41.8717 37.0396 43.0448C31.4999 44.5903 26.079 40.505 27.948 36.1852C27.9539 36.172 27.9579 36.1617 27.9618 36.1515C30.7891 29.8022 34.8973 24.0292 40.3935 18.8237C42.3793 16.9424 44.8343 14.1167 47.9091 12.734L47.9051 12.7354Z" fill="#F9D3E3"/>
<path d="M76.6253 15.5185C77.4639 15.5185 78.1438 14.9933 78.1438 14.3454C78.1438 13.6976 77.4639 13.1724 76.6253 13.1724C75.7866 13.1724 75.1067 13.6976 75.1067 14.3454C75.1067 14.9933 75.7866 15.5185 76.6253 15.5185Z" fill="#231F20"/>
<path d="M83.5429 15.8C82.3926 15.8249 81.7788 16.9452 81.4403 17.6256C80.9532 18.6036 80.8919 19.6359 81.169 20.6536C81.2938 21.1155 82.2501 20.9205 82.1233 20.4586C81.9333 19.762 81.9353 19.0626 82.1649 18.3705C82.2798 18.023 82.8618 16.5478 83.5449 16.5332C84.1804 16.52 84.1824 15.7868 83.5449 15.8H83.5429Z" fill="#231F20"/>
<path d="M72.2893 2.26865C72.4616 1.60733 72.8991 1.05012 73.5901 0.611679C74.0752 0.303747 73.3723 -0.212406 72.8892 0.0925936C72.0834 0.604347 71.537 1.29939 71.335 2.07216C71.2142 2.53259 72.1685 2.73054 72.2893 2.26718V2.26865Z" fill="#231F20"/>
<path d="M73.6772 3.02248C74.5385 2.38609 75.5244 1.88753 76.6312 1.51655C77.2113 1.32152 76.7084 0.689528 76.1323 0.883085C74.9523 1.279 73.895 1.82741 72.9783 2.50339C72.5269 2.83772 73.2258 3.35534 73.6792 3.02248H73.6772Z" fill="#231F20"/>
<path d="M19.0365 66.0181C23.2774 60.3756 27.5183 54.7346 31.7572 49.0921C32.3591 48.2914 32.959 47.4923 33.5609 46.6917C33.8718 46.2796 33.0165 45.9086 32.7056 46.3221C28.4647 51.9646 24.2238 57.6057 19.9849 63.2481C19.383 64.0488 18.7831 64.8479 18.1812 65.6485C17.8704 66.0606 18.7257 66.4316 19.0365 66.0181Z" fill="#231F20"/>
<path d="M50.0097 40.1367C48.2457 39.3097 47.8853 37.6381 47.8616 36.2069C47.8299 34.3535 48.2278 32.5176 48.9584 30.7477C49.1227 30.3489 48.3308 30.104 48.0536 30.4647C46.9013 31.9648 44.9313 33.3256 42.4902 33.4341C40.3222 33.5309 38.1265 32.5176 37.6553 30.9046C37.5484 30.538 36.8336 30.5732 36.701 30.9046C35.721 33.3461 32.0364 34.8418 28.73 34.1555C28.1162 34.0279 27.8529 34.7347 28.4667 34.8623C32.2958 35.657 36.5228 33.9194 37.6553 31.0997H36.701C37.2435 32.956 39.7243 34.1834 42.2268 34.1731C45.1214 34.1614 47.5428 32.6129 48.9089 30.8357C48.608 30.7419 48.3051 30.648 48.0041 30.5527C47.1805 32.5543 46.7033 34.7201 46.9053 36.8169C47.0518 38.3463 47.6755 39.908 49.5128 40.7687C50.0533 41.0224 50.5502 40.3875 50.0117 40.1353L50.0097 40.1367Z" fill="#231F20"/>
<path d="M70.3114 20.5113C70.0323 20.9981 69.6917 21.4585 69.2878 21.894C68.9275 22.2841 69.7848 22.6507 70.1431 22.2636C70.547 21.828 70.8876 21.3676 71.1667 20.8808C71.2717 20.6975 71.24 20.4907 70.9885 20.3793C70.7826 20.2869 70.4164 20.3294 70.3114 20.5113Z" fill="#231F20"/>
<path d="M72.3012 21.098C72.1626 21.5965 71.9646 22.079 71.7052 22.5511C71.6043 22.7359 71.8161 22.9514 72.0517 23.0028C72.3348 23.0629 72.5605 22.9294 72.6615 22.7461C72.9209 22.2754 73.1189 21.7916 73.2575 21.293C73.3861 20.8326 72.4318 20.6361 72.3032 21.098H72.3012Z" fill="#231F20"/>
<path d="M67.2208 38.1984V39.4697C67.2208 39.9418 68.2108 39.9418 68.2108 39.4697V38.1984C68.2108 37.7262 67.2208 37.7262 67.2208 38.1984Z" fill="#231F20"/>
<path d="M68.676 37.9052C68.6048 38.3436 68.7315 38.7747 69.0027 39.1647C69.2938 39.5841 70.1491 39.2146 69.858 38.7952C69.662 38.5137 69.6145 38.2175 69.666 37.9052C69.6976 37.7087 69.4145 37.5386 69.171 37.5386C68.876 37.5386 68.7077 37.7072 68.676 37.9052Z" fill="#231F20"/>
<path d="M53.7082 44.561C52.9716 44.7913 52.2807 45.0684 51.6352 45.4174C51.1264 45.6931 51.6194 46.3294 52.1342 46.0508C52.7063 45.7414 53.3181 45.4716 53.9715 45.2678C54.219 45.1901 54.3912 45.0259 54.318 44.8162C54.2566 44.6432 53.9556 44.4833 53.7082 44.5596V44.561Z" fill="#231F20"/>
<path d="M55.4524 45.407C55.0525 45.5976 54.6506 45.7868 54.2506 45.9774C53.7161 46.2311 54.211 46.866 54.7496 46.6109C55.1495 46.4202 55.5514 46.2311 55.9513 46.0404C56.4859 45.7868 55.9909 45.1518 55.4524 45.407Z" fill="#231F20"/>
<path d="M66.9238 6.354H65.4726C64.8351 6.354 64.8351 7.08718 65.4726 7.08718H66.9238C67.5614 7.08718 67.5614 6.354 66.9238 6.354Z" fill="#231F20"/>
<path d="M67.0545 7.35992C66.7041 7.49335 66.3536 7.62679 66.0052 7.76023C65.7676 7.85114 65.6983 8.09749 65.827 8.26172C65.9676 8.44061 66.2665 8.4846 66.5041 8.39369C66.8545 8.26025 67.205 8.12681 67.5534 7.99338C67.791 7.90246 67.8603 7.65612 67.7316 7.49189C67.5911 7.31299 67.2921 7.269 67.0545 7.35992Z" fill="#231F20"/>
<path d="M37.6533 31.1014C38.1681 29.7304 38.9185 28.3946 39.7045 27.0998C41.6546 23.8826 44.1196 20.8224 47.0538 18.0451C49.1881 16.0245 51.5778 14.1593 54.1912 12.473C54.6723 12.1622 53.9695 11.646 53.4904 11.9539C46.2638 16.6169 40.6429 22.755 37.3623 29.4254C37.1227 29.9137 36.8851 30.4064 36.699 30.9064C36.5287 31.3625 37.483 31.556 37.6533 31.1014Z" fill="#231F20"/>
<path d="M48.9069 30.8359C50.6373 29.0719 52.1203 27.151 53.4488 25.2095C55.886 21.6522 57.8718 17.7664 58.0876 13.7427C58.1134 13.2706 57.1234 13.272 57.0977 13.7427C56.8819 17.759 54.8268 21.6493 52.3559 25.1817C51.0828 27.0014 49.6791 28.805 48.0496 30.4649C47.6755 30.8476 48.5327 31.2127 48.905 30.8344L48.9069 30.8359Z" fill="#231F20"/>
</g>
<defs>
<clipPath id="clip0_1479_5584">
<rect width="98" height="96" fill="white"/>
</clipPath>
</defs>
</svg>
