<svg width="98" height="96" viewBox="0 0 98 96" fill="none" xmlns="http://www.w3.org/2000/svg">
<g clip-path="url(#clip0_1497_4901)">
<path d="M42.5852 64.3717H61.7483C61.7981 63.9786 61.8164 63.6086 61.8083 63.2606H76.2404C77.6892 58.4989 74.3083 57.2293 74.3083 57.2293C89.1229 47.2297 77.2069 20.2455 77.2069 20.2455C78.6557 15.8007 77.2069 9.13467 77.2069 9.13467V2.75742L69.9609 5.32477L53.9436 4.87548C52.1041 3.61086 50.0998 2.58091 47.9958 1.81773C47.8727 1.7726 47.7343 1.72848 47.6143 1.78163C47.4321 1.86186 47.4067 2.10054 47.4077 2.2971C47.4128 3.83551 47.7333 5.40399 47.422 6.91131C46.3394 12.1623 47.6753 15.1248 47.6753 15.1248C18.7562 23.1648 24.9156 51.7195 25.1853 52.9049C20.3057 55.3038 16.9299 60.4826 16.3479 65.8911C15.6775 72.1129 18.336 78.4099 22.6315 83.0171C29.4523 90.334 41.0417 93.486 50.1741 89.276C53.5835 87.7045 56.6785 85.0018 57.6623 81.4215C58.6472 77.8413 56.884 73.4407 53.3006 72.3054C51.689 71.795 49.9248 71.9614 48.3 71.4931C46.0546 70.8463 44.2995 69.025 43.277 66.9501C43.277 66.9501 42.8212 66.1518 42.5841 64.3707L42.5852 64.3717Z" fill="#FDF8EA"/>
<path d="M42.5852 64.6224H61.7483C61.8968 64.6224 61.9874 64.507 62.0026 64.3717C62.0453 64.0016 62.0667 63.6335 62.0626 63.2605C61.9782 63.3437 61.8927 63.428 61.8083 63.5112H76.2404C76.3533 63.5112 76.454 63.433 76.4856 63.3267C76.9709 61.683 77.094 59.7935 76.0369 58.3324C75.6259 57.7637 75.0449 57.2422 74.3755 56.9865C74.3958 57.139 74.4161 57.2924 74.4365 57.4448C78.3576 54.7772 80.6611 50.6384 81.5198 46.0773C82.3693 41.5664 81.9969 36.889 81.1393 32.4082C80.4749 28.9352 79.4941 25.5135 78.2559 22.198C78.089 21.7527 77.9181 21.3084 77.739 20.8682C77.6536 20.6586 77.4857 20.3968 77.4491 20.1732C77.447 20.1571 77.4277 20.1401 77.4277 20.125C77.4277 20.0949 77.4491 20.2303 77.4593 20.1501C77.447 20.2594 77.5417 20.0167 77.5518 19.9816C77.5844 19.8693 77.6149 19.757 77.6434 19.6437C77.8265 18.9216 77.9395 18.1825 78.0107 17.4424C78.1582 15.91 78.1206 14.3615 77.9863 12.8292C77.8927 11.7621 77.7533 10.697 77.562 9.64203C77.5284 9.45449 77.4745 9.26495 77.4521 9.07541C77.4633 9.16968 77.4603 9.10148 77.4593 9.0373C77.4593 8.92999 77.4593 8.82269 77.4593 8.71538V2.75733C77.4593 2.60489 77.2954 2.45948 77.1377 2.51564C74.8231 3.33598 72.5075 4.15633 70.1928 4.97668C70.0982 5.00977 69.9975 5.06092 69.8988 5.08098C70.0239 5.0549 69.8958 5.07295 69.8408 5.07095C69.5488 5.06192 69.2558 5.0549 68.9638 5.04588L65.1637 4.93957L55.9174 4.67983C55.4515 4.66679 54.9855 4.65376 54.5185 4.64072C54.3608 4.63671 54.0952 4.68083 53.9457 4.62467C54.1461 4.69989 53.3403 4.09616 53.7707 4.45619C53.6364 4.34387 53.4634 4.25361 53.3159 4.15934C53.0107 3.96478 52.7014 3.77624 52.388 3.59472C51.7094 3.2006 51.0125 2.83656 50.3013 2.5036C49.7336 2.23884 49.1567 1.99314 48.5727 1.7675C48.1545 1.60603 47.5288 1.2791 47.2419 1.81463C47.1066 2.06836 47.1503 2.41034 47.1595 2.68211C47.1737 3.1334 47.2104 3.5847 47.2409 4.03599C47.306 4.97869 47.3447 5.91035 47.1758 6.84503C46.9041 8.34833 46.7037 9.84361 46.7515 11.375C46.7912 12.6536 46.9255 14.0637 47.4545 15.2521C47.5054 15.1297 47.5563 15.0064 47.6061 14.884C42.7897 16.2319 38.1665 18.362 34.34 21.5822C31.3132 24.1295 28.8805 27.3176 27.2181 30.8808C25.7825 33.9556 24.9095 37.254 24.4934 40.6087C24.1628 43.2753 24.119 45.977 24.3337 48.6547C24.4069 49.5713 24.5117 50.4849 24.6511 51.3945C24.7213 51.8548 24.7498 52.3954 24.9095 52.8366C24.9248 52.8798 24.9299 52.9299 24.9401 52.975C24.9787 52.8808 25.0184 52.7865 25.0571 52.6922C18.6951 55.8573 15.3499 63.0539 16.1058 69.8955C16.8963 77.0539 21.4361 83.5435 27.5365 87.3715C33.1537 90.8956 40.2573 92.3979 46.7688 90.7431C50.0551 89.9087 53.263 88.265 55.5257 85.7298C57.643 83.357 58.7286 80.232 57.8831 77.1161C57.5056 75.7261 56.771 74.4014 55.6946 73.4185C54.4707 72.2993 52.9781 71.8641 51.3482 71.6876C50.2738 71.5713 49.1831 71.5221 48.1494 71.1852C47.2561 70.8933 46.4361 70.3979 45.7341 69.7841C44.7289 68.9056 43.8417 67.7463 43.3523 66.5037C43.0756 65.8007 42.9341 65.0486 42.8304 64.3055C42.7856 63.9875 42.2952 64.1229 42.34 64.4388C42.4977 65.5661 42.7785 66.6201 43.3411 67.6129C44.1164 68.9808 45.2142 70.2084 46.5836 71.0197C48.1708 71.9604 49.9248 72.0015 51.7094 72.2311C53.3983 72.4478 54.8624 73.1087 55.9551 74.4224C57.9411 76.8112 58.1517 80.2391 56.8056 82.9669C55.3029 86.0106 52.3392 88.1577 49.2218 89.4163C43.1071 91.8864 36.0432 91.1453 30.2052 88.2821C23.9216 85.2003 18.9515 79.5421 17.1649 72.8038C16.2584 69.383 16.2421 65.7416 17.3949 62.3759C18.4774 59.2149 20.5194 56.3206 23.2664 54.351C23.9145 53.8866 24.5992 53.4795 25.3135 53.1235C25.4172 53.0723 25.4539 52.9439 25.4305 52.8406C25.1771 51.7214 25.0276 50.5762 24.9126 49.4359C24.6633 46.9508 24.642 44.4406 24.8597 41.9525C25.1425 38.7192 25.8496 35.5121 27.0665 32.4924C28.4898 28.9603 30.6437 25.7341 33.4162 23.0875C36.8734 19.7871 41.1771 17.4805 45.7198 15.9812C46.3893 15.7605 47.0638 15.557 47.7425 15.3674C47.9144 15.3193 47.9602 15.1458 47.8941 14.9994C47.9348 15.0906 47.8483 14.878 47.832 14.8329C47.7537 14.6143 47.6885 14.3906 47.6306 14.166C47.4291 13.3827 47.3223 12.5774 47.2765 11.7711C47.2043 10.4874 47.2877 9.19475 47.4922 7.92512C47.6082 7.20506 47.7771 6.50305 47.8045 5.77196C47.833 4.99874 47.7587 4.22653 47.7089 3.45633C47.6865 3.11335 47.5787 2.63398 47.6611 2.29801C47.715 2.07738 47.713 2.06334 47.9276 2.06134C48.066 2.06033 48.3082 2.20274 48.4374 2.25188C49.1506 2.52767 49.8495 2.83555 50.5353 3.17352C51.221 3.51149 51.8223 3.84143 52.444 4.2135C52.7543 4.40003 53.0615 4.59258 53.3637 4.79115C53.5468 4.91149 53.7269 5.08499 53.9447 5.12811C54.5154 5.24244 55.2012 5.16321 55.7801 5.17926C58.7815 5.2635 61.7829 5.34774 64.7842 5.43198L68.6291 5.54029C69.0818 5.55333 69.6221 5.65061 70.0677 5.55433C70.5133 5.45806 70.9813 5.23041 71.4198 5.07496L73.8413 4.21751C74.9859 3.81235 76.1295 3.40719 77.2741 3.00103C77.1672 2.9208 77.0594 2.83956 76.9526 2.75933V7.48285C76.9526 8.02641 76.9037 8.59403 76.9526 9.13658C77.0014 9.67513 77.154 10.2187 77.2344 10.7542C77.6556 13.5693 77.8601 16.5849 77.1886 19.3759C77.1103 19.7008 76.9098 20.0689 76.9963 20.3938C77.0248 20.5021 77.0055 20.4129 77.0543 20.5302C77.1815 20.8321 77.3046 21.1359 77.4236 21.4398C78.5743 24.3652 79.5012 27.3838 80.2063 30.4436C81.2135 34.8141 81.7863 39.3631 81.3326 43.8419C80.8747 48.3628 79.1919 52.8126 75.6666 55.8753C75.1945 56.2855 74.697 56.6626 74.1801 57.0146C73.9909 57.143 74.0336 57.3937 74.2411 57.4729C74.1811 57.4498 74.2747 57.4869 74.3256 57.513C74.4385 57.5702 74.5494 57.6324 74.6552 57.7006C75.0195 57.9352 75.343 58.2401 75.5984 58.5881C76.5873 59.935 76.4428 61.6799 75.9952 63.1963L76.2404 63.0118H61.8083C61.672 63.0118 61.5529 63.1271 61.5539 63.2625C61.558 63.6355 61.5366 64.0026 61.4939 64.3737C61.5784 64.2904 61.6638 64.2062 61.7483 64.1229H42.5852C42.2576 64.1229 42.2576 64.6244 42.5852 64.6244V64.6224Z" fill="#231F20"/>
<path d="M61.9924 64.4373C62.2509 62.7886 61.7513 60.8601 60.3147 59.8683C59.4784 59.2906 58.5027 59.1201 57.5076 59.1201H51.1193C50.7917 59.1201 50.7917 59.6216 51.1193 59.6216H56.7527C57.5901 59.6216 58.3643 59.5754 59.1711 59.8532C60.331 60.2524 61.093 61.186 61.384 62.3433C61.499 62.7986 61.5438 63.269 61.5376 63.7373C61.5356 63.8807 61.5275 64.0242 61.5163 64.1676C61.5112 64.2297 61.4929 64.3651 61.502 64.304C61.4522 64.6199 61.9426 64.7552 61.9924 64.4373Z" fill="#231F20"/>
<path d="M58.6075 17.2796C60.6753 17.2796 62.3516 15.6272 62.3516 13.589C62.3516 11.5508 60.6753 9.89844 58.6075 9.89844C56.5397 9.89844 54.8634 11.5508 54.8634 13.589C54.8634 15.6272 56.5397 17.2796 58.6075 17.2796Z" fill="#F9D3E3"/>
<path d="M68.4327 17.2796C70.5005 17.2796 72.1768 15.6272 72.1768 13.589C72.1768 11.5508 70.5005 9.89844 68.4327 9.89844C66.3649 9.89844 64.6886 11.5508 64.6886 13.589C64.6886 15.6272 66.3649 17.2796 68.4327 17.2796Z" fill="#F9D3E3"/>
<path d="M58.5851 11.1177C58.5851 11.1177 57.4212 13.1415 58.5851 16.3156C58.5851 16.3156 59.8457 13.3791 58.5851 11.1177Z" fill="#231F20"/>
<path d="M68.4113 11.1177C68.4113 11.1177 67.2474 13.1415 68.4113 16.3156C68.4113 16.3156 69.6719 13.3791 68.4113 11.1177Z" fill="#231F20"/>
<path d="M63.2978 17.4911C62.901 17.3267 62.6517 17.0489 63.0516 16.7651C63.1696 16.6818 63.3212 16.6648 63.4647 16.6497C63.7546 16.6206 64.0639 16.5946 64.3213 16.731C64.6612 16.9105 64.712 17.2164 64.4282 17.4681C64.1168 17.7439 63.6417 17.6325 63.2978 17.4911Z" fill="#231F20"/>
<path d="M47.3406 2.06405C48.4323 2.92952 49.1597 4.2834 49.7865 5.49787C49.9686 5.85088 50.1314 6.21392 50.2524 6.59301C50.2819 6.68628 50.3654 7.00619 50.3755 6.99616C50.3918 6.98012 49.9615 6.9731 49.8862 6.9741C49.0631 6.98312 48.24 6.98413 47.4159 6.97711C47.0883 6.9741 47.0883 7.47553 47.4159 7.47854C47.9429 7.48255 48.4699 7.48456 48.9969 7.48255C49.4599 7.48055 50.0642 7.57482 50.5109 7.45347C51.2017 7.26593 50.7347 6.38642 50.5566 5.95619C50.2229 5.14687 49.759 4.39071 49.3001 3.64557C48.8576 2.92752 48.3702 2.24156 47.7007 1.71003C47.4484 1.50946 47.0862 1.86247 47.3406 2.06505V2.06405Z" fill="#231F20"/>
<path d="M76.9292 2.62084C75.4377 3.9366 73.9634 5.53618 73.0498 7.30925C72.9195 7.56198 72.6947 7.94507 72.829 8.2329C72.9531 8.49966 73.2746 8.50969 73.531 8.53978C74.7163 8.67516 75.9077 8.74536 77.1001 8.76442C77.4277 8.76943 77.4277 8.268 77.1001 8.26298C76.1722 8.24794 75.2464 8.20281 74.3215 8.11857C74.1242 8.10052 73.9258 8.08247 73.7284 8.0594C73.5829 8.04536 73.4384 8.02731 73.294 8.00525C73.3448 7.96012 73.3692 7.89894 73.3682 7.82172C73.4455 7.44765 73.7894 7.0445 73.997 6.7316C74.9198 5.33862 76.0318 4.08403 77.2883 2.97485C77.5325 2.75923 77.1723 2.40522 76.9282 2.61984L76.9292 2.62084Z" fill="#231F20"/>
<path d="M62.2804 4.90101C61.8164 3.75373 61.6669 2.53524 61.8724 1.31475C61.9253 0.998847 61.4349 0.86346 61.382 1.18137C61.1612 2.49112 61.2894 3.79886 61.79 5.0344C61.91 5.33024 62.4025 5.20087 62.2804 4.90101Z" fill="#231F20"/>
<path d="M63.2673 5.0625C63.194 4.19803 63.1299 3.29043 63.6468 2.53928C63.8309 2.27152 63.3904 2.0208 63.2073 2.28656C62.6395 3.11192 62.6772 4.10978 62.7576 5.06351C62.785 5.38242 63.2937 5.38543 63.2663 5.06351L63.2673 5.0625Z" fill="#231F20"/>
<path d="M64.068 5.22904C64.1545 4.76873 64.3295 4.35655 64.6011 3.97245C64.7893 3.70769 64.3488 3.45697 64.1616 3.71972C63.8676 4.13391 63.6692 4.59924 63.5766 5.09666C63.5176 5.41257 64.008 5.54695 64.067 5.23005L64.068 5.22904Z" fill="#231F20"/>
<path d="M56.1067 17.1833C57.7661 17.3829 59.3665 18.3165 59.9546 19.9241C60.505 21.4274 59.9078 23.2286 58.3389 23.8484C58.0388 23.9667 58.17 24.4521 58.4742 24.3318C60.2333 23.6368 61.0534 21.6962 60.4958 19.9392C59.8864 18.0187 58.053 16.9165 56.1077 16.6819C55.7831 16.6427 55.7862 17.1442 56.1077 17.1833H56.1067Z" fill="#231F20"/>
<path d="M60.5131 20.612L61.6933 20.5459C62.0189 20.5278 62.0209 20.0264 61.6933 20.0444L60.5131 20.1106C60.1876 20.1287 60.1855 20.6301 60.5131 20.612Z" fill="#231F20"/>
<path d="M51.6026 12.1077C51.2668 12.1027 50.9362 12.1579 50.6218 12.2752C50.3074 12.3925 50.4498 12.8739 50.7571 12.7586C51.0328 12.6553 51.3085 12.6042 51.6026 12.6092C51.9302 12.6142 51.9302 12.1127 51.6026 12.1077Z" fill="#231F20"/>
<path d="M51.9566 12.937L51.0979 13.3071C50.9707 13.3622 50.9443 13.5427 51.0063 13.6501C51.0806 13.7784 51.2292 13.7935 51.3543 13.7403C51.6402 13.617 51.9271 13.4936 52.213 13.3703C52.3402 13.3151 52.3666 13.1346 52.3046 13.0273C52.2303 12.8989 52.0818 12.8839 51.9566 12.937Z" fill="#231F20"/>
<path d="M73.2878 12.7173H74.2004C74.5281 12.7173 74.5281 12.2158 74.2004 12.2158H73.2878C72.9602 12.2158 72.9602 12.7173 73.2878 12.7173Z" fill="#231F20"/>
<path d="M73.3021 13.8235C73.4608 13.8024 73.6358 13.8606 73.7569 13.9619C73.8617 14.0491 74.0143 14.0632 74.1171 13.9619C74.2086 13.8716 74.2218 13.6951 74.1171 13.6069C73.8423 13.3772 73.5229 13.292 73.1678 13.3401C73.0315 13.3582 72.9572 13.5307 72.9898 13.649C73.0305 13.7934 73.1658 13.8426 73.3031 13.8245L73.3021 13.8235Z" fill="#231F20"/>
<path d="M67.1203 8.51967C67.2607 8.26995 67.4438 8.06035 67.6707 7.88184C67.7785 7.7976 67.7602 7.61508 67.6707 7.52682C67.5649 7.42253 67.4184 7.44158 67.3105 7.52682C67.0531 7.7294 66.8405 7.98213 66.6807 8.26594C66.522 8.54875 66.9605 8.80147 67.1203 8.51866V8.51967Z" fill="#231F20"/>
<path d="M67.9983 8.73531L68.5344 8.25794C68.6362 8.16668 68.6281 7.99619 68.5344 7.90293C68.4327 7.80264 68.277 7.81166 68.1743 7.90293L67.6381 8.38029C67.5364 8.47155 67.5445 8.64204 67.6381 8.73531C67.7398 8.83559 67.8955 8.82657 67.9983 8.73531Z" fill="#231F20"/>
<path d="M73.0385 26.2231C73.2797 26.541 73.5208 26.8589 73.7619 27.1758C73.9563 27.4316 74.3978 27.1819 74.2015 26.9231C73.9603 26.6052 73.7192 26.2873 73.4781 25.9704C73.2837 25.7147 72.8422 25.9644 73.0385 26.2231Z" fill="#231F20"/>
<path d="M74.2574 25.739C74.4589 26.057 74.6603 26.3739 74.8608 26.6918C75.0337 26.9646 75.4743 26.7138 75.3003 26.439L74.697 25.4863C74.524 25.2135 74.0834 25.4643 74.2574 25.739Z" fill="#231F20"/>
<path d="M59.4357 40.5091C58.9829 41.0968 58.5312 41.6855 58.0784 42.2732C57.881 42.5299 58.3226 42.7806 58.5179 42.5259C58.9707 41.9382 59.4224 41.3495 59.8752 40.7619C60.0726 40.5051 59.631 40.2544 59.4357 40.5091Z" fill="#231F20"/>
<path d="M60.7736 41.2691C60.391 41.567 60.0858 41.9501 59.8833 42.3873C59.748 42.6792 60.1865 42.9339 60.3229 42.64C60.5101 42.2359 60.7797 41.8989 61.1337 41.6231C61.3901 41.4236 61.0279 41.0706 60.7736 41.2681V41.2691Z" fill="#231F20"/>
<path d="M73.7782 42.5218C74.0173 43.0393 74.2554 43.5558 74.4945 44.0733C74.6298 44.3661 75.0683 44.1124 74.934 43.8205C74.6949 43.303 74.4568 42.7866 74.2177 42.2691C74.0824 41.9763 73.6439 42.23 73.7782 42.5218Z" fill="#231F20"/>
<path d="M74.8598 42.0483C75.1416 42.4845 75.4234 42.9208 75.7053 43.358C75.8803 43.6298 76.3208 43.3781 76.1448 43.1053C75.863 42.669 75.5811 42.2328 75.2993 41.7955C75.1243 41.5238 74.6838 41.7755 74.8598 42.0483Z" fill="#231F20"/>
<path d="M52.2781 53.4603C52.1174 53.7381 51.9556 54.0159 51.7948 54.2937C51.6321 54.5745 52.0716 54.8272 52.2344 54.5464C52.3972 54.2656 52.5569 53.9908 52.7176 53.713C52.8804 53.4322 52.4409 53.1795 52.2781 53.4603Z" fill="#231F20"/>
<path d="M53.7137 53.5732C53.5529 53.9302 53.3912 54.2872 53.2304 54.6443C53.0981 54.9361 53.5367 55.1918 53.6699 54.897C53.8307 54.54 53.9925 54.1829 54.1532 53.8259C54.2855 53.5341 53.847 53.2784 53.7137 53.5732Z" fill="#231F20"/>
<path d="M70.2417 54.0436C70.4279 54.1379 70.5571 54.2863 70.611 54.4859C70.6965 54.7967 71.1869 54.6654 71.1014 54.3525C71.0149 54.0346 70.7962 53.7608 70.4981 53.6103C70.376 53.5492 70.2223 53.5793 70.1501 53.7006C70.084 53.8129 70.1186 53.9814 70.2417 54.0436Z" fill="#231F20"/>
<path d="M71.5196 53.4068C71.6803 53.5653 71.8421 53.7247 72.0029 53.8832C72.2348 54.1118 72.594 53.7568 72.363 53.5282C72.2023 53.3697 72.0405 53.2103 71.8797 53.0518C71.6478 52.8232 71.2886 53.1782 71.5196 53.4068Z" fill="#231F20"/>
<path d="M48.1474 39.7515C47.8717 40.1135 47.596 40.4745 47.3203 40.8366C47.1239 41.0943 47.5655 41.345 47.7598 41.0893C48.0355 40.7272 48.3112 40.3662 48.5869 40.0042C48.7833 39.7464 48.3417 39.4957 48.1474 39.7515Z" fill="#231F20"/>
<path d="M49.1129 39.9495L48.8718 40.5442C48.8209 40.6696 48.9278 40.82 49.0499 40.8531C49.1943 40.8922 49.3113 40.804 49.3632 40.6776C49.4436 40.479 49.524 40.2805 49.6044 40.0829C49.6552 39.9575 49.5484 39.8071 49.4263 39.774C49.2818 39.7349 49.1648 39.8231 49.1129 39.9495Z" fill="#231F20"/>
<path d="M25.3135 53.1216C25.9443 52.6924 26.7836 52.5008 27.5365 52.4818C29.7677 52.4266 31.5787 53.96 32.8647 55.6087C33.0611 55.8615 33.5037 55.6117 33.3043 55.356C31.9419 53.609 30.0689 52.0054 27.7156 51.9793C26.8233 51.9693 25.8059 52.1799 25.0571 52.6884C24.7895 52.8709 25.0438 53.3051 25.3135 53.1216Z" fill="#231F20"/>
<path d="M60.6566 60.5725C61.6648 60.1122 62.5856 59.375 63.3904 58.6349C65.3448 56.8368 66.758 54.5192 67.5435 52.006C68.1865 49.9491 68.4062 47.7859 68.3401 45.6407C68.3299 45.3188 67.8212 45.3178 67.8314 45.6407C67.9962 50.9971 66.0336 56.547 61.3443 59.5977C61.0422 59.7942 60.7288 59.9898 60.3992 60.1402C60.1021 60.2756 60.3605 60.7079 60.6555 60.5735L60.6566 60.5725Z" fill="#231F20"/>
<mask id="mask0_1497_4901" style="mask-type:luminance" maskUnits="userSpaceOnUse" x="16" y="1" width="66" height="90">
<path d="M42.5852 64.3713H61.7483C61.7981 63.9781 61.8164 63.6081 61.8083 63.2601H76.2404C77.6892 58.4985 74.3083 57.2288 74.3083 57.2288C89.123 47.2292 77.207 20.245 77.207 20.245C78.6558 15.8003 77.207 9.13418 77.207 9.13418V2.75693L69.9609 5.32428L53.9436 4.87499C52.1042 3.61037 50.0998 2.58043 47.9958 1.81724C47.8727 1.77211 47.7343 1.72799 47.6143 1.78114C47.4322 1.86137 47.4067 2.10005 47.4077 2.29661C47.4128 3.83502 47.7333 5.40351 47.422 6.91082C46.3395 12.1618 47.6753 15.1243 47.6753 15.1243C18.9943 24.09 25.4081 50.0854 25.1853 52.9044C20.3057 55.3033 16.9299 60.4821 16.348 65.8906C15.6775 72.1124 18.336 78.4094 22.6315 83.0166C29.4523 90.3336 41.1832 93.1837 50.3155 88.9737C53.7249 87.4022 56.4577 84.7405 57.4008 81.3017C58.3837 77.7215 56.7568 73.6007 53.1735 72.4654C51.5619 71.955 49.7254 72.1004 48.1006 71.632C45.8552 70.9852 44.2995 69.0246 43.278 66.9496C43.278 66.9496 42.8222 66.1514 42.5852 64.3703V64.3713Z" fill="white"/>
</mask>
<g mask="url(#mask0_1497_4901)">
<path d="M41.4691 16.4019C44.6729 17.6665 47.3691 19.9671 49.5555 22.5996C51.742 25.2321 53.4614 28.2036 55.1696 31.1591C55.4423 31.6304 55.7241 32.177 55.5502 32.6925C55.4566 32.9703 55.2409 33.1919 55.0119 33.3794C53.8419 34.3402 52.1408 34.626 50.7133 34.1015C49.0743 33.4988 47.9755 32.0115 46.897 30.6536C44.8673 28.0983 42.573 25.7486 40.061 23.6526C38.3293 22.2075 36.4105 20.7724 35.6159 18.6774L41.4691 16.4019Z" fill="#F9D3E3"/>
<path d="M31.7364 22.0552C36.6068 26.4628 41.5606 30.9737 44.7848 36.663C45.0433 37.1193 45.2956 37.6017 45.323 38.1232C45.3698 39.0207 44.7309 39.832 43.9658 40.3214C42.1324 41.4918 39.653 41.1849 37.7219 40.18C35.7908 39.1752 34.2627 37.5766 32.6704 36.1034C29.7881 33.4347 26.5913 31.0981 23.1637 29.1545L31.7364 22.0562V22.0552Z" fill="#F9D3E3"/>
<path d="M22.7475 34.8237C23.1799 34.6572 23.6439 34.9481 24.0142 35.2238C26.6137 37.1614 29.2122 39.0989 31.8117 41.0365C34.3817 42.952 37.0942 45.06 38.0719 48.0867C38.1797 48.4216 38.2662 48.7796 38.1869 49.1226C38.1095 49.4616 37.8786 49.7474 37.6273 49.9921C36.2192 51.362 33.8954 51.709 32.1393 50.8115C30.4229 49.9349 29.4249 48.1348 27.975 46.8742C25.7978 44.9818 22.6885 44.379 20.555 42.4385L22.7475 34.8227V34.8237Z" fill="#F9D3E3"/>
<path d="M30.2062 90.4207C31.7334 88.8362 33.932 87.9005 36.149 87.8905C35.213 86.9999 35.0949 85.4003 35.8916 84.3864C36.6872 83.3725 38.2876 83.0817 39.3966 83.7506C39.5227 82.9473 39.0008 82.1761 38.9805 81.3638C38.9499 80.1443 40.0956 79.1445 41.3053 78.8877C42.516 78.631 43.7674 78.9348 44.967 79.2357C43.7674 78.5558 43.4978 76.7336 44.3911 75.6916C45.2844 74.6496 47.0679 74.5653 48.1159 75.4569C47.0751 74.092 47.367 72.013 48.5371 70.7534C49.7071 69.4938 51.5588 68.9994 53.2833 69.1639C55.0079 69.3274 56.6235 70.0765 58.0907 70.9841C59.0633 71.5848 60.0003 72.2728 60.7054 73.1653C61.8185 74.5744 62.2661 76.3896 62.4361 78.1677C62.7535 81.4861 62.14 84.9892 60.158 87.6889C57.5779 91.203 53.1409 92.8517 48.8647 93.8766C42.4712 95.409 35.2282 95.8232 29.786 92.1777L30.2062 90.4207Z" fill="#F9D3E3"/>
</g>
</g>
<defs>
<clipPath id="clip0_1497_4901">
<rect width="66" height="94" fill="white" transform="translate(16 1)"/>
</clipPath>
</defs>
</svg>
