<svg width="98" height="98" viewBox="0 0 98 98" fill="none" xmlns="http://www.w3.org/2000/svg">
<g clip-path="url(#clip0_1479_4992)">
<path d="M16.1686 45.9577C14.2748 44.3222 13.2131 41.8856 12.7735 39.4191C12.3339 36.9526 12.459 34.4239 12.5853 31.9206C11.5925 32.6031 10.874 33.6735 10.6157 34.8532C9.54255 30.1055 9.20167 25.1921 9.60798 20.3419C8.87111 20.8552 8.3087 21.6149 8.03094 22.47C6.76381 18.2103 6.39996 13.6836 6.96926 9.27539C1.72739 17.1883 0.0757525 27.3996 2.55723 36.5693C1.68952 36.0848 0.912477 35.4368 0.278908 34.6702C1.18105 41.1893 5.19021 47.2065 10.851 50.5374L16.1675 45.9589L16.1686 45.9577Z" fill="#FDF8EA"/>
<path d="M16.3706 45.7536C12.4635 42.3019 12.6311 36.6875 12.8721 31.9202C12.8825 31.713 12.6162 31.5461 12.4406 31.6716C11.38 32.4301 10.642 33.5016 10.339 34.7757H10.8922C9.834 30.0418 9.50115 25.1755 9.89483 20.3404C9.91205 20.1332 9.63429 19.9674 9.46327 20.0917C8.65639 20.681 8.0848 21.4464 7.75424 22.3914H8.30747C7.05755 18.1363 6.70289 13.674 7.25611 9.27269C7.29514 8.96653 6.86128 8.91474 6.72125 9.12767C2.61912 15.3624 0.685133 22.9565 1.22688 30.4009C1.38068 32.5106 1.73419 34.6019 2.28053 36.6449C2.42056 36.5367 2.56174 36.4285 2.70176 36.3203C1.84897 35.8312 1.11669 35.2166 0.481978 34.4661C0.274231 34.2198 -0.0333709 34.4972 0.00220999 34.7458C0.946824 41.3627 4.97435 47.3788 10.7063 50.7845C10.8222 50.8535 10.9565 50.8236 11.0541 50.7396C12.8262 49.2134 14.5984 47.6872 16.3706 46.1611C16.6506 45.9194 16.2431 45.5142 15.9642 45.7536C14.1921 47.2798 12.4199 48.806 10.6478 50.3321C10.7637 50.3172 10.8796 50.3022 10.9955 50.2873C5.37951 46.9506 1.48054 41.0704 0.556583 34.5927C0.397043 34.686 0.236355 34.7792 0.076815 34.8724C0.740226 35.6574 1.523 36.3065 2.41253 36.8175C2.6306 36.9418 2.89918 36.7358 2.83376 36.493C0.93879 29.4053 1.47824 21.7376 4.27765 14.9608C5.07765 13.0237 6.06588 11.1706 7.21824 9.42001L6.68338 9.27499C6.12441 13.7235 6.4917 18.2456 7.75539 22.5467C7.83918 22.8299 8.21679 22.8092 8.30862 22.5467C8.58523 21.7537 9.07648 21.0862 9.75366 20.5901L9.3221 20.3415C8.92382 25.2273 9.27045 30.1466 10.3402 34.93C10.4021 35.2062 10.8291 35.2016 10.8934 34.93C11.1608 33.8078 11.7921 32.841 12.731 32.17L12.2994 31.9213C12.0503 36.8406 11.9413 42.6057 15.9665 46.1611C16.2431 46.4051 16.6506 45.9999 16.3728 45.7536H16.3706Z" fill="#231F20"/>
<path d="M69.5961 31.8398C70.4317 28.0612 71.1227 24.2515 71.6679 20.4199C73.6065 22.7472 75.0664 25.475 75.9295 28.3823C76.0638 28.8358 76.2027 29.3226 76.5643 29.6276C76.9212 29.9292 77.4193 29.9844 77.8842 30.0201C82.9998 30.4195 88.1739 30.0707 93.1897 28.9865C93.6029 28.8968 94.0609 28.8093 94.4282 29.0211C94.753 29.2087 94.9159 29.5816 95.0537 29.9315C96.2806 33.0598 97.1541 36.3274 97.6511 39.6514C97.7268 40.1612 97.7842 40.7218 97.5042 41.1534C97.2689 41.5148 96.8499 41.7012 96.454 41.8716C93.1071 43.3045 89.7774 44.8779 86.9286 47.1476C84.0799 49.4173 81.72 52.4616 80.8627 56.0077C80.8627 56.0077 78.1872 75.7479 75.0297 85.3296C75.0297 85.3296 81.1462 84.2029 80.8649 88.7112H62.9207L61.4722 80.4703C61.4722 80.4703 42.6419 69.7744 27.1849 72.0567L24.8251 85.8936C24.8251 85.8936 31.4007 85.8936 31.6819 88.7123H10.9061L9.75834 73.7889C9.75834 73.7889 4.13771 73.4598 8.63467 66.2904C8.63467 66.2904 1.77445 65.8853 6.89121 60.8118C6.89121 60.8118 8.07227 42.2111 21.8444 42.4931L64.8444 44.9331L69.5961 31.8409V31.8398Z" fill="#FDF8EA"/>
<path d="M69.8728 31.9155C70.706 28.1358 71.397 24.3272 71.9445 20.4957C71.785 20.5383 71.6243 20.5808 71.4647 20.6223C72.6871 22.1036 73.7189 23.7345 74.5281 25.4782C74.9333 26.3529 75.2799 27.2541 75.5657 28.1749C75.7803 28.8655 75.9502 29.6424 76.6343 30.0187C77.3677 30.4216 78.3915 30.3514 79.1995 30.394C80.2245 30.4481 81.2506 30.4722 82.2767 30.4676C84.3289 30.4561 86.3811 30.3272 88.4184 30.0786C89.4262 29.9554 90.4305 29.8058 91.4302 29.6263C91.8996 29.5422 92.3667 29.4525 92.8339 29.3558C93.4032 29.2384 94.1217 28.9679 94.5337 29.5284C94.8172 29.914 94.9527 30.4642 95.1168 30.9107C95.289 31.3803 95.4542 31.8534 95.6103 32.3287C95.9352 33.3128 96.2255 34.3095 96.4815 35.3143C96.7283 36.2846 96.9429 37.2629 97.1243 38.2481C97.27 39.0423 97.7946 40.5535 97.0898 41.1923C96.7753 41.4777 96.3082 41.6216 95.926 41.7873C95.4841 41.9784 95.0433 42.1718 94.6038 42.3697C93.6936 42.7795 92.7914 43.2053 91.9031 43.6623C88.6778 45.3208 85.6213 47.419 83.3751 50.3114C82.0563 52.0102 80.8351 54.1176 80.5321 56.2849C80.0099 60.0324 79.4142 63.7707 78.7622 67.4976C77.8142 72.9105 76.7973 78.3523 75.2524 83.6306C75.0928 84.175 74.9252 84.7171 74.7485 85.2558C74.675 85.4814 74.9011 85.646 75.102 85.6103C75.9881 85.4491 76.9522 85.4399 77.8383 85.5861C78.5269 85.7 79.2363 85.9222 79.7665 86.3952C80.4368 86.9914 80.617 87.8489 80.5746 88.7144C80.6698 88.6189 80.7662 88.5222 80.8615 88.4267H62.9173L63.1939 88.6385C62.8105 86.4539 62.426 84.2682 62.0427 82.0837C61.9612 81.6199 61.8797 81.156 61.7982 80.6922C61.7638 80.4942 61.7638 80.3538 61.6031 80.218C61.2737 79.9406 60.7664 79.7634 60.3876 79.5666C54.4617 76.4912 48.1019 74.0477 41.5791 72.6147C36.8423 71.5743 31.9275 71.0851 27.1057 71.7814C27.0173 71.7941 26.9198 71.8954 26.9049 71.9829C26.2174 76.017 25.5287 80.0523 24.8412 84.0864C24.7425 84.6642 24.6438 85.242 24.5451 85.8197C24.5141 86.0016 24.6208 86.1834 24.8217 86.1834C25.834 86.1846 26.8612 86.2905 27.8541 86.4827C29.0673 86.7175 31.2021 87.1974 31.3915 88.7144C31.4868 88.6189 31.5832 88.5222 31.6784 88.4267H10.9061C11.0014 88.5222 11.0978 88.6189 11.193 88.7144C10.8579 84.3534 10.5228 79.9913 10.1865 75.6303C10.1394 75.0168 10.0923 74.4033 10.0453 73.791C10.0327 73.6287 9.92362 73.5136 9.75834 73.5033C9.12018 73.463 8.24902 73.1269 7.75548 72.5745C6.21862 70.8561 7.92879 67.9718 8.88144 66.4364C9.00311 66.2407 8.84242 66.0163 8.63352 66.0036C7.87485 65.9564 7.06452 65.778 6.38504 65.4373C5.91675 65.2025 5.45305 64.8573 5.31991 64.3232C5.11446 63.5037 5.69753 62.6393 6.17271 62.0339C6.48949 61.6311 7.10929 61.2386 7.18274 60.7276C7.21373 60.5147 7.22177 60.2971 7.24587 60.0842C7.34917 59.1761 7.50068 58.2737 7.68547 57.3794C8.93424 51.3426 12.0803 44.6049 18.634 43.0948C20.3098 42.7093 21.935 42.7875 23.6211 42.8831C25.9361 43.0143 28.2523 43.1455 30.5674 43.2767C37.4609 43.668 44.3556 44.0593 51.2491 44.4507C55.7081 44.7039 60.1695 45.0204 64.632 45.2103C64.7021 45.2138 64.7721 45.2184 64.8409 45.2218C64.9741 45.2299 65.0762 45.1263 65.1176 45.01C66.5052 41.1854 67.894 37.3607 69.2817 33.5372C69.4779 32.9974 69.673 32.4576 69.8693 31.9178C69.9956 31.5691 69.4412 31.4195 69.3161 31.7648C67.9284 35.5894 66.5396 39.4141 65.152 43.2376C64.9557 43.7774 64.7606 44.3172 64.5643 44.857C64.6562 44.7868 64.7491 44.7165 64.8409 44.6452C60.9087 44.4219 56.9753 44.1986 53.043 43.9753C45.9693 43.5736 38.8945 43.1731 31.8208 42.7714C29.2612 42.6264 26.7029 42.4814 24.1433 42.3364C22.6007 42.2489 21.1006 42.1234 19.5568 42.341C12.5336 43.3319 8.83438 49.9753 7.33654 56.301C7.08863 57.3495 6.89121 58.4096 6.74774 59.4765C6.70412 59.8011 6.66395 60.1256 6.63296 60.4514C6.62493 60.5319 6.63296 60.6344 6.61001 60.7126C6.56524 60.8634 6.56983 60.7161 6.55262 60.7449C6.25879 61.2041 5.78132 61.577 5.46338 62.0316C5.19022 62.4218 4.94804 62.8488 4.81375 63.3081C4.64273 63.8927 4.67716 64.5166 5.01575 65.0345C5.61374 65.9484 6.83841 66.3075 7.85304 66.4813C8.11129 66.525 8.37298 66.5641 8.63352 66.5802C8.55088 66.4364 8.46825 66.2913 8.38561 66.1475C7.28604 67.9188 5.63096 70.9182 7.26424 72.8841C7.85878 73.6 8.83668 74.0224 9.75719 74.0799L9.47025 73.7922C9.8054 78.1532 10.1405 82.5153 10.4768 86.8763C10.5239 87.4898 10.571 88.1032 10.618 88.7156C10.6295 88.8709 10.7397 89.0033 10.905 89.0033H31.6796C31.8208 89.0033 31.986 88.8709 31.9665 88.7156C31.7542 87.0156 29.881 86.3492 28.4371 86.0189C27.263 85.7507 26.0291 85.6114 24.824 85.6091L25.1006 85.9728C25.7881 81.9387 26.4767 77.9034 27.1643 73.8693C27.263 73.2915 27.3617 72.7137 27.4604 72.1359C27.3938 72.2027 27.3272 72.2695 27.2595 72.3374C35.5235 71.1427 44.0847 73.3721 51.7598 76.3266C54.4135 77.3475 57.02 78.4985 59.5566 79.7864C60.0903 80.0569 60.6309 80.4355 61.191 80.6473C61.2048 80.6531 61.2966 80.7198 61.3093 80.7129C61.2955 80.7198 61.2496 80.4793 61.206 80.6105C61.1336 80.828 61.3402 81.3747 61.3793 81.5946C61.8005 83.9932 62.2217 86.3918 62.6441 88.7915C62.6659 88.9147 62.8037 89.0033 62.9207 89.0033H80.8649C81.0256 89.0033 81.1439 88.8709 81.1519 88.7156C81.246 86.7946 80.104 85.4768 78.263 85.0831C77.1921 84.8541 76.0305 84.8598 74.9528 85.0555L75.3063 85.41C77.013 80.2076 78.0368 74.7636 79.0113 69.3851C79.7631 65.2371 80.4334 61.0717 81.0256 56.8983C81.8371 51.1734 86.761 47.068 91.5576 44.4967C93.2964 43.5644 95.1283 42.8566 96.8959 41.9911C97.5501 41.6711 97.9587 41.1831 97.9966 40.435C98.0402 39.5648 97.7842 38.6291 97.6212 37.7808C97.231 35.7436 96.6996 33.7341 96.0316 31.7717C95.755 30.9579 95.5197 30.0072 95.0583 29.2741C94.6474 28.6192 94.0035 28.5444 93.2941 28.6744C91.1972 29.0588 89.1266 29.4582 86.9998 29.6585C84.8833 29.8588 82.7553 29.9324 80.6297 29.8772C79.6173 29.8507 78.5751 29.8415 77.5709 29.7022C76.9488 29.6159 76.5666 29.3362 76.3416 28.7366C76.174 28.2888 76.0604 27.8193 75.9043 27.3669C75.2937 25.599 74.4661 23.9048 73.4435 22.3418C72.9614 21.604 72.4334 20.8985 71.8722 20.2194C71.7436 20.0629 71.4222 20.1377 71.3924 20.346C70.8449 24.1776 70.154 27.9873 69.3207 31.7659C69.2415 32.1273 69.7947 32.2804 69.8739 31.919L69.8728 31.9155Z" fill="#231F20"/>
<path d="M71.7057 21.0621C72.2957 23.9878 72.0329 26.9723 72.0696 29.9337C72.0753 30.4436 71.995 31.0639 72.399 31.4495C72.702 31.7396 73.1359 31.7983 73.533 31.7373C74.1344 31.6463 74.7324 31.3413 75.2833 31.0916C75.9422 30.7923 76.578 30.4493 77.1967 30.0741C77.5123 29.8831 77.2242 29.3847 76.9074 29.5769C75.9181 30.1765 74.8552 30.752 73.7465 31.095C73.3379 31.2216 72.9511 31.2723 72.7651 30.8395C72.6228 30.508 72.6469 30.1812 72.6435 29.8232C72.6377 29.2017 72.6435 28.579 72.6527 27.9575C72.6859 25.598 72.7284 23.2328 72.2601 20.9078C72.1867 20.5453 71.6334 20.6984 71.7069 21.0609L71.7057 21.0621Z" fill="#231F20"/>
<path d="M95.553 32.4749C94.3203 32.582 93.0749 32.5555 91.848 32.3955C91.0985 32.2977 90.3168 32.1331 89.7441 31.6393C89.1714 31.1456 88.9005 30.2237 89.3412 29.6079C89.5605 29.3017 89.9105 29.121 90.2537 28.968C91.4623 28.4305 92.765 28.1059 94.085 28.0115C94.6267 27.9735 95.1948 27.9793 95.6804 28.2233C96.3518 28.5617 96.7122 29.3179 96.827 30.0625C97.0462 31.4771 95.7607 31.7498 95.553 32.4738V32.4749Z" fill="#231F20"/>
<path d="M80.1981 31.9042C82.8253 31.9871 85.7946 34.167 85.5019 36.7313C85.3688 37.8973 84.7146 38.9665 83.8273 39.7319C83.5106 40.0058 83.1605 40.2464 82.7691 40.3926C82.2629 40.5825 81.712 40.6055 81.1714 40.5997C80.2957 40.5894 79.4004 40.4996 78.6096 40.1209C77.3608 39.5247 76.508 38.2253 76.3313 36.8499C76.1419 35.3836 76.6193 33.4523 77.8612 32.551C78.5201 32.0734 79.3407 31.8777 80.1981 31.9042Z" fill="#F9D3E3"/>
<path d="M82.0322 37.1098C82.6541 37.1098 83.1582 36.4657 83.1582 35.6711C83.1582 34.8766 82.6541 34.2324 82.0322 34.2324C81.4104 34.2324 80.9063 34.8766 80.9063 35.6711C80.9063 36.4657 81.4104 37.1098 82.0322 37.1098Z" fill="#231F20"/>
<path d="M65.9417 41.9082C65.9417 41.9082 69.8636 52.0229 82.5935 51.9331L80.9063 57.7132C80.9063 57.7132 66.869 57.5509 61.4699 44.7407L65.9417 41.9082Z" fill="#F9D3E3"/>
<path d="M61.6146 44.9896C63.1055 44.0458 64.5953 43.1009 66.0863 42.1571L65.6937 42.0535C66.263 43.3817 67.1284 44.6179 68.0283 45.7366C70.0243 48.2204 72.6343 50.2024 75.6369 51.2877C77.8624 52.0922 80.2394 52.3627 82.5935 52.22C82.5017 52.0991 82.4087 51.9771 82.3169 51.8563C81.945 53.1304 81.5731 54.4045 81.2001 55.6798C81.0956 56.0354 81.65 56.1885 81.7533 55.8329C82.1252 54.5587 82.4971 53.2846 82.8701 52.0094C82.9206 51.8379 82.7794 51.6341 82.5935 51.6457C78.7439 51.8782 74.9746 50.9044 71.8423 48.6175C69.8268 47.1454 68.1316 45.2129 66.869 43.0606C66.6234 42.6417 66.3812 42.2112 66.1896 41.7635C66.1299 41.6242 65.9152 41.5851 65.797 41.6599C64.3061 42.6037 62.8163 43.5486 61.3253 44.4924C61.0143 44.6892 61.3012 45.1876 61.6146 44.9896Z" fill="#231F20"/>
<path d="M81.9875 62.8453C83.9399 62.8453 85.5226 61.2582 85.5226 59.3003C85.5226 57.3425 83.9399 55.7554 81.9875 55.7554C80.0351 55.7554 78.4523 57.3425 78.4523 59.3003C78.4523 61.2582 80.0351 62.8453 81.9875 62.8453Z" fill="#FDF8EA"/>
<path d="M85.2345 59.3004C85.1955 61.0763 83.7837 62.5576 81.9863 62.5576C80.1889 62.5576 78.7381 61.0775 78.7381 59.3004C78.7381 57.5233 80.2142 56.0432 81.9863 56.0432C83.7585 56.0432 85.1955 57.5245 85.2345 59.3004C85.2425 59.6699 85.8164 59.671 85.8084 59.3004C85.774 57.7155 84.8305 56.2826 83.3349 55.7152C81.8233 55.142 80.065 55.6116 79.0388 56.8627C78.0127 58.1138 77.8842 59.8805 78.7003 61.2548C79.514 62.6255 81.1198 63.3495 82.6819 63.0675C84.4999 62.7395 85.7694 61.1201 85.8084 59.2993C85.8164 58.9287 85.2425 58.9287 85.2345 59.2993V59.3004Z" fill="#231F20"/>
<path d="M85.7407 58.6328H77.9117C77.4363 58.6328 77.0509 59.0193 77.0509 59.496C77.0509 59.9728 77.4363 60.3593 77.9117 60.3593H85.7407C86.2161 60.3593 86.6015 59.9728 86.6015 59.496C86.6015 59.0193 86.2161 58.6328 85.7407 58.6328Z" fill="#FDF8EA"/>
<path d="M85.7407 60.0716H78.481C78.0472 60.0716 77.3379 60.1614 77.3379 59.4961C77.3379 58.7975 78.162 58.9207 78.613 58.9207H85.1392C85.3149 58.9207 85.5008 58.9046 85.6753 58.9207C86.3915 58.9874 86.5854 59.9957 85.7407 60.0716C85.3757 60.1039 85.3722 60.6805 85.7407 60.6471C86.8311 60.5493 87.3625 59.1186 86.3203 58.5029C85.9105 58.2612 85.3149 58.3452 84.8592 58.3452H79.4704C78.962 58.3452 78.4466 58.3222 77.9381 58.3452C76.9878 58.3889 76.3737 59.4858 77.0498 60.2558C77.4457 60.707 78.0093 60.6471 78.5453 60.6471H85.7407C86.1103 60.6471 86.1103 60.0716 85.7407 60.0716Z" fill="#231F20"/>
<path d="M68.7227 46.4603C67.4556 47.7517 66.1884 49.0419 64.9213 50.3333C65.0372 50.3183 65.1531 50.3034 65.2691 50.2884C64.8111 50.049 64.3922 49.6749 64.0915 49.2571C63.3351 48.2006 63.5899 46.9241 64.3176 45.917C64.6125 45.5084 65.0315 45.1793 65.5158 45.0273C66.8599 44.6049 67.9789 45.8284 68.6779 46.809C68.8903 47.1083 69.3884 46.8205 69.1738 46.519C68.4828 45.5499 67.5623 44.5083 66.3021 44.3794C65.579 44.3057 64.8846 44.5865 64.3371 45.0504C63.0275 46.161 62.6108 48.2132 63.6519 49.6231C63.9962 50.0893 64.4633 50.5163 64.9798 50.7856C65.0923 50.8443 65.2358 50.8351 65.3276 50.7407C66.5947 49.4493 67.8619 48.1591 69.129 46.8677C69.3884 46.603 68.9832 46.1967 68.7227 46.4603Z" fill="#231F20"/>
<path d="M69.9852 47.3812C68.7066 48.7796 67.4269 50.1792 66.1483 51.5776C65.8992 51.8504 66.3043 52.2578 66.5546 51.9851C67.8332 50.5866 69.1129 49.1871 70.3916 47.7887C70.6406 47.5159 70.2355 47.1084 69.9852 47.3812Z" fill="#231F20"/>
<path d="M71.0848 52.6792C71.5799 52.6792 71.9812 52.2767 71.9812 51.7802C71.9812 51.2838 71.5799 50.8813 71.0848 50.8813C70.5897 50.8813 70.1884 51.2838 70.1884 51.7802C70.1884 52.2767 70.5897 52.6792 71.0848 52.6792Z" fill="#231F20"/>
<path d="M76.2291 55.0961C76.7242 55.0961 77.1255 54.6937 77.1255 54.1972C77.1255 53.7008 76.7242 53.2983 76.2291 53.2983C75.734 53.2983 75.3327 53.7008 75.3327 54.1972C75.3327 54.6937 75.734 55.0961 76.2291 55.0961Z" fill="#231F20"/>
<path d="M6.99795 37.8176C6.49638 36.9682 5.9948 36.1177 5.49323 35.2683L5.32221 35.6907C6.0189 35.4478 6.68117 35.7424 7.30785 36.0475C7.48001 36.1303 7.76925 36.0348 7.73941 35.7988C7.64185 35.0024 7.45362 34.2427 7.14946 33.4992C7.01172 33.1608 6.4562 33.3093 6.59623 33.6523C6.87973 34.344 7.07485 35.0553 7.16667 35.7988L7.59823 35.5502C6.82923 35.1773 6.0212 34.8389 5.16955 35.1359C4.99739 35.1957 4.89868 35.3903 4.99854 35.5583C5.50011 36.4077 6.00169 37.2583 6.50326 38.1077C6.6915 38.4265 7.18733 38.1365 6.9991 37.8176H6.99795Z" fill="#231F20"/>
<path d="M55.4235 50.8825C54.7027 51.153 53.975 51.4005 53.2393 51.6249C53.0625 51.679 52.9719 51.8839 53.0683 52.0473C53.3265 52.4916 53.7432 52.6251 54.2011 52.7908C54.4663 52.8864 55.0355 53.0855 54.8829 53.4745C54.7911 53.7082 54.5087 53.8474 54.4054 54.0903C54.2723 54.4056 54.3274 54.828 54.6671 54.9788C55.1021 55.1733 55.8447 54.7739 56.2625 54.6496C56.616 54.5449 56.4657 53.989 56.1099 54.0949C55.8642 54.1685 55.6175 54.241 55.3718 54.3147C55.1985 54.3665 55.0218 54.5322 55.0195 54.2986C55.0172 54.149 55.1067 54.1041 55.1951 54.0028C55.4086 53.7553 55.5532 53.4665 55.4637 53.1315C55.2112 52.1946 53.9739 52.4594 53.5641 51.7561C53.5067 51.8965 53.4493 52.0381 53.3931 52.1785C54.1288 51.9529 54.8565 51.7055 55.5773 51.4362C55.9205 51.3072 55.7713 50.7513 55.4246 50.8814L55.4235 50.8825Z" fill="#231F20"/>
<path d="M65.4068 70.3774C65.082 70.9574 64.8386 71.564 64.6745 72.2085C64.6297 72.3846 64.7617 72.5792 64.9511 72.5722C65.7488 72.5481 66.4765 72.3006 67.1112 71.8103C66.9712 71.7528 66.83 71.6952 66.69 71.6388C66.8507 72.2914 67.117 72.8865 67.5015 73.4378C67.6116 73.5954 67.8056 73.6254 67.9525 73.4965C68.5149 72.9992 68.9121 72.4077 69.1864 71.709C69.3218 71.3637 68.7663 71.2141 68.6332 71.5559C68.3967 72.159 68.0294 72.662 67.5474 73.089C67.6977 73.1086 67.8481 73.1282 67.9984 73.1477C67.6426 72.6355 67.3947 72.0923 67.2455 71.4869C67.2053 71.3234 66.9712 71.2014 66.8243 71.3154C66.2699 71.7435 65.6558 71.976 64.9546 71.9979C65.0464 72.1188 65.1394 72.2408 65.2312 72.3616C65.3838 71.7643 65.6053 71.206 65.9049 70.6685C66.0863 70.3451 65.5904 70.0551 65.4091 70.3785L65.4068 70.3774Z" fill="#231F20"/>
<path d="M18.5858 49.0835C18.0705 49.316 15.8404 50.3254 16.8183 51.1541C16.9594 51.2738 17.1431 51.3291 17.3233 51.3555C17.5379 51.3866 17.9041 51.2485 18.09 51.3302C18.3195 51.4303 18.2576 51.6594 18.2048 51.8136C18.1761 51.8976 18.1175 51.9736 18.0831 52.0576C17.997 52.2694 17.9729 52.4455 18.0418 52.6665C18.0785 52.7862 18.1899 52.8794 18.3184 52.8783C18.9428 52.8702 19.4685 52.6699 19.9563 52.2832C20.2455 52.053 19.8369 51.649 19.55 51.8758C19.1861 52.1647 18.7798 52.2959 18.3184 52.3016L18.595 52.5134C18.4906 52.1773 18.9439 51.8056 18.9256 51.4327C18.9107 51.1334 18.7041 50.8986 18.4274 50.8065C18.1348 50.7087 17.4254 50.94 17.2831 50.6811C17.1259 50.3968 18.6168 49.697 18.8762 49.5796C19.2125 49.4277 18.921 48.9316 18.587 49.0824L18.5858 49.0835Z" fill="#231F20"/>
<path d="M22.2725 65.9311C21.7525 66.6677 21.3198 67.4469 20.9675 68.2779C20.9089 68.4148 20.9192 68.5932 21.0708 68.6715C21.7112 69.0041 22.1095 68.5 22.727 68.4839C23.2481 68.4701 23.069 69.0951 23.0805 69.4369C23.0908 69.7408 23.162 69.9825 23.3709 70.2057C23.4753 70.3174 23.6727 70.3162 23.7772 70.2057C24.2971 69.6544 24.7976 69.0882 25.2819 68.5058C25.5161 68.2226 25.1132 67.814 24.8756 68.0983C24.3924 68.6807 23.8908 69.2481 23.3709 69.7983H23.7772C23.5247 69.529 23.7049 69.0122 23.6555 68.6784C23.6142 68.3987 23.4914 68.1409 23.2343 67.9993C22.5938 67.646 21.9304 68.4712 21.3611 68.1754L21.4644 68.5691C21.8168 67.7381 22.2495 66.9589 22.7695 66.2223C22.9829 65.9196 22.486 65.6318 22.2736 65.9322L22.2725 65.9311Z" fill="#231F20"/>
<path d="M41.2612 61.4216C41.3599 62.2077 40.3338 62.5507 40.2213 63.3034C40.1616 63.7028 40.3452 64.192 40.7584 64.3255C40.9627 64.3911 41.1693 64.345 41.3587 64.261C41.6709 64.1241 41.9498 63.9238 41.9774 64.4199C42.0003 64.8434 41.9762 65.275 42.3217 65.58C42.4135 65.6606 42.5604 65.6986 42.6695 65.6249C43.1756 65.2842 43.6807 64.9447 44.1868 64.604C44.4921 64.3991 44.2052 63.8996 43.8976 64.1068C43.3914 64.4475 42.8864 64.787 42.3802 65.1277L42.728 65.1726C42.2494 64.7502 42.8818 63.3989 41.8132 63.4461C41.6158 63.4542 41.4873 63.5739 41.3094 63.6314C40.5564 63.8766 40.8365 63.1872 41.1303 62.858C41.5148 62.4287 41.9154 62.0454 41.8373 61.4216C41.7914 61.059 41.2176 61.0544 41.2635 61.4216H41.2612Z" fill="#231F20"/>
<path d="M78.6119 44.2978C78.1023 44.8744 78.0036 45.5972 78.3203 46.2947C78.3927 46.4524 78.6624 46.4892 78.7714 46.3534C79.2741 45.725 80.298 45.8182 80.6618 46.5445C80.7766 46.7735 81.1209 46.701 81.1863 46.4754C81.3539 45.8988 81.5203 45.3221 81.6879 44.7455C81.7912 44.3887 81.238 44.2368 81.1347 44.5924C80.9671 45.1691 80.8007 45.7457 80.6331 46.3223C80.8076 46.2993 80.9832 46.2763 81.1576 46.2533C80.6411 45.2197 79.0928 45.0378 78.3663 45.9448L78.8173 46.0035C78.613 45.5535 78.6934 45.0712 79.0182 44.7041C79.2627 44.4278 78.8575 44.0192 78.6119 44.2966V44.2978Z" fill="#231F20"/>
<path d="M14.4171 78.4631C14.61 79.2907 14.8877 80.0837 15.2412 80.856C15.3319 81.0528 15.6407 81.0344 15.7371 80.856C15.9528 80.4543 16.1675 80.0514 16.3833 79.6498C16.4452 79.5335 16.5646 79.2043 16.6736 79.1146C17.0295 78.8245 17.2682 79.2308 17.3979 79.4529C17.6734 79.926 17.8168 80.3772 18.3815 80.5567C18.5399 80.6074 18.6799 80.4957 18.735 80.3553C19.0472 79.5519 19.2435 78.7313 19.3434 77.8761C19.387 77.509 18.8119 77.5124 18.7695 77.8761C18.6754 78.6783 18.4745 79.4506 18.1818 80.2022L18.5353 80.0008C18.0785 79.8558 17.9764 79.2158 17.7066 78.8752C17.5012 78.615 17.1913 78.3791 16.8447 78.3964C16.498 78.4136 16.3098 78.6196 16.1434 78.8901C15.814 79.4265 15.5419 80.0089 15.2447 80.5648H15.7405C15.4077 79.8374 15.1563 79.0881 14.9749 78.31C14.8912 77.9498 14.3368 78.1017 14.4217 78.4631H14.4171Z" fill="#231F20"/>
<path d="M90.3811 36.4135C90.5922 36.4135 90.7633 36.2419 90.7633 36.0302C90.7633 35.8186 90.5922 35.647 90.3811 35.647C90.17 35.647 89.9989 35.8186 89.9989 36.0302C89.9989 36.2419 90.17 36.4135 90.3811 36.4135Z" fill="#231F20"/>
<path d="M89.8348 37.7429C90.0357 37.7429 90.1986 37.5795 90.1986 37.378C90.1986 37.1765 90.0357 37.0132 89.8348 37.0132C89.6338 37.0132 89.4709 37.1765 89.4709 37.378C89.4709 37.5795 89.6338 37.7429 89.8348 37.7429Z" fill="#231F20"/>
<path d="M91.3636 37.3781C91.5848 37.3781 91.7642 37.1982 91.7642 36.9764C91.7642 36.7545 91.5848 36.5747 91.3636 36.5747C91.1424 36.5747 90.963 36.7545 90.963 36.9764C90.963 37.1982 91.1424 37.3781 91.3636 37.3781Z" fill="#231F20"/>
</g>
<defs>
<clipPath id="clip0_1479_4992">
<rect width="98" height="80" fill="white" transform="translate(0 9)"/>
</clipPath>
</defs>
</svg>
