<svg width="247" height="224" viewBox="0 0 247 224" fill="none" xmlns="http://www.w3.org/2000/svg">
<g clip-path="url(#clip0_1692_17884)">
<path d="M134.606 0C131.467 0.602316 109.726 5.13513 99.193 25.1621C90.305 42.0617 90.3358 68.1853 108.513 82.0115C122.93 92.9767 144.324 92.8223 160.703 81.081C142.093 80.9729 125.44 69.8185 118.764 53.1235C111.309 34.471 117.714 12.4131 134.606 0.003861V0Z" fill="#D6E513"/>
<path d="M152.896 0C151.266 3.72586 149.633 7.45559 148.004 11.1815C141.463 9.74516 136.32 9.67953 135.772 11.1815C135.216 12.7027 139.305 16.0347 145.556 19.2201C139.768 27.6525 140.969 29.6023 141.363 30.054C143.305 32.2702 152.892 29.1312 154.645 23.7645C155.235 21.9498 154.9 19.9845 155.344 19.9189C156.054 19.8147 156.232 24.9112 159.888 27.9575C161.76 29.5135 164.444 30.4556 165.131 29.7065C166.567 28.1312 158.104 20.3282 160.239 16.776C161.598 14.5135 166.394 15.4208 166.529 14.3282C166.687 13.0502 160.008 12.6332 156.046 8.0386C153.872 5.52123 153.139 2.46718 152.9 0H152.896Z" fill="#D6E513"/>
<path d="M73.0887 92.3551C63.6833 101.066 58.9806 105.421 58.2162 106.166C35.5289 128.27 2.90347 168.058 8.2857 174.162C14.973 181.745 78.6409 135.336 80.5289 138.042C82.5366 140.919 6.32432 187.517 13.5984 204.973C17.5405 214.432 46.8185 217.336 64.5945 204.973C81.5096 193.208 81.2856 172.289 95.4053 169.915C103.432 168.564 107.239 174.695 116.652 178.413C148.062 190.826 197.88 159.015 195.27 144.417C193.656 135.398 171.305 128.876 153.838 131.668C140.031 133.872 131.463 141.544 129.401 139.104C127.764 137.166 132.131 131.077 147.463 108.293C158.127 92.4516 161.513 87.22 160.212 80.6717C158.973 74.4362 153.529 67.2393 147.463 66.8609C131.216 65.8416 117.652 114.158 112.405 112.544C107.316 110.981 120.66 65.7181 111.344 61.5482C108.324 60.1968 104.069 63.6717 73.0965 92.359L73.0887 92.3551Z" fill="#E1E2C7"/>
<path d="M8.00773 103.873C-7.08878 123.459 0.969123 161.51 17.1699 168C19.9228 169.104 22.2085 169.011 29.3861 168C52.749 164.706 68.0038 160.131 81.2972 156.803C109.517 149.741 115.977 151.548 119.977 144.587C122.884 139.529 121.274 131.645 117.942 116.085C114.058 97.9536 112.112 88.888 106.745 84.5289C101.525 80.2895 94.4517 79.2895 60.9382 86.5636C29.2355 93.4478 13.278 97.0269 8.00773 103.869V103.873Z" fill="#497A89"/>
<path d="M16.1506 110.996C20.4981 113.633 27.0463 117.174 35.4903 120.158C44.3359 123.282 51.9652 125.977 61.9575 125.247C67.2432 124.861 77.6717 124.096 86.386 116.085C97.0308 106.297 97.5443 92.6601 97.5829 89.6176" stroke="#E1E2C7" stroke-width="6.66023" stroke-miterlimit="10" stroke-linecap="round"/>
<path d="M33.4556 76.386C33.3011 75.1351 32.4054 66.7335 38.5444 60.1003C39.0965 59.5057 46.3397 51.9112 54.8301 53.9922C62.4478 55.861 68.2818 64.8339 67.0463 75.3667" stroke="#497A89" stroke-width="6.66023" stroke-miterlimit="10" stroke-linecap="round"/>
<path d="M186.123 223.598C175.537 223.598 165.278 220.718 156.482 215.177C136.367 202.502 126.031 177.181 131.344 153.61C136.911 128.911 156.869 117.023 162.849 113.969C164.486 113.131 166.494 113.784 167.328 115.421C168.166 117.058 167.513 119.066 165.876 119.9C162.081 121.838 142.896 132.641 137.838 155.073C133.131 175.946 142.259 198.343 160.031 209.544C180.567 222.486 208.942 218.139 226.031 199.428C241.919 182.035 244.973 153.564 232.699 137.259C224.062 125.784 207.591 120.807 197.753 117.83C191.764 116.019 185.552 114.776 179.293 114.139C177.463 113.954 176.131 112.317 176.32 110.49C176.506 108.66 178.139 107.328 179.969 107.517C186.652 108.201 193.282 109.525 199.679 111.459C210.301 114.668 228.077 120.042 238.019 133.255C244.679 142.1 247.799 154.733 246.583 167.911C245.332 181.463 239.78 194.251 230.946 203.919C221.98 213.733 209.645 220.413 196.216 222.73C192.842 223.313 189.463 223.598 186.12 223.598H186.123Z" fill="#E27B14"/>
<path d="M188.498 178.965C186.892 178.965 185.386 178.614 184.038 177.815C174.73 172.278 179.594 150.745 187.251 132.444C187.961 130.749 189.911 129.95 191.606 130.656C193.301 131.367 194.104 133.316 193.394 135.011C183.78 157.996 184.776 170.502 187.444 172.089C189.768 173.475 198.058 169.44 207.907 160.297C209.255 159.046 211.363 159.123 212.614 160.471C213.865 161.818 213.787 163.926 212.44 165.177C206.444 170.749 196.274 178.965 188.502 178.965H188.498Z" fill="#E27B14"/>
</g>
<defs>
<clipPath id="clip0_1692_17884">
<rect width="246.845" height="223.598" fill="white"/>
</clipPath>
</defs>
</svg>
