<svg width="98" height="96" viewBox="0 0 98 96" fill="none" xmlns="http://www.w3.org/2000/svg">
<g clip-path="url(#clip0_1479_13423)">
<path d="M81.6491 48.0051C82.8936 45.6267 83.4887 43.0346 83.9031 40.3823C83.9528 40.0602 84.0296 39.7049 84.2993 39.5198C84.5419 39.3527 84.8643 39.3828 85.1581 39.4114C87.5146 39.6432 89.9177 39.3918 92.1748 38.6753C92.8437 38.4631 93.5187 38.1997 94.0235 37.712C94.8145 36.9488 95.0465 35.7762 95.0826 34.6758C95.2107 30.8057 93.4509 27.0847 90.3713 24.7349C87.1786 22.3009 83.4435 21.8674 80.0912 22.8127C73.7525 24.5994 69.915 31.0345 71.1821 37.4907L73.2674 48.1225C73.2674 48.1225 75.5003 59.7568 81.6506 48.0021L81.6491 48.0051Z" fill="#FDF8EA"/>
<path d="M81.973 48.1934C83.0247 46.1417 83.6529 43.9319 84.0643 41.671C84.1351 41.2856 84.1065 40.402 84.349 40.0934C84.7694 39.5576 85.803 39.8481 86.3846 39.8646C87.5568 39.8963 88.7305 39.8089 89.8861 39.6148C91.7077 39.3077 94.0837 38.8606 94.9666 37.0212C95.7561 35.3759 95.5437 33.2233 95.1474 31.5013C94.251 27.5996 91.4305 24.285 87.7059 22.7993C84.0959 21.3602 79.8908 21.8871 76.6288 23.9508C73.6546 25.8324 71.5362 28.9303 70.8356 32.3759C70.364 34.6925 70.6849 36.9007 71.1309 39.1737C71.598 41.5521 72.0635 43.9319 72.5306 46.3103C72.7144 47.248 72.8681 48.1994 73.1243 49.1221C73.5235 50.5521 74.1217 52.2652 75.3752 53.1728C77.2932 54.5637 79.2308 52.4669 80.2825 51.0037C80.9213 50.1141 81.4637 49.1613 81.976 48.1949C82.202 47.7689 81.5541 47.3895 81.3281 47.817C80.5145 49.3554 79.6135 51.0203 78.2696 52.1688C77.6835 52.6701 76.909 53.0991 76.1391 52.7604C74.8705 52.2019 74.2829 50.3851 73.9213 49.1718C73.7073 48.4553 73.5732 47.7267 73.4286 46.9952C73.0128 44.8772 72.5969 42.7578 72.1826 40.6399C71.8571 38.9825 71.4051 37.2771 71.3313 35.5836C71.1806 32.1757 72.4628 28.7813 74.8554 26.3427C77.3927 23.7566 81.0931 22.3778 84.7106 22.8023C88.7666 23.2795 92.3088 26.1079 93.8472 29.8605C94.6141 31.7331 95.0796 34.131 94.5101 36.1165C94.1515 37.3659 93.2626 37.9364 92.0798 38.3157C90.8127 38.7221 89.4913 38.9765 88.164 39.0744C87.6185 39.115 87.0716 39.1286 86.5262 39.118C85.9296 39.1075 85.3073 38.9765 84.7152 39.0187C83.7087 39.0909 83.5972 40.0001 83.4616 40.813C83.0563 43.2335 82.4566 45.6208 81.3312 47.8155C81.1112 48.2445 81.7591 48.6239 81.979 48.1934H81.973Z" fill="#231F20"/>
<path d="M13.2396 59.4031C13.2396 59.4031 44.7188 88.9774 74.1563 55.3389L13.2396 59.4031Z" fill="#F9D3E3"/>
<path d="M65.8229 55.3374C65.8229 55.3374 74.4095 58.9471 76.5972 69.4344C76.5972 69.4344 81.8163 71.8413 81.8163 75.2794H60.2662L55.5518 61.6987L65.8214 55.3374H65.8229Z" fill="#FDF8EA"/>
<path d="M65.633 55.6611C67.6927 56.5326 69.5655 58.0695 71.0948 59.6666C72.7039 61.3465 74.0057 63.3034 74.9398 65.4318C75.211 66.0505 75.4476 66.6857 75.654 67.33C75.7685 67.6853 75.8724 68.0435 75.9674 68.4048C76.0578 68.748 76.0759 69.2176 76.2341 69.5337C76.4058 69.8754 76.9286 70.0199 77.245 70.2006C79.0862 71.2558 81.3839 72.9462 81.4396 75.2794L81.8148 74.9046H60.2647C60.3853 74.9964 60.5058 75.0882 60.6263 75.18C59.2537 71.2242 57.8796 67.2683 56.5071 63.3124C56.3082 62.7404 56.1108 62.1699 55.9119 61.5979C55.8547 61.7394 55.7974 61.8794 55.7402 62.0209C59.1633 59.8999 62.5865 57.7805 66.0097 55.6596C66.4195 55.4052 66.0429 54.7564 65.6315 55.0123C62.2083 57.1332 58.7852 59.2527 55.362 61.3736C55.2279 61.4564 55.1345 61.6385 55.1902 61.7966C56.5628 65.7525 57.9369 69.7083 59.3095 73.6642C59.5084 74.2362 59.7057 74.8067 59.9046 75.3787C59.9589 75.5368 60.093 75.6542 60.2662 75.6542H81.8163C82.0152 75.6542 82.196 75.4826 82.1915 75.2794C82.1403 73.1329 80.4889 71.4966 78.8406 70.3285C78.25 69.9101 77.5388 69.6271 76.9648 69.1981C76.9286 69.171 76.8292 69.1544 76.8006 69.1183C76.9151 69.2733 76.7704 68.5132 76.7478 68.4274C76.567 67.7108 76.3486 67.0049 76.0939 66.3109C74.6068 62.2602 71.8571 58.7439 68.2863 56.3174C67.5691 55.8297 66.8113 55.3525 66.0097 55.0138C65.5698 54.8271 65.1871 55.4729 65.6315 55.6611H65.633Z" fill="#231F20"/>
<path d="M16.3826 56.2377C16.3826 56.2377 23.91 60.2944 26.0992 70.7817C26.0992 70.7817 31.3183 73.1886 31.3183 76.6267H9.76824L5.05383 53.2617L16.3826 56.2377Z" fill="#FDF8EA"/>
<path d="M16.1942 56.5611C18.1288 57.6088 19.8028 59.3173 21.1648 61.0092C22.6549 62.8607 23.8392 64.9696 24.6739 67.1944C24.9119 67.8312 25.1244 68.4769 25.3097 69.1302C25.4076 69.4734 25.4965 69.8181 25.5794 70.1659C25.6457 70.4413 25.6381 70.8297 25.8355 71.0465C26.0645 71.2978 26.5572 71.4363 26.8465 71.6034C28.656 72.6586 30.8904 74.328 30.9447 76.6265C31.0697 76.5016 31.1948 76.3767 31.3198 76.2517H9.76825C9.88878 76.3435 10.0093 76.4354 10.1298 76.5272C8.75575 69.7173 7.38166 62.9089 6.00907 56.099C5.8117 55.1206 5.61432 54.1406 5.41695 53.1622C5.26326 53.3157 5.10958 53.4693 4.9559 53.6228C8.73165 54.6148 12.5074 55.6068 16.2846 56.5988C16.7517 56.7222 16.9521 55.9982 16.4835 55.8762C12.7078 54.8842 8.93204 53.8923 5.15478 52.9003C4.86399 52.8235 4.63799 53.0854 4.69374 53.3609C6.06783 60.1708 7.44193 66.9792 8.81452 73.7891C9.01189 74.7675 9.20927 75.7474 9.40664 76.7259C9.43828 76.8854 9.61155 77.0013 9.76825 77.0013H31.3183C31.5172 77.0013 31.698 76.8297 31.6935 76.6265C31.6438 74.5312 30.0663 72.9235 28.4647 71.763C27.8665 71.3294 27.2337 70.9381 26.5768 70.6009C26.2348 70.4248 26.3553 70.5437 26.3553 70.202C26.3553 69.5035 25.944 68.6004 25.727 67.9396C24.3891 63.8723 21.9694 60.1226 18.6516 57.389C18.0008 56.8532 17.3152 56.3158 16.5709 55.9124C16.146 55.682 15.7679 56.3293 16.1927 56.5596L16.1942 56.5611Z" fill="#231F20"/>
<path d="M27.6872 76.5891C26.738 74.709 25.1906 73.0516 23.253 71.8414C22.8734 71.6036 22.465 71.3793 22.0025 71.304C21.5399 71.2303 21.0096 71.3371 20.7324 71.6623C20.5139 71.9197 20.4883 72.2584 20.5048 72.576C20.547 73.3858 20.8137 74.1881 21.2763 74.8971C20.6435 74.1972 19.9022 73.5695 19.078 73.0321C18.5462 72.6859 17.9631 72.3728 17.3062 72.2674C16.6492 72.162 15.9034 72.3035 15.477 72.7431C14.8623 73.3753 15.1094 74.3281 15.5207 75.0702C15.1471 74.6728 14.7629 74.2664 14.2551 73.9955C13.7474 73.7245 13.0859 73.6086 12.5466 73.8299C11.9876 74.0587 11.6742 74.6141 11.7028 75.141C11.7314 75.6678 12.3085 76.2142 12.7439 76.5891H27.6857H27.6872Z" fill="#FDF8EA"/>
<path d="M28.0112 76.3995C26.9037 74.265 24.9375 72.0206 22.6534 71.1069C21.8443 70.7833 20.6736 70.8164 20.2623 71.7271C19.7937 72.7642 20.4069 74.2018 20.9538 75.0884C21.1497 74.9364 21.3471 74.7858 21.543 74.6338C20.3421 73.3378 18.4964 71.6819 16.586 71.8806C14.686 72.0778 14.442 73.8104 15.1983 75.26C15.3942 75.108 15.5916 74.9574 15.7874 74.8054C14.9407 73.9098 13.7624 72.972 12.4486 73.4687C11.2855 73.9083 11.0625 75.2329 11.7781 76.1496C12.1232 76.5907 12.4441 76.9549 12.9971 76.9655C13.4476 76.973 13.8981 76.9655 14.3485 76.9655H27.6872C28.1693 76.9655 28.1709 76.2159 27.6872 76.2159H13.4039C13.2442 76.2159 12.8976 76.2851 12.7469 76.2159C12.9835 76.3242 12.6565 75.9976 12.6686 76.0142C12.4938 75.7357 12.1865 75.5897 12.1006 75.2404C11.9559 74.6534 12.4893 74.1657 13.0227 74.107C13.9613 74.0061 14.6634 74.7091 15.2556 75.3368C15.5569 75.6559 16.0375 75.251 15.8447 74.8822C15.5584 74.3343 15.2465 73.544 15.7422 73.0096C16.2681 72.4421 17.2278 72.5716 17.8682 72.8154C19.078 73.276 20.1448 74.2289 21.0111 75.1637C21.3004 75.4753 21.8232 75.0718 21.6002 74.7091C21.225 74.1009 20.2713 72.1832 21.3019 71.7241C22.1215 71.3583 23.1777 72.2103 23.7954 72.6589C25.2886 73.7442 26.512 75.1396 27.3618 76.7788C27.5848 77.2078 28.2311 76.8285 28.0096 76.401L28.0112 76.3995Z" fill="#231F20"/>
<path d="M71.717 40.6355C71.717 40.6355 48.7039 10.3357 20.2623 32.1141C15.5931 35.6891 11.6245 40.0966 8.46647 45.0565L2.87668 53.8383C2.87668 53.8383 43.5797 81.7492 76.7147 53.2603C76.7147 53.2603 73.0248 47.1172 71.717 40.6355Z" fill="#FDF8EA"/>
<path d="M72.041 40.4472C70.5599 38.5009 68.7956 36.7367 66.9951 35.0899C63.0536 31.4833 58.5637 28.423 53.6127 26.3819C47.4504 23.841 40.6628 23.15 34.1645 24.7441C25.382 26.8997 17.6286 32.7462 11.9484 39.6314C8.49208 43.8206 5.75444 48.6209 2.84353 53.1925C2.7471 53.3445 2.64917 53.4965 2.55274 53.6486C2.43823 53.8277 2.52562 54.0505 2.68683 54.1619C4.08654 55.1207 5.57665 55.9592 7.06375 56.7705C10.7868 58.8011 14.6725 60.5458 18.6577 61.9968C30.0949 66.1605 42.6682 67.8584 54.6342 65.0691C62.9331 63.1348 70.5237 59.051 76.9784 53.5251C77.1019 53.4198 77.117 53.206 77.0371 53.0705C74.7424 49.2396 72.9811 44.9044 72.0771 40.5345C71.9792 40.0619 71.256 40.2621 71.3539 40.7332C72.2685 45.1573 74.0659 49.5677 76.3892 53.4484C76.4088 53.2963 76.4284 53.1458 76.448 52.9938C70.6397 57.9657 63.8853 61.7635 56.4995 63.8167C50.2091 65.5659 43.6249 66.034 37.1311 65.462C27.0785 64.5754 17.2308 61.3059 8.33539 56.6019C6.54093 55.6536 4.74195 54.6616 3.06501 53.5131L3.19911 54.0264C5.44708 50.4935 7.60013 46.8748 9.99274 43.4367C15.2375 35.9043 22.7438 29.3503 31.5082 26.3096C37.9899 24.0607 44.9372 24.1194 51.413 26.3473C56.5688 28.1205 61.2742 31.0979 65.3814 34.6549C67.548 36.532 69.5353 38.5792 71.3614 40.7859C71.4534 40.8973 71.3629 40.7859 71.3916 40.8251C71.6794 41.2044 72.3317 40.8311 72.0395 40.4472H72.041Z" fill="#231F20"/>
<path d="M78.1852 75.2419C77.236 73.3618 75.6886 71.7045 73.751 70.4942C73.3714 70.2564 72.963 70.0321 72.5005 69.9568C72.0379 69.8831 71.5076 69.99 71.2304 70.3151C71.0119 70.5725 70.9863 70.9112 71.0029 71.2288C71.045 72.0387 71.3117 72.841 71.7743 73.55C71.1415 72.85 70.4002 72.2223 69.576 71.6849C69.0442 71.3387 68.4611 71.0256 67.8042 70.9202C67.1472 70.8149 66.4014 70.9564 65.9751 71.3959C65.3603 72.0281 65.6074 72.981 66.0187 73.7231C65.6451 73.3257 65.2609 72.9192 64.7531 72.6483C64.2454 72.3773 63.5839 72.2614 63.0446 72.4827C62.4856 72.7115 62.1722 73.267 62.2008 73.7938C62.2294 74.3207 62.8065 74.8671 63.2419 75.2419H78.1837H78.1852Z" fill="#FDF8EA"/>
<path d="M78.5091 75.0523C77.4017 72.9178 75.4355 70.6735 73.1514 69.7598C72.3423 69.4361 71.1716 69.4692 70.7603 70.3799C70.2917 71.4171 70.9049 72.8546 71.4518 73.7412C71.6477 73.5892 71.8451 73.4387 72.0409 73.2866C70.8401 71.9906 68.9944 70.3348 67.084 70.5335C65.184 70.7307 64.94 72.4632 65.6963 73.9128L66.2854 73.4582C65.4387 72.5626 64.2604 71.6248 62.9466 72.1216C61.7835 72.5611 61.5605 73.8857 62.2761 74.8025C62.6212 75.2435 62.9421 75.6078 63.495 75.6183C63.9455 75.6258 64.396 75.6183 64.8465 75.6183H78.1852C78.6673 75.6183 78.6688 74.8687 78.1852 74.8687H63.9018C63.7421 74.8687 63.3956 74.9379 63.2449 74.8687C63.4815 74.9771 63.1545 74.6504 63.1666 74.667C62.9918 74.3885 62.6844 74.2425 62.5986 73.8933C62.4539 73.3062 62.9873 72.8185 63.5207 72.7598C64.4593 72.6589 65.1614 73.3619 65.7536 73.9896C66.0549 74.3087 66.5355 73.9038 66.3427 73.535C66.0564 72.9871 65.7445 72.1968 66.2402 71.6624C66.766 71.095 67.7258 71.2244 68.3661 71.4683C69.576 71.9289 70.6427 72.8817 71.5091 73.8165C71.7984 74.1281 72.3212 73.7247 72.0982 73.3619C71.723 72.7538 70.7693 70.836 71.7999 70.3769C72.6195 70.0111 73.6757 70.8631 74.2934 71.3117C75.7866 72.397 77.01 73.7924 77.8598 75.4317C78.0827 75.8607 78.7291 75.4813 78.5076 75.0538L78.5091 75.0523Z" fill="#231F20"/>
<path d="M86.5187 32.7961C87.2642 32.7961 87.8686 32.1922 87.8686 31.4474C87.8686 30.7025 87.2642 30.0986 86.5187 30.0986C85.7731 30.0986 85.1687 30.7025 85.1687 31.4474C85.1687 32.1922 85.7731 32.7961 86.5187 32.7961Z" fill="#231F20"/>
<path d="M80.852 25.1143C81.3312 25.3085 81.4035 25.7586 80.5552 26.5233C79.8531 27.1555 79.0952 27.8163 78.1611 27.9578C77.917 27.9939 77.6549 27.9909 77.4409 27.866C77.1501 27.6974 77.0145 27.3331 77.0416 26.9975C77.0688 26.6633 77.23 26.3532 77.4198 26.0762C78.0134 25.2017 80.0309 24.7802 80.852 25.1143Z" fill="#F9D3E3"/>
<path d="M77.1697 30.3228C77.6955 30.8391 77.905 31.7694 77.4364 32.7072C77.0446 33.4899 76.2114 34.0348 75.3361 34.08C75.0257 34.0966 74.6882 34.0424 74.4697 33.8211C74.2437 33.5938 74.1985 33.2461 74.1925 32.927C74.1774 32.1472 74.2663 31.1823 74.8705 30.5607C75.7082 29.6981 76.6152 29.7794 77.1712 30.3243L77.1697 30.3228Z" fill="#F9D3E3"/>
<path d="M80.2147 28.619C81.3266 28.4865 81.6084 29.6245 81.1971 30.4885C80.9439 31.0229 80.4844 31.5151 79.8968 31.5814C78.8557 31.6973 78.3298 30.7339 78.6056 29.8127C78.7773 29.2407 79.5276 28.7033 80.2147 28.6205V28.619Z" fill="#F9D3E3"/>
<path d="M92.4716 34.3462V35.0958C92.4716 35.5775 93.2219 35.579 93.2219 35.0958V34.3462C93.2219 33.8645 92.4716 33.863 92.4716 34.3462Z" fill="#231F20"/>
<path d="M6.26369 48.5443C10.948 50.8745 16.0692 52.5153 21.1136 53.8369C31.7311 56.6187 43.0117 57.6483 53.8432 55.5123C60.9969 54.1018 67.8026 51.2297 73.7284 46.9743C74.1171 46.6958 73.7435 46.044 73.3502 46.327C63.156 53.6487 50.7078 56.432 38.2912 55.8118C29.1758 55.3572 20.1191 53.2559 11.6034 50.0029C9.92794 49.3632 8.24799 48.6949 6.64186 47.8955C6.21095 47.6818 5.82976 48.3276 6.26369 48.5428V48.5443Z" fill="#231F20"/>
<path d="M11.3789 50.2511C10.2338 52.4352 9.09024 54.6194 7.94516 56.8021C7.72066 57.2296 8.36854 57.6089 8.59303 57.1799C9.73811 54.9957 10.8817 52.8116 12.0268 50.6289C12.2513 50.2014 11.6034 49.8221 11.3789 50.2511Z" fill="#231F20"/>
<path d="M18.7224 53.161C17.8395 55.6582 16.9566 58.154 16.0737 60.6513C15.9125 61.1074 16.6372 61.303 16.7969 60.85C17.6798 58.3527 18.5627 55.8569 19.4457 53.3597C19.6069 52.9036 18.8822 52.7079 18.7224 53.161Z" fill="#231F20"/>
<path d="M28.6078 55.0517C28.1799 58.1044 27.7535 61.1556 27.3256 64.2083C27.2593 64.6795 27.9825 64.8842 28.0488 64.407C28.4767 61.3543 28.9031 58.3031 29.331 55.2504C29.3973 54.7792 28.6741 54.5745 28.6078 55.0517Z" fill="#231F20"/>
<path d="M39.4198 56.2754V66.0733C39.4198 66.555 40.1701 66.5565 40.1701 66.0733V56.2754C40.1701 55.7937 39.4198 55.7922 39.4198 56.2754Z" fill="#231F20"/>
<path d="M50.9896 55.4368C51.6977 58.6385 52.4043 61.8403 53.1125 65.042C53.2164 65.5131 53.9396 65.3129 53.8357 64.8433C53.1275 61.6416 52.4209 58.4398 51.7128 55.2381C51.6088 54.7669 50.8856 54.9671 50.9896 55.4368Z" fill="#231F20"/>
<path d="M62.9406 52.5182C64.0872 55.1223 65.2337 57.7265 66.3803 60.3306C66.5747 60.7717 67.2211 60.3908 67.0282 59.9528C65.8816 57.3486 64.735 54.7445 63.5885 52.1404C63.3941 51.6993 62.7477 52.0802 62.9406 52.5182Z" fill="#231F20"/>
<mask id="mask0_1479_13423" style="mask-type:luminance" maskUnits="userSpaceOnUse" x="2" y="24" width="75" height="43">
<path d="M71.717 40.6355C71.717 40.6355 48.7039 10.3357 20.2623 32.1141C15.5931 35.6891 11.6245 40.0966 8.46646 45.0565L2.87666 53.8383C2.87666 53.8383 43.5797 81.7492 76.7147 53.2603C76.7147 53.2603 73.0248 47.1172 71.717 40.6355Z" fill="white"/>
</mask>
<g mask="url(#mask0_1479_13423)">
<path d="M40.1611 32.7974C46.3412 32.7974 51.3512 29.7088 51.3512 25.8987C51.3512 22.0887 46.3412 19 40.1611 19C33.9809 19 28.9709 22.0887 28.9709 25.8987C28.9709 29.7088 33.9809 32.7974 40.1611 32.7974Z" fill="#231F20"/>
<path d="M20.0981 48.4614C25.6832 48.4614 30.2109 44.653 30.2109 39.9551C30.2109 35.2572 25.6832 31.4487 20.0981 31.4487C14.5129 31.4487 9.9852 35.2572 9.9852 39.9551C9.9852 44.653 14.5129 48.4614 20.0981 48.4614Z" fill="#231F20"/>
<path d="M42.3668 48.4615C45.8476 48.4615 48.6693 46.0764 48.6693 43.1343C48.6693 40.1922 45.8476 37.8071 42.3668 37.8071C38.8861 37.8071 36.0644 40.1922 36.0644 43.1343C36.0644 46.0764 38.8861 48.4615 42.3668 48.4615Z" fill="#231F20"/>
<path d="M66.6244 46.6504C72.7388 46.6504 77.6955 42.9033 77.6955 38.281C77.6955 33.6587 72.7388 29.9116 66.6244 29.9116C60.51 29.9116 55.5533 33.6587 55.5533 38.281C55.5533 42.9033 60.51 46.6504 66.6244 46.6504Z" fill="#231F20"/>
</g>
</g>
<defs>
<clipPath id="clip0_1479_13423">
<rect width="93" height="58" fill="white" transform="translate(2.5 19)"/>
</clipPath>
</defs>
</svg>
