<?xml version="1.0" encoding="UTF-8"?>
<svg id="Layer_2" data-name="Layer 2" xmlns="http://www.w3.org/2000/svg" viewBox="0 0 139.64 139.64">
  <defs>
    <style>
      .cls-1 {
        fill: #d6e513;
      }

      .cls-2 {
        fill: #8c4a60;
      }
    </style>
  </defs>
  <g id="text">
    <g>
      <circle class="cls-2" cx="69.82" cy="69.82" r="69.82"/>
      <g>
        <path class="cls-1" d="M35.42,103.4c-4.84-2.63-2.64-8.39-.45-12.23,1.36-2.45,2.99-4.88,4.8-6.96,3.12-3.71,7.01-6.13,9.86-9.02,1.87-1.88,3.35-3.95,5.21-5.91,4.41-4.8,10.78-7.96,17.28-8.74,3.33-.45,6.88-.63,9.58.18,5.58,1.49,7.81,7.58,9.44,12.61.9,2.63,2.01,5.03,3.53,7.34,4.62,6.93,11.67,14.93,2.24,20.96-3.05,2.03-6.79,3.54-10.28,4.67-4.5,1.42-8.33,2.29-12.8,1.3-4.46-.93-9.41-3.69-7.9-8.74,1.48-5.7,9.9-13.5,11.8-16.49.32-.51.87-1.42-.02-1.54-.33-.04-.83.05-1.44.24-1.32.42-3.14,1.31-4.96,2.64-4.06,2.92-7.1,7.76-9.64,12.07-3.68,6.34-5.78,9.25-13.4,9.38-4.08.04-9.32.06-12.81-1.72l-.05-.03Z"/>
        <path class="cls-1" d="M74.03,32.47c-4.06,3.08,5.46,15.92,7.95,19.28,8.59,11.6,24.41,25.8,30.04,23.47,5.24-2.16,2.23-18.84-9.08-30.12-9.39-9.37-25.06-15.55-28.91-12.63Z"/>
        <path class="cls-1" d="M65.31,32.45c-3.37-3.82-15.47,6.62-18.64,9.36-10.93,9.42-23.92,26.25-21.18,31.7,2.54,5.06,18.96.83,29.37-11.29,8.64-10.06,13.65-26.14,10.46-29.76Z"/>
      </g>
    </g>
  </g>
</svg>