<?xml version="1.0" encoding="UTF-8"?>
<svg id="Layer_2" data-name="Layer 2" xmlns="http://www.w3.org/2000/svg" viewBox="0 0 152.74 130.52">
  <defs>
    <style>
      .cls-1 {
        fill: #d6e513;
      }
    </style>
  </defs>
  <g id="text">
    <g>
      <path class="cls-1" d="M17.6,122.64c-8.27-4.49-4.51-14.34-.78-20.9,2.32-4.19,5.1-8.33,8.2-11.9,5.34-6.33,11.98-10.47,16.85-15.41,3.2-3.22,5.72-6.74,8.91-10.1,7.54-8.2,18.42-13.61,29.53-14.93,5.68-.78,11.76-1.08,16.36.3,9.53,2.54,13.34,12.96,16.13,21.54,1.54,4.49,3.43,8.59,6.04,12.54,7.89,11.83,19.94,25.5,3.84,35.82-5.21,3.47-11.6,6.05-17.56,7.98-7.69,2.43-14.23,3.92-21.88,2.22-7.62-1.58-16.08-6.31-13.49-14.94,2.53-9.75,16.91-23.07,20.17-28.18.55-.87,1.49-2.42-.03-2.63-.57-.06-1.42.09-2.47.42-2.25.72-5.36,2.23-8.47,4.51-6.94,4.98-12.14,13.26-16.47,20.62-6.28,10.83-9.87,15.81-22.89,16.03-6.97.08-15.93.1-21.89-2.94l-.09-.05Z"/>
      <path class="cls-1" d="M83.57,1.45c-6.93,5.25,9.32,27.19,13.58,32.94,14.68,19.81,41.71,44.08,51.33,40.11,8.95-3.69,3.81-32.19-15.52-51.47C116.91,7.03,90.15-3.53,83.57,1.45Z"/>
      <path class="cls-1" d="M68.67,1.42c-5.75-6.52-26.43,11.31-31.85,15.99C18.16,33.51-4.04,62.26.63,71.56c4.34,8.65,32.39,1.41,50.18-19.29,14.77-17.19,23.33-44.66,17.87-50.85Z"/>
    </g>
  </g>
</svg>