<?xml version="1.0" encoding="UTF-8"?>
<svg id="Layer_2" data-name="Layer 2" xmlns="http://www.w3.org/2000/svg" viewBox="0 0 132.22 173.45">
  <defs>
    <style>
      .cls-1, .cls-2 {
        fill: #8c4a60;
      }

      .cls-2 {
        font-family: Inter-Bold, Inter;
        font-size: 12.29px;
        font-weight: 700;
      }
    </style>
  </defs>
  <g id="text">
    <g>
      <path class="cls-1" d="M51.48,101.12c-1.46,6.09-5.04,8.84-10.66,8.84-1.58,0-2.81-.29-3.81-.94-1.17-.76-1.87-1.11-2.11-1.17.64,1.82,1.11,3.63,1.52,6.03.06.7.12,1.17.12,1.46,0,3.92-2.93,6.26-6.91,6.26-1.7,0-3.1-.35-4.1-1.11-1.7-1.23-2.52-3.4-2.52-6.5,0-1.23.53-3.28,1.52-6.21,1-2.87,1.46-5.5,1.46-7.9,0-.88-.41-3.1-1.23-6.62-.41-1.82-.64-3.28-.64-4.27,0-2.34.53-4.1,1.58-5.27.94-1,2.22-1.52,3.81-1.52,1.41,0,2.52.23,3.28.7.64.53,1.29,1.11,1.93,1.64,2.52-1.11,5.21-2.22,6.85-2.22,3.81,0,6.67,1.46,8.61,4.33,1.58,2.4,2.4,5.33,2.4,8.84,0,1.64-.94,5.09-1.11,5.62ZM44.63,94.62c0-1.35-.7-2.34-2.34-2.63-1.11-.23-3.4.29-3.4,1.99,0,1.23.29,2.17.88,2.81.47.53,1.05.82,1.7.82.7,0,1.41-.29,2.11-.82.23-.18.53-.41.82-.82.18-.41.23-.94.23-1.35Z"/>
      <path class="cls-1" d="M75.43,111.01c-1.87,0-2.46-.23-3.69-1.93-1.46.76-2.52,1.23-3.16,1.52-1.17.53-2.4.76-3.69.76-3.92,0-6.79-1.05-8.67-3.1-1.64-1.82-2.46-4.39-2.46-7.67,0-5.68,3.51-13.12,8.2-15.93.76-.41,2.63-.82,3.57-.82,1.29,0,2.52.29,3.63.94.76.41,1.93,1.41,3.4,2.87l.88-2.34c.53-.88,1.41-1.35,2.75-1.35,2.17,0,3.45,2.69,3.45,6.15,0,2.11-.7,7.2-1.35,12.06,0,.82.23,1.76.76,2.87.53,1.11.76,1.93.76,2.46,0,1.7-1.76,3.51-4.39,3.51ZM60.97,96.2c0,1,.29,1.87,1,2.4.53.53,1.23.76,2.05.76,1.64,0,3.81-1,3.81-3.51,0-1.93-1.41-3.34-3.22-3.34-.76,0-1.52.23-2.17.7-1,.64-1.46,1.64-1.46,2.99Z"/>
      <path class="cls-1" d="M103.33,111.83c-.78,2.71-2.78,4.22-5.99,4.47-3.09.25-5.34-.63-6.67-2.64-.8-1.17-1.5-3.29-2.1-6.47-.67-3.18-2.43-6.15-5.29-8.92-1.27-1.25-1.97-2.6-2.09-4.12-.13-1.58.46-3.09,1.82-4.43,1.14-1.15,2.27-1.77,3.38-1.86,5.08-.41,9.21,2.08,9.59,6.81.05.64,0,1.53-.2,2.66-.44,2.62-.63,3.93-.62,3.99.02.29.23.63.54.9.19.16.37.26.55.25.82-.07,1.3-.69,1.49-1.88.12-.66.13-1.36.07-2.12-.07-.93-.28-2.03-.56-3.3-.01-.18-.1-.46-.18-.75v-1.29s0-.23,0-.23c-.13-1.63.57-3.16,2.16-4.58,1.31-1.22,2.55-1.85,3.72-1.94,4.96-.4,8.52,2.2,8.9,7.04.05.64,0,1.53-.2,2.66-.44,2.62-.63,3.93-.62,3.99.02.29.23.63.54.9.19.16.37.26.55.25.82-.07,1.3-.69,1.49-1.88.12-.66.13-1.36.07-2.12-.07-.93-.28-2.03-.56-3.3-.01-.18-.1-.46-.18-.75-.33-4.14,2.8-7.62,6.3-7.9,3.09-.25,5.85,1.94,6.11,5.21.19,2.33-.24,4.37-1.27,6.15-2.69,4.56-4.07,7.08-4.09,7.61-.43,4.15-.67,6.34-.71,6.52-.85,2.59-2.85,4.05-6.06,4.3-3.15.25-5.52-.73-7.11-3.01-1.2-1.73-1.91-4.02-2.14-6.94-.23,2.25-.4,4.5-.64,6.75Z"/>
      <path class="cls-1" d="M23.77,128.74c-.64.23-1.76.35-3.4.35-.76.23-1.35.53-1.64.88-.53.64-.82,1.46-.82,2.52l-.18,4.86c0,2.28.59,4.16,1.81,5.56,1.17,1.46,1.76,2.69,1.76,3.69,0,1.64-.82,2.99-2.4,4.04-1.41.94-3.1,1.41-5.04,1.41-2.05,0-5.45-2.81-5.45-4.22-.18-.29-.29-.59-.35-.76-.23-.64-.35-1.17-.35-1.58,0-5.15,1-9.49,1.87-13.7-.06-.53-.12-.88-.18-1.11-.18-.76-.41-1.35-.7-1.7-.88.59-1.41,1-1.7,1.17-.53.35-1.17.53-2.05.53-3.22,0-4.98-2.4-4.98-5.86,0-2.63,1.7-4.92,3.98-4.92.47,0,1,.18,1.52.47,1.64.94,2.58,1.41,2.81,1.46.18-.29.23-.64.23-1.05,0-1.05-.29-2.28-.82-3.69-.29-.7-.41-1.35-.41-1.99,0-3.28,1.93-6.56,4.22-6.56,3.28,0,6.09,2.69,6.09,5.56,0,1.05-.23,2.4-.64,3.98-.23.88-.35,1.64-.35,2.28,0,.41.29,1.87.47,2.17.47-.47,1.05-.82,1.7-1.11.88-.41,1.76-.59,2.52-.59,1.23,0,2.34.59,3.28,1.82.76,1,1.17,1.93,1.17,2.69,0,1.76-.64,2.87-1.99,3.4Z"/>
      <path class="cls-1" d="M46.44,150.89c-1.87,0-2.46-.23-3.69-1.93-1.46.76-2.52,1.23-3.16,1.52-1.17.53-2.4.76-3.69.76-3.92,0-6.79-1.05-8.67-3.1-1.64-1.82-2.46-4.39-2.46-7.67,0-5.68,3.51-13.12,8.2-15.93.76-.41,2.63-.82,3.57-.82,1.29,0,2.52.29,3.63.94.76.41,1.93,1.41,3.4,2.87l.88-2.34c.53-.88,1.41-1.35,2.75-1.35,2.17,0,3.45,2.69,3.45,6.15,0,2.11-.7,7.2-1.35,12.06,0,.82.23,1.76.76,2.87.53,1.11.76,1.93.76,2.46,0,1.7-1.76,3.51-4.39,3.51ZM31.98,136.07c0,1,.29,1.87,1,2.4.53.53,1.23.76,2.05.76,1.64,0,3.81-1,3.81-3.51,0-1.93-1.41-3.34-3.22-3.34-.76,0-1.52.23-2.17.7-1,.64-1.46,1.64-1.46,2.99Z"/>
      <path class="cls-1" d="M52.42,126.47c.18-2.17.41-4.39.64-6.62.41-1.82,1.11-3.04,2.17-3.75,1.41-1,3.86-1.82,5.27-1.82,1,0,1.81.35,2.46,1,.94,1,1.41,2.52,1.41,4.57,0,4.51-2.58,10.07-2.58,13.47.12.76.18,1.23.18,1.46.06.76.18,1.7.82,1.7s1.23-.88,1.82-2.69c.41-1.11.82-1.93,1.23-2.46,1-1.23,2.81-1.87,5.33-1.87,1.35,0,2.46.23,3.45.7,1.58.76,2.4,1.99,2.4,3.69,0,1.52-1.23,2.93-3.75,4.16-2.52,1.23-3.75,2.34-3.75,3.22,0,.76.88,1.41,2.69,1.93,1.76.53,2.99,1,3.69,1.29,2.87,1.35,3.92,2.99,3.92,5.74,0,1.76-.76,3.34-2.23,4.8-1.35,1.29-2.52,1.93-3.57,1.93-1.7,0-3.28-1.11-4.74-3.28-1.23-2.34-1.93-3.69-2.11-3.98-.47-.64-.82-1.17-1.11-1.46-.88-1-1.64-1.46-2.34-1.46-.29,0-.82.76-.82,1,.41,1,.82,2.4.82,3.86,0,.64-1.35,3.86-2.05,3.86-.29.41-.64.76-.94.94-.94.64-2.22.94-3.81.94-2.11,0-3.57-.94-4.39-2.81-.59-1.35-.88-3.22-.88-5.74.41-1.29.82-2.63,1.23-3.98.88-2.87,1.29-4.98,1.29-6.32,0-.41,0-.76-.06-.94l-1.7-11.07Z"/>
      <path class="cls-1" d="M96.15,149.84c-1.11.18-2.52.35-4.33.35h-.82c-.35-.06-.59-.12-.76-.12-2.58-.41-4.51-1.05-5.74-1.93-2.87-2.11-4.68-6.85-4.68-12s1.41-8.96,4.22-11.71c2.64-2.58,6.15-3.86,10.54-3.86,5.86,0,10.07,3.45,10.07,8.67,0,3.04-3.92,6.21-9.37,6.21-1.7,0-2.81-.06-3.45-.23-1.05-.29-2.05-.88-2.99-1.87-.18.53-.47,1.52-.47,2.17s.23,1.41.64,2.28c.88,1.7,2.99,2.58,4.86,2.58.29,0,1.23-.53,2.81-1.64,1.58-1.11,2.87-1.64,3.75-1.64,3.04,0,4.8,1.46,4.8,4.68s-5.09,8.08-9.08,8.08ZM96.1,126.07c-.29-.06-.7-.06-1.29-.12-.76,0-1.82.94-1.64,2.34.12.29.23.47.35.59.35.41.88.59,1.52.59.41,0,.7-.06.94-.12.76-.18,1.17-.7,1.35-1.46,0-.12,0-.29.06-.53,0-.64-.41-1.11-1.29-1.29Z"/>
      <path class="cls-1" d="M123.91,131.94c-.59,0-1.29-.12-2.05-.35-.76-.23-1.35-.35-1.64-.35-1.93,0-3.1,1.7-3.1,4.1,0,.06.12,1.17.41,3.34.18,1.23.23,2.46.23,3.75,0,2.4-.64,4.16-1.99,5.27-1,.82-2.28,1.23-3.86,1.23-2.75,0-6.73-3.16-6.73-5.91,0-.59.29-2.05.94-4.33.59-2.28.88-3.69.88-4.22,0-.59-.23-1.99-.76-4.16-.29-1.17-.41-2.05-.41-2.58,0-1.99.47-3.81,1.41-5.5,1.11-1.93,2.46-2.93,4.16-2.93,1.23,0,2.22.35,3.1,1.11.47.41,1.17,1.29,2.17,2.63.41-.18,1.76-1,3.92-2.4,1.58-1,3.04-1.52,4.51-1.52,4.74,0,7.14,1.58,7.14,4.8s-4.74,8.02-8.31,8.02Z"/>
      <path class="cls-1" d="M81.18,119.92c0,2.1-1.07,3.91-3.17,3.91s-3.81-1.81-3.81-3.91,1.72-3.85,3.81-3.85,3.17,1.75,3.17,3.85Z"/>
      <text class="cls-2" transform="translate(23.18 164.17) rotate(13.8)"><tspan x="0" y="0">t</tspan></text>
      <text class="cls-2" transform="translate(27.4 165.24) rotate(11.89)"><tspan x="0" y="0">a</tspan></text>
      <text class="cls-2" transform="translate(34.01 166.64) rotate(9.56)"><tspan x="0" y="0">k</tspan></text>
      <text class="cls-2" transform="translate(40.67 167.77) rotate(7.19)"><tspan x="0" y="0">e</tspan></text>
      <text class="cls-2" transform="translate(47.5 168.61) rotate(5.58)"><tspan x="0" y="0"> </tspan></text>
      <text class="cls-2" transform="translate(49.83 168.85) rotate(4.44)"><tspan x="0" y="0">t</tspan></text>
      <text class="cls-2" transform="translate(54.16 169.22) rotate(2.42)"><tspan x="0" y="0">h</tspan></text>
      <text class="cls-2" transform="translate(61.44 169.53) rotate(-.04)"><tspan x="0" y="0">e</tspan></text>
      <text class="cls-2" transform="translate(68.47 169.59) rotate(-3.13)"><tspan x="0" y="0">m</tspan></text>
      <text class="cls-2" transform="translate(79.29 168.92) rotate(-5.4)"><tspan x="0" y="0"> </tspan></text>
      <text class="cls-2" transform="translate(81.67 168.74) rotate(-7.05)"><tspan x="0" y="0">g</tspan></text>
      <text class="cls-2" transform="translate(89.02 167.83) rotate(-9.49)"><tspan x="0" y="0">o</tspan></text>
      <text class="cls-2" transform="translate(96.08 166.66) rotate(-11.87)"><tspan x="0" y="0">o</tspan></text>
      <text class="cls-2" transform="translate(103.08 165.2) rotate(-14.27)"><tspan x="0" y="0">d</tspan></text>
      <text class="cls-2" transform="translate(110.22 163.36) rotate(-16)"><tspan x="0" y="0">.</tspan></text>
      <text class="cls-2" transform="translate(113.25 162.49) rotate(-17.02)"><tspan x="0" y="0">.</tspan></text>
      <text class="cls-2" transform="translate(116.25 161.58) rotate(-18.03)"><tspan x="0" y="0">.</tspan></text>
      <g>
        <path class="cls-1" d="M38.34,68.03c-4.59-2.49-2.5-7.95-.43-11.6,1.29-2.33,2.83-4.62,4.55-6.6,2.96-3.51,6.65-5.81,9.35-8.55,1.78-1.78,3.17-3.74,4.94-5.6,4.18-4.55,10.22-7.55,16.38-8.28,3.15-.43,6.52-.6,9.08.17,5.29,1.41,7.4,7.19,8.95,11.95.85,2.49,1.9,4.77,3.35,6.95,4.38,6.56,11.06,14.15,2.13,19.87-2.89,1.92-6.43,3.36-9.74,4.43-4.26,1.35-7.89,2.17-12.14,1.23-4.23-.88-8.92-3.5-7.48-8.29,1.4-5.41,9.38-12.8,11.19-15.63.31-.48.82-1.34-.02-1.46-.32-.03-.79.05-1.37.23-1.25.4-2.97,1.24-4.7,2.5-3.85,2.77-6.73,7.35-9.14,11.44-3.48,6.01-5.48,8.77-12.7,8.89-3.87.04-8.84.06-12.14-1.63l-.05-.03Z"/>
        <path class="cls-1" d="M74.93.81c-3.84,2.92,5.17,15.09,7.53,18.28,8.14,10.99,23.14,24.45,28.48,22.25,4.96-2.05,2.11-17.86-8.61-28.55C93.43,3.9,78.58-1.96,74.93.81Z"/>
        <path class="cls-1" d="M66.67.79c-3.19-3.62-14.66,6.27-17.67,8.87-10.36,8.93-22.67,24.89-20.08,30.05,2.41,4.8,17.97.78,27.84-10.7,8.19-9.54,12.94-24.78,9.91-28.21Z"/>
      </g>
    </g>
  </g>
</svg>